<?xml version="1.0" standalone="no"?>
<!DOCTYPE svg PUBLIC "-//W3C//DTD SVG 20010904//EN"
 "http://www.w3.org/TR/2001/REC-SVG-20010904/DTD/svg10.dtd">
<svg version="1.0" xmlns="http://www.w3.org/2000/svg"
 width="1280.000000pt" height="1280.000000pt" viewBox="0 0 1280.000000 1280.000000"
 preserveAspectRatio="xMidYMid meet">
<metadata>
Created by potrace 1.15, written by Peter Selinger 2001-2017
</metadata>
<g transform="translate(0.000000,1280.000000) scale(0.100000,-0.100000)"
fill="#5c6f46" stroke="none">
<path d="M6374 10048 c-15 -24 -39 -57 -55 -73 -24 -26 -27 -35 -20 -60 7 -27
4 -34 -30 -65 l-38 -36 16 -45 17 -46 -37 -65 c-20 -37 -37 -69 -37 -72 0 -3
12 -12 26 -19 l26 -14 -30 -12 c-36 -15 -57 -10 -96 24 l-30 26 -24 -31 c-26
-33 -49 -33 -87 0 -38 32 -44 32 -59 -4 -13 -31 -22 -37 -73 -52 -32 -9 -62
-20 -67 -25 -13 -12 17 -43 70 -74 40 -23 43 -29 46 -73 3 -42 6 -47 28 -50
14 -2 32 -10 40 -17 8 -7 31 -18 50 -23 29 -9 19 -10 -66 -11 -87 -1 -107 -4
-152 -27 -94 -47 -205 -192 -218 -286 -9 -63 19 -159 71 -249 49 -83 55 -102
25 -74 -15 13 -28 16 -56 10 -114 -21 -129 -165 -24 -224 68 -38 142 -24 181
35 21 32 27 133 9 178 -12 32 -2 33 60 5 123 -56 240 38 227 183 -10 112 -64
168 -160 168 -98 0 -147 -44 -147 -134 0 -60 14 -92 47 -110 15 -8 22 -15 15
-16 -28 0 -70 56 -77 103 -16 108 15 171 109 217 60 30 72 32 133 28 45 -3 85
-14 118 -31 56 -28 109 -77 83 -77 -9 0 -29 -36 -55 -102 -69 -172 -74 -207
-50 -334 8 -38 11 -79 6 -90 -4 -10 -55 -63 -113 -118 -62 -57 -119 -119 -136
-149 -46 -82 -64 -231 -29 -253 6 -3 20 3 32 14 34 32 51 15 32 -32 l-16 -37
-31 22 c-37 27 -116 36 -158 19 -61 -25 -101 -122 -81 -196 9 -33 45 -96 86
-151 15 -20 -16 -44 -65 -50 -40 -6 -44 -9 -66 -57 -12 -28 -25 -67 -29 -86
-5 -32 -3 -37 27 -54 l33 -19 -30 -10 c-47 -15 -253 -14 -308 2 -64 19 -112
63 -101 94 4 12 8 41 8 64 0 33 -6 49 -27 71 -24 25 -27 35 -27 99 l0 71 33
-16 c51 -27 188 -23 254 7 66 29 155 122 189 196 54 118 54 267 -1 374 -68
136 -269 224 -437 193 -236 -44 -392 -248 -416 -545 l-7 -82 -36 -3 c-43 -4
-85 26 -105 75 -16 38 -15 38 -60 17 -33 -16 -34 -15 -65 10 -19 17 -38 25
-48 21 -9 -4 -46 -9 -83 -12 -38 -3 -68 -10 -68 -15 0 -6 7 -35 16 -66 11 -38
15 -77 12 -124 l-5 -68 28 0 c41 0 91 -53 87 -94 -3 -27 0 -31 25 -34 16 -2
44 -14 64 -28 20 -13 40 -24 44 -24 5 0 11 -10 14 -23 5 -17 -4 -39 -29 -77
-64 -97 -84 -199 -57 -296 23 -86 112 -171 204 -196 135 -36 257 106 203 236
-24 57 -107 97 -160 76 -16 -6 -26 -6 -26 0 0 19 46 51 94 65 56 17 150 20
141 5 -3 -5 13 -15 36 -21 22 -7 48 -23 56 -35 8 -13 31 -33 51 -44 29 -18 45
-20 81 -15 26 4 51 11 57 16 6 5 39 3 80 -6 38 -8 96 -15 129 -16 l60 -1 -55
-9 c-189 -32 -411 -136 -536 -251 -46 -43 -191 -230 -294 -381 -139 -204 -268
-299 -442 -326 -130 -21 -293 32 -382 124 -67 68 -89 136 -83 250 5 96 21 144
63 194 63 75 174 88 247 31 67 -53 36 -200 -42 -200 -37 0 -53 20 -49 62 3 32
5 33 53 38 56 6 67 23 38 59 -40 50 -144 36 -192 -25 -43 -55 -11 -178 61
-239 101 -85 119 -86 209 -13 19 14 47 30 62 34 29 7 29 6 25 -37 -3 -42 -2
-44 25 -47 57 -7 101 42 118 132 14 77 -2 156 -40 193 l-28 27 29 54 c34 65
36 111 8 186 -46 123 -171 182 -305 145 -50 -14 -134 -94 -117 -111 8 -8 25
-5 62 11 65 28 104 17 155 -42 40 -46 46 -94 17 -120 -16 -15 -24 -13 -102 15
-69 24 -96 29 -142 25 -261 -23 -426 -358 -302 -613 31 -66 161 -191 231 -223
l53 -24 -85 -48 c-103 -57 -194 -128 -271 -212 -59 -64 -158 -206 -199 -288
-21 -40 -29 -47 -62 -53 -21 -3 -49 -9 -62 -13 -22 -6 -23 -4 -17 22 19 76 19
85 0 85 -63 0 -134 43 -134 80 0 52 -80 75 -198 58 -66 -10 -74 -9 -86 7 -7
10 -18 15 -24 11 -15 -9 -15 -43 -1 -52 7 -4 9 -24 6 -53 l-6 -46 77 -77 c67
-69 74 -78 52 -78 -40 1 -137 45 -195 90 -30 23 -80 75 -111 116 -31 41 -61
74 -65 74 -20 0 -7 -62 26 -128 43 -85 131 -171 225 -221 36 -19 68 -39 72
-45 25 -37 -14 -133 -79 -193 -36 -34 -46 -50 -48 -80 -2 -21 -32 -135 -67
-253 l-63 -215 5 -122 c6 -120 16 -153 46 -153 16 0 21 32 29 168 5 107 26
271 45 357 9 43 16 53 48 70 35 19 37 23 37 70 1 81 74 205 121 205 7 0 10 -8
7 -20 -3 -11 0 -26 5 -33 8 -10 7 -28 -6 -67 -17 -52 -17 -53 6 -68 14 -9 22
-25 22 -43 0 -64 40 -107 55 -58 4 11 9 18 12 15 11 -11 78 26 124 69 27 25
52 45 57 45 5 0 12 -71 15 -157 8 -221 42 -360 136 -558 71 -149 238 -339 365
-415 42 -25 74 -49 73 -54 -8 -24 -58 -49 -102 -50 -37 -2 -49 -7 -63 -28 -9
-14 -32 -45 -49 -68 -18 -24 -33 -53 -33 -64 0 -12 -18 -39 -40 -61 -22 -21
-40 -45 -40 -52 0 -6 17 -15 38 -19 24 -5 48 -19 70 -43 32 -35 34 -36 115
-37 45 -1 91 2 103 6 41 16 82 18 88 5 16 -42 16 -106 1 -158 -18 -62 -14 -92
16 -107 10 -6 31 -34 45 -62 27 -54 145 -175 237 -246 46 -35 62 -41 136 -51
246 -32 413 6 510 115 64 73 83 157 60 264 -33 153 -214 203 -316 87 -59 -68
-66 -158 -17 -217 72 -85 196 -46 211 68 4 31 0 44 -18 66 -28 32 -99 49 -99
24 0 -9 7 -22 16 -29 25 -20 36 -59 23 -75 -17 -21 -66 -17 -79 5 -15 29 -12
83 5 108 23 32 83 48 127 34 52 -17 80 -52 85 -108 15 -146 -81 -239 -281
-274 -87 -15 -173 0 -239 41 -27 16 -58 30 -69 30 -37 0 -158 101 -158 132 0
10 -13 30 -29 46 -16 15 -33 40 -36 55 -9 36 2 77 20 77 9 0 20 -11 25 -25 6
-15 17 -25 29 -25 11 0 24 -6 28 -14 14 -24 95 -87 107 -83 6 2 11 26 11 53 0
37 9 67 39 123 56 108 58 122 36 194 -25 78 -25 90 0 112 11 10 20 21 20 26 0
4 -24 21 -54 38 -68 38 -78 52 -28 40 65 -16 331 -22 432 -10 166 20 336 71
489 145 28 13 51 22 51 20 0 -3 -10 -23 -21 -46 -16 -31 -23 -67 -26 -142 -9
-178 33 -291 160 -423 159 -166 331 -210 547 -139 l75 24 6 -69 c8 -82 38
-139 104 -197 78 -68 201 -80 281 -26 19 13 33 20 29 14 -3 -5 0 -10 9 -10 8
0 16 -4 18 -8 2 -4 22 -18 46 -30 l42 -22 43 22 c23 12 47 28 54 34 10 9 26 6
75 -13 79 -32 153 -28 228 13 98 53 150 136 150 238 0 52 8 56 64 32 135 -56
305 -59 411 -7 81 40 198 163 250 262 68 129 77 236 35 399 -10 41 -18 75 -17
76 1 2 65 -22 142 -52 322 -126 408 -141 692 -121 185 13 196 10 106 -34 -40
-20 -44 -24 -38 -48 16 -59 17 -129 2 -157 -21 -42 -2 -134 41 -202 27 -41 33
-60 31 -93 -2 -27 1 -44 9 -47 24 -8 150 83 164 119 4 11 14 16 26 12 25 -6
21 -24 -24 -118 -51 -108 -127 -175 -199 -175 -14 0 -25 -4 -25 -9 0 -21 -71
-51 -143 -62 -230 -34 -428 97 -402 267 10 69 57 114 118 114 60 0 75 -7 92
-41 21 -39 19 -92 -3 -112 -33 -30 -82 -16 -82 23 0 8 9 32 20 53 24 44 24 43
4 51 -30 11 -81 -20 -93 -57 -31 -93 31 -171 120 -153 79 16 125 59 129 121 5
71 0 86 -46 135 l-47 50 -76 0 c-160 -1 -231 -78 -218 -237 11 -139 114 -233
311 -283 130 -33 273 -21 389 33 66 31 229 180 241 221 5 17 29 58 53 91 35
47 43 65 38 85 -20 74 -17 108 9 143 l26 34 104 -5 c121 -5 152 0 159 28 6 22
33 36 90 45 32 5 38 10 35 28 -2 13 -17 29 -37 39 -22 11 -40 31 -52 58 -33
74 -110 170 -136 170 -13 0 -38 6 -56 13 -36 16 -68 47 -47 47 54 0 310 237
390 361 122 188 182 398 198 688 l7 123 50 -49 c74 -72 118 -102 162 -109 l40
-6 21 85 c20 79 21 88 6 122 -14 33 -14 39 1 61 9 14 23 28 31 31 33 12 69
-52 85 -150 17 -104 18 -107 40 -107 40 0 65 -100 100 -402 12 -109 26 -203
31 -210 6 -10 12 -8 23 6 11 15 15 52 16 155 1 75 1 138 1 141 -2 33 -78 345
-91 376 -11 24 -16 53 -13 73 4 29 -1 37 -45 77 -51 44 -80 91 -93 151 -8 33
-7 33 96 99 57 36 124 89 149 116 50 56 95 143 103 200 7 54 -15 49 -57 -13
-77 -113 -198 -207 -291 -225 l-35 -7 37 41 c70 77 87 112 94 188 8 83 0 93
-51 68 -26 -12 -50 -15 -88 -11 -29 4 -75 4 -103 1 -49 -6 -51 -8 -73 -55 -24
-54 -46 -70 -106 -79 l-40 -5 2 -52 2 -51 -32 8 c-18 4 -44 11 -59 14 -22 5
-35 21 -64 79 -106 210 -250 364 -446 479 l-77 45 53 16 c44 14 67 31 128 96
48 49 87 101 106 142 118 242 11 505 -239 589 -78 27 -159 23 -236 -10 -28
-12 -57 -19 -64 -15 -7 5 -10 27 -7 63 4 45 10 60 33 80 26 22 35 24 89 18 34
-3 73 -8 89 -12 66 -15 3 78 -75 110 -141 59 -338 -71 -338 -222 0 -45 21
-105 45 -132 13 -15 12 -19 -10 -40 -43 -40 -62 -134 -44 -218 14 -71 63 -125
106 -120 27 3 28 5 24 52 l-3 49 28 -7 c16 -4 40 -18 54 -30 41 -38 73 -56 97
-56 13 0 23 4 23 10 0 5 18 14 41 20 56 15 126 82 140 132 26 98 -39 188 -138
188 -34 0 -46 -5 -67 -30 -33 -40 -25 -63 19 -54 47 9 75 -9 75 -49 0 -64 -60
-79 -104 -26 -48 56 -47 131 2 169 24 19 37 21 109 18 99 -4 126 -20 167 -100
24 -49 28 -68 28 -141 0 -108 -23 -191 -65 -235 -79 -83 -225 -152 -321 -152
-54 0 -317 108 -346 142 -23 26 -174 227 -298 394 -174 235 -353 369 -588 436
-67 19 -103 22 -234 22 -220 0 -243 -12 -297 -154 -9 -25 -18 -47 -20 -49 -1
-2 -23 15 -48 37 l-44 42 39 20 c43 22 81 72 99 131 12 36 12 36 54 28 23 -4
58 -14 77 -22 65 -27 382 -20 484 10 11 3 16 1 12 -5 -7 -11 52 -32 90 -32 12
0 43 21 70 47 27 26 51 47 54 48 38 8 60 17 60 25 0 17 87 11 140 -9 28 -11
66 -31 85 -45 57 -44 77 -29 46 32 -23 46 -44 60 -129 92 -43 16 -59 26 -50
31 37 24 182 -5 227 -45 36 -33 64 -115 58 -172 -6 -55 -33 -118 -64 -146 -31
-28 -93 -50 -123 -43 -62 14 -100 95 -61 134 31 31 66 27 81 -9 17 -42 36 -56
55 -40 21 18 19 67 -5 106 -25 39 -47 48 -100 39 -78 -13 -120 -71 -120 -165
0 -45 4 -54 39 -89 69 -69 186 -79 265 -24 74 52 124 191 113 313 -6 65 -25
112 -68 162 -39 46 -33 67 26 91 25 11 45 23 45 27 0 5 12 10 28 12 22 2 28 8
30 36 2 17 8 32 13 32 5 0 21 11 34 24 15 16 35 24 51 23 l26 -2 3 100 c2 55
8 114 13 132 14 43 1 52 -90 62 -71 9 -74 8 -102 -19 l-29 -28 -28 20 c-33 25
-54 19 -77 -23 -31 -58 -49 -70 -95 -67 -41 3 -42 4 -44 43 -17 270 -129 483
-296 560 -122 57 -277 60 -388 8 -134 -62 -190 -153 -197 -318 -7 -156 34
-271 129 -360 63 -59 133 -80 243 -72 45 3 89 8 99 12 13 6 20 -1 32 -29 19
-45 20 -106 2 -106 -21 0 -56 -43 -63 -77 -3 -18 -1 -46 5 -63 14 -41 2 -64
-47 -89 -80 -41 -258 -51 -340 -20 l-26 10 27 22 27 22 -30 74 c-38 91 -45
101 -80 101 -15 0 -38 8 -51 19 l-23 19 26 38 c79 114 86 241 16 306 -39 37
-104 38 -171 5 -30 -15 -48 -20 -51 -13 -2 6 -12 29 -21 50 l-17 39 24 -15
c56 -36 66 -41 82 -35 35 14 12 177 -37 257 -12 19 -62 79 -112 134 -149 163
-139 146 -121 219 30 119 13 227 -58 371 -35 73 -40 90 -30 104 7 9 16 17 21
18 4 0 35 14 68 29 88 42 161 41 239 -4 73 -42 106 -104 105 -191 l-1 -55 -9
49 c-17 105 -46 136 -127 136 -66 0 -149 -43 -174 -90 -20 -39 -24 -114 -7
-157 15 -40 57 -82 104 -104 48 -22 84 -24 128 -5 l33 13 1 -68 c1 -81 30
-150 69 -167 36 -17 112 -15 144 5 51 30 63 89 34 163 -27 66 -88 85 -136 42
-30 -26 -21 -41 25 -44 38 -3 42 -6 45 -31 4 -34 -22 -67 -53 -67 -33 0 -45
20 -45 72 0 40 10 68 54 151 79 147 99 213 85 277 -12 58 -73 154 -126 201
-47 41 -85 56 -207 84 -80 17 -94 23 -73 29 15 3 27 11 27 16 0 6 16 10 36 10
34 0 36 2 31 27 -9 47 11 80 69 113 30 16 54 37 54 45 0 9 -20 20 -52 30 -61
18 -98 40 -98 60 0 23 -18 27 -42 11 -12 -9 -39 -16 -59 -16 -29 0 -41 6 -54
27 l-18 26 -27 -33 c-24 -30 -31 -33 -65 -27 -22 4 -50 17 -63 31 l-24 24 20
63 c32 98 32 101 -5 111 -29 8 -33 13 -33 43 0 37 18 85 32 85 4 0 8 9 8 20 0
11 -6 20 -13 20 -7 0 -48 36 -92 80 -44 44 -83 80 -87 80 -4 0 -20 -19 -34
-42z m-30 -635 c14 -29 26 -60 25 -70 -1 -10 -6 -3 -12 16 -7 22 -20 36 -38
43 -31 11 -54 56 -44 88 l7 21 17 -23 c10 -13 30 -46 45 -75z m246 63 c0 -24
-25 -56 -54 -70 -28 -13 -36 -24 -41 -54 -10 -58 -11 -59 -28 -25 -24 45 -21
59 16 84 17 12 42 33 55 46 20 20 52 32 52 19z m-279 -386 c16 -12 29 -27 29
-33 0 -15 -18 -43 -22 -36 -2 2 -28 31 -58 63 l-55 58 38 -16 c21 -8 51 -25
68 -36z m319 45 c0 -2 -25 -32 -55 -66 -30 -34 -55 -67 -56 -73 -1 -6 -5 4 -9
23 -11 45 8 74 61 91 22 8 42 17 45 22 6 9 14 11 14 3z m-366 -312 c36 -72 69
-172 79 -238 9 -53 0 -34 -61 135 -27 74 -53 143 -57 153 -4 9 -4 17 -1 17 3
0 21 -30 40 -67z m332 5 c-13 -35 -43 -118 -67 -185 -24 -67 -45 -121 -46
-119 -6 6 28 138 51 200 25 66 74 166 81 166 2 0 -6 -28 -19 -62z m-606 -61
c0 -52 -20 -83 -61 -92 -46 -10 -47 1 -1 43 47 43 54 79 26 122 -14 22 -12 22
10 -3 19 -21 26 -39 26 -70z m896 61 c-31 -44 -16 -97 34 -123 41 -21 39 -39
-2 -31 -45 9 -68 35 -75 84 -5 34 -1 44 20 66 32 32 44 34 23 4z m179 -118
c-10 -11 -22 -20 -28 -20 -5 0 1 9 14 20 31 25 37 25 14 0z m-1369 -235 c-13
-52 -96 -31 -96 24 0 31 14 41 56 41 14 0 28 8 32 18 9 22 16 -51 8 -83z
m-526 -360 c54 -28 36 -56 -51 -81 -94 -26 -109 -35 -136 -81 -21 -37 -25 -52
-20 -93 7 -55 37 -122 74 -161 23 -25 24 -29 10 -50 -18 -27 -47 -172 -47
-230 0 -21 -2 -39 -5 -39 -11 0 -55 55 -84 105 -94 160 -116 387 -50 521 51
107 207 162 309 109z m2661 -25 c83 -25 104 -41 137 -103 26 -50 27 -58 26
-192 0 -124 -3 -149 -27 -222 -27 -82 -95 -196 -125 -212 -15 -8 -17 0 -20 63
-4 99 -19 177 -40 205 -18 25 -18 25 15 54 59 52 80 117 62 195 -17 76 -49
108 -132 133 -82 25 -97 34 -97 59 0 41 103 51 201 20z m-1151 -40 c22 -11 40
-25 40 -30 0 -5 12 -16 27 -23 l27 -15 -41 -21 c-50 -25 -101 -85 -109 -128
-3 -17 -1 -48 6 -67 13 -40 80 -101 123 -111 15 -4 27 -10 27 -13 0 -17 -37
-42 -61 -42 -25 0 -32 8 -63 73 -66 138 -112 330 -93 381 9 23 69 20 117 -4z
m-425 -65 c-1 -84 -20 -149 -85 -275 -51 -102 -73 -118 -111 -84 -26 23 -24
34 6 34 29 0 99 59 122 103 33 64 -7 155 -86 194 l-40 20 32 16 c18 9 52 28
77 42 25 14 54 24 65 23 18 -3 20 -10 20 -73z m245 -243 c20 -69 105 -210 201
-333 l28 -35 -64 -28 c-64 -28 -132 -84 -172 -140 l-21 -30 -7 142 c-6 122 3
535 11 507 2 -5 12 -43 24 -83z m-705 28 c7 -23 -10 -50 -31 -50 -10 0 -13 13
-12 44 2 39 5 43 19 35 10 -5 21 -18 24 -29z m-92 6 c-10 -13 -20 -22 -22 -20
-4 4 29 44 36 44 2 0 -4 -11 -14 -24z m641 -289 l-7 -305 -67 68 c-37 38 -91
80 -119 95 -35 17 -49 30 -44 38 4 7 37 55 72 106 62 92 161 277 161 302 0 7
2 10 6 7 3 -3 2 -143 -2 -311z m749 306 c-8 -2 -13 -22 -13 -45 0 -35 -2 -39
-22 -36 -17 2 -24 11 -26 31 -5 44 4 57 40 56 18 0 27 -3 21 -6z m42 -23 c10
-11 16 -20 13 -20 -3 0 -13 9 -23 20 -10 11 -16 20 -13 20 3 0 13 -9 23 -20z
m10 -99 c-11 -36 -67 -83 -139 -117 -76 -37 -113 -42 -122 -19 -7 17 9 44 59
96 31 34 35 36 58 23 53 -29 139 -6 139 38 0 6 3 9 6 5 3 -3 3 -15 -1 -26z
m-1210 -121 c-13 -15 -23 -16 -56 -9 -81 19 -150 62 -176 113 l-15 28 23 -16
c38 -26 149 -14 149 17 0 5 21 -19 46 -53 42 -58 44 -63 29 -80z m-1148 -235
c-51 -19 -137 -75 -137 -90 0 -7 -9 -24 -20 -38 -24 -30 -26 -57 -5 -57 11 0
12 -5 5 -26 -13 -35 -13 -57 3 -78 13 -17 15 -16 35 18 25 42 60 48 92 16 37
-37 22 -98 -30 -125 -80 -41 -161 11 -200 129 -28 85 16 236 69 236 10 0 34 7
52 15 20 8 64 14 104 14 l70 0 -38 -14z m1330 -60 c90 -38 128 -87 139 -178
12 -98 -29 -147 -122 -147 -38 0 -46 -4 -56 -25 -14 -30 -24 -32 -33 -4 -4 11
-20 29 -37 39 l-30 18 42 7 c54 9 116 63 131 115 22 72 -11 148 -75 176 -19 8
-24 13 -13 14 10 0 34 -7 54 -15z m606 -5 c-62 -37 -80 -117 -44 -195 21 -48
83 -105 113 -105 20 0 19 -1 -6 -26 -14 -15 -26 -33 -26 -40 0 -21 -14 -16
-25 9 -8 17 -20 23 -62 27 -74 8 -123 59 -123 130 0 64 86 183 150 209 43 17
56 12 23 -9z m-783 -75 c0 -36 5 -50 25 -67 13 -11 22 -25 19 -30 -9 -14 -51
-9 -75 11 -31 25 -33 96 -4 117 30 22 35 17 35 -31z m954 29 c47 -30 41 -109
-10 -133 -49 -22 -90 -6 -45 18 29 16 47 68 34 102 -13 33 -11 35 21 13z
m-1095 -108 c10 -44 21 -62 56 -95 25 -23 53 -41 62 -42 14 0 15 -2 3 -6 -8
-3 -30 -19 -47 -36 -18 -17 -34 -29 -36 -26 -2 2 -11 25 -21 50 -29 79 -71
118 -151 140 -38 10 -101 20 -140 20 l-70 1 55 9 c30 5 84 10 120 13 36 2 76
9 90 14 54 23 66 16 79 -42z m-135 -121 c45 -19 66 -59 66 -127 0 -56 -30
-123 -52 -116 -29 10 -33 38 -10 78 12 21 22 52 22 68 0 36 -31 78 -65 86 -33
9 -95 -8 -131 -36 l-29 -22 30 33 c48 53 101 64 169 36z m1637 -42 c18 -21 24
-29 11 -18 -16 13 -43 20 -86 23 -83 5 -101 -10 -93 -84 3 -28 12 -65 20 -80
17 -34 12 -54 -13 -54 -27 0 -60 75 -60 137 0 65 20 91 80 102 87 17 103 14
141 -26z m-1833 -198 c5 -11 32 -40 58 -64 47 -42 51 -44 109 -42 71 2 91 7
128 33 18 13 27 15 27 7 0 -7 2 -10 5 -7 3 3 31 -21 62 -53 67 -70 129 -94
221 -87 l56 5 -39 -35 c-22 -19 -69 -49 -105 -66 -62 -29 -71 -31 -185 -31
-106 0 -126 3 -168 24 -144 71 -228 237 -201 397 l8 49 6 -55 c4 -31 12 -64
18 -75z m99 103 c-3 -8 -6 -5 -6 6 -1 11 2 17 5 13 3 -3 4 -12 1 -19z m1811
-73 c10 -135 -77 -291 -199 -353 -143 -73 -335 -41 -469 77 l-45 40 35 -9 c81
-23 154 -5 216 52 25 23 52 54 62 70 9 15 22 28 29 28 7 0 13 5 13 11 0 6 23
-8 51 -30 44 -35 59 -41 99 -41 91 0 167 81 177 190 7 77 23 59 31 -35z m-765
30 c47 -19 91 -19 107 1 12 13 16 9 36 -33 13 -26 21 -50 18 -52 -3 -3 -23 -5
-45 -5 -44 2 -123 45 -147 82 -17 26 -15 27 31 7z m-518 -5 c3 -5 17 -10 31
-10 16 0 23 -4 18 -11 -5 -8 3 -10 24 -7 39 6 32 -6 -18 -32 -34 -17 -130 -29
-130 -15 0 2 11 15 25 29 14 14 25 32 25 41 0 17 16 20 25 5z m-1045 -124 c0
-2 -12 -11 -27 -20 l-28 -17 24 20 c23 21 31 25 31 17z m2748 -34 c14 -21 13
-22 -4 -16 -26 9 -44 24 -44 36 0 17 32 4 48 -20z m-2985 -42 c-46 -116 -65
-208 -66 -325 -2 -276 118 -463 351 -549 68 -25 155 -110 152 -148 -4 -39 -1
-46 19 -53 10 -3 38 -24 62 -48 24 -23 55 -47 69 -53 24 -10 22 -12 -30 -22
-30 -7 -68 -11 -85 -9 -28 2 -30 0 -29 -30 2 -29 -2 -34 -35 -43 -20 -6 -58
-13 -86 -17 l-50 -5 -18 68 c-99 383 -354 632 -726 707 l-63 12 98 47 c55 26
105 48 113 50 15 3 26 11 68 45 13 10 40 65 63 128 38 100 49 118 127 207 47
54 86 98 88 98 1 0 -8 -27 -22 -60z m3320 -175 c108 -153 216 -270 300 -325
38 -24 55 -41 46 -44 -8 -3 -41 -12 -74 -21 -351 -95 -569 -309 -680 -667
l-27 -88 -47 1 c-25 0 -62 6 -81 13 -32 12 -35 16 -35 52 l0 39 -47 -3 c-54
-4 -108 5 -108 19 0 5 6 9 13 9 8 0 26 12 40 28 45 46 61 59 85 66 14 5 22 15
22 30 0 12 15 44 33 71 17 27 36 56 41 66 6 9 26 19 47 22 119 16 256 132 328
278 87 176 93 354 22 569 l-29 85 30 -35 c16 -19 71 -93 121 -165z m-3137 123
c12 -23 15 -46 10 -85 l-6 -53 29 0 c43 0 55 -21 47 -85 -6 -57 -4 -60 35 -56
10 1 41 -23 69 -54 29 -30 58 -55 65 -55 8 0 14 24 18 63 9 90 23 124 58 136
34 12 36 24 9 58 -11 14 -20 38 -20 54 0 23 4 27 23 24 12 -3 29 -15 37 -27
89 -131 217 -225 341 -248 75 -14 199 4 224 34 6 6 41 27 79 46 43 21 99 63
148 108 43 41 78 68 77 61 0 -8 -19 -72 -42 -144 -37 -114 -46 -130 -66 -133
-35 -5 -108 26 -131 55 -25 32 -42 26 -71 -29 -23 -40 -28 -43 -73 -48 -33 -3
-52 -11 -57 -22 -5 -10 -13 -26 -18 -35 -4 -10 -19 -19 -33 -21 -16 -2 -30
-14 -41 -35 -9 -18 -25 -46 -37 -64 l-21 -32 32 -28 c18 -15 47 -43 65 -62 30
-32 35 -33 75 -27 99 16 139 18 139 8 0 -20 -81 -129 -138 -186 l-60 -58 -16
25 c-9 13 -19 47 -23 75 -3 29 -12 53 -19 56 -17 6 -59 -8 -69 -23 -11 -18
-39 -12 -88 19 -26 17 -54 30 -62 30 -21 0 -19 6 17 51 28 35 33 50 36 107 3
58 0 72 -20 102 -53 78 -176 108 -251 61 -63 -39 -81 -126 -42 -202 16 -30 77
-79 99 -79 8 0 34 18 57 40 40 38 41 41 37 90 -3 28 -13 59 -23 70 -10 11 -13
20 -7 20 23 0 62 -61 62 -99 0 -130 -187 -196 -338 -120 -97 48 -169 150 -203
289 -18 72 -18 282 0 335 26 78 53 135 62 129 5 -3 16 -19 25 -36z m2880 -83
c35 -106 44 -269 20 -365 -35 -139 -105 -229 -224 -287 -78 -38 -163 -39 -244
-1 -67 31 -82 54 -76 118 5 47 39 110 60 110 7 0 1 -11 -12 -25 -15 -16 -24
-41 -28 -74 -5 -52 3 -64 69 -113 33 -26 42 -23 92 26 67 65 79 128 38 205
-18 34 -68 54 -136 54 -111 0 -166 -51 -173 -158 -3 -48 0 -71 17 -103 11 -22
25 -43 31 -47 13 -8 13 -25 0 -25 -5 0 -26 -11 -46 -25 -42 -28 -100 -33 -130
-10 -10 8 -22 15 -26 15 -11 0 -38 -55 -54 -111 -13 -43 -17 -48 -33 -39 -30
16 -128 130 -156 182 l-26 48 48 0 c27 0 54 -5 60 -11 13 -13 99 26 114 52 5
11 28 28 49 39 43 22 50 40 23 61 -9 8 -25 33 -35 56 -15 35 -24 42 -51 45
-27 3 -32 7 -35 33 -5 41 -20 56 -48 49 -40 -10 -71 4 -95 43 -12 21 -24 40
-26 42 -1 2 -27 -8 -55 -22 -29 -14 -72 -31 -96 -36 -50 -11 -39 -27 -96 142
-54 159 -50 167 37 75 47 -50 82 -79 102 -83 29 -6 124 -60 136 -78 10 -14
101 -37 148 -37 60 0 155 23 225 54 58 26 157 115 191 173 10 17 27 34 37 36
26 7 24 -43 -4 -78 l-22 -28 21 -16 c11 -9 28 -21 38 -26 14 -8 17 -26 19 -90
1 -69 3 -80 20 -83 10 -2 32 9 50 26 17 16 39 32 49 35 9 4 17 13 17 21 0 9
12 16 33 18 32 3 32 3 35 63 3 64 11 75 56 75 23 0 27 3 20 18 -17 39 -15 87
6 121 12 19 25 30 30 25 5 -5 21 -45 36 -89z m-1291 -445 c33 -66 36 -78 26
-105 -31 -86 17 -166 109 -185 56 -11 67 -204 16 -301 l-26 -51 26 -31 c21
-25 25 -38 21 -70 -3 -21 -15 -50 -27 -62 -28 -29 -21 -51 18 -60 33 -7 42
-34 42 -126 0 -66 19 -78 58 -39 17 16 35 30 41 30 6 0 16 9 23 20 7 11 22 20
34 20 33 0 45 22 38 69 -8 47 6 71 42 71 32 0 37 13 24 60 -8 31 -8 47 2 68
21 44 50 40 107 -17 l51 -51 -20 -45 c-11 -24 -20 -49 -20 -54 0 -6 18 -22 40
-37 49 -33 72 -68 80 -119 4 -32 9 -40 25 -38 10 1 30 -7 43 -18 14 -10 31
-19 38 -19 8 0 14 -7 14 -15 0 -8 -17 -18 -42 -25 -160 -40 -228 -110 -228
-232 0 -52 16 -87 58 -131 47 -49 81 -67 127 -67 98 0 151 88 111 184 -23 55
-53 76 -108 76 -61 0 -62 -14 -3 -63 52 -44 61 -83 21 -93 -59 -14 -94 23
-103 108 -5 51 -3 59 20 82 23 23 34 26 94 26 109 0 143 -40 143 -165 0 -117
-33 -159 -166 -215 -138 -57 -111 -70 -334 162 l-195 204 -54 119 c-48 106
-65 165 -158 544 -116 475 -121 504 -123 681 -3 187 -4 185 39 80 21 -52 55
-129 76 -170z m-260 85 c-43 -599 -326 -1275 -706 -1683 -33 -35 -55 -52 -67
-48 -9 2 -35 7 -57 11 -54 9 -103 36 -149 82 -77 76 -97 177 -53 263 18 36 30
47 62 57 70 20 123 16 150 -12 22 -21 25 -33 25 -90 0 -57 -3 -69 -25 -90 -31
-31 -80 -34 -95 -5 -17 31 -3 59 38 78 44 20 54 55 22 72 -17 9 -28 7 -57 -7
-75 -37 -99 -108 -64 -187 50 -114 190 -94 255 36 69 138 -9 279 -176 322 -48
12 -78 36 -46 36 8 0 24 9 35 19 12 11 23 17 27 14 11 -11 36 20 46 58 12 45
41 79 88 103 38 19 39 28 12 96 -26 65 -25 70 6 70 19 0 28 7 36 28 15 39 55
67 73 52 26 -22 36 -80 20 -114 -17 -34 -14 -39 38 -56 37 -11 37 -12 37 -66
0 -47 3 -54 20 -54 11 0 46 -27 78 -60 33 -33 64 -60 70 -60 16 0 22 27 22 95
0 67 16 96 62 111 24 7 23 16 -8 61 -29 44 -27 83 8 120 l21 22 -21 49 c-28
65 -37 163 -22 235 10 48 16 60 38 69 69 26 115 55 123 76 13 33 11 73 -4 102
-12 23 -8 38 57 179 61 134 71 150 79 130 4 -13 6 -64 2 -114z m-1774 -270
c27 -13 49 -21 49 -17 0 4 5 -1 11 -11 6 -9 14 -15 18 -12 12 7 93 -82 135
-147 42 -66 79 -153 105 -246 l19 -70 -55 -21 c-30 -12 -67 -21 -82 -21 -27 0
-28 2 -40 85 -22 161 -77 296 -170 419 -28 36 -48 66 -45 66 4 0 28 -11 55
-25z m3704 -67 c-101 -133 -165 -290 -181 -443 l-7 -65 -35 0 c-19 0 -50 9
-69 21 -18 12 -40 18 -48 15 -9 -3 -15 0 -15 9 0 32 55 185 92 257 41 79 152
213 169 202 5 -3 12 2 15 10 3 9 9 14 13 12 3 -2 31 9 61 24 30 15 56 28 58
29 1 1 -22 -32 -53 -71z m-4316 0 c-41 -102 -44 -116 -26 -136 9 -10 22 -33
28 -51 11 -31 10 -35 -16 -55 l-28 -22 32 -36 c17 -20 31 -41 31 -48 0 -7 -9
-1 -21 14 -16 20 -29 26 -60 26 -27 0 -39 4 -39 14 0 8 -17 28 -38 45 -44 35
-62 81 -62 163 0 86 15 116 58 123 21 4 44 8 52 10 8 1 36 3 62 4 l48 1 -21
-52z m369 -7 c59 -30 176 -152 206 -214 28 -57 56 -147 56 -183 0 -17 -5 -20
-24 -17 -13 3 -34 0 -46 -7 -17 -9 -25 -9 -38 3 -27 23 -65 28 -95 12 -26 -13
-28 -12 -52 19 -21 28 -32 63 -51 163 -2 13 -21 31 -47 45 -39 22 -42 27 -48
75 -8 65 -15 74 -44 67 -37 -9 -60 3 -83 45 -12 21 -22 41 -22 43 0 11 254
-34 288 -51z m4447 -18 c-24 -56 -33 -63 -79 -61 -37 3 -41 1 -44 -22 -10 -96
-25 -120 -72 -120 -25 0 -28 -4 -35 -47 -9 -59 -39 -140 -65 -173 l-19 -25
-21 23 c-25 27 -50 28 -81 3 -20 -15 -35 -18 -73 -14 l-49 6 6 64 c7 69 33
138 72 189 54 71 228 157 390 194 44 10 81 19 83 19 1 1 -5 -16 -13 -36z m255
26 c23 -6 29 -27 29 -120 1 -106 -11 -142 -55 -168 -19 -11 -34 -27 -34 -34 0
-8 -17 -19 -38 -25 -22 -7 -51 -23 -65 -36 -41 -38 -44 -9 -4 32 33 34 34 39
21 56 -21 29 -18 86 6 111 l20 21 -21 60 c-11 32 -25 72 -30 88 l-8 29 82 -6
c45 -2 89 -6 97 -8z m-5334 -36 c-3 -21 2 -91 11 -155 9 -65 14 -120 10 -124
-8 -8 -99 -7 -238 2 l-96 6 36 66 c36 66 155 198 200 222 14 7 21 8 17 1 -4
-6 8 -4 26 4 18 8 35 14 37 15 2 0 1 -17 -3 -37z m5487 -17 c50 -9 105 -65
177 -178 39 -62 67 -115 63 -119 -5 -4 -79 -9 -165 -12 -157 -5 -158 -4 -153
17 23 108 37 217 32 263 -4 42 -3 52 6 44 7 -5 25 -12 40 -15z m-2833 -303 c0
-285 -68 -540 -190 -718 -45 -65 -143 -168 -201 -211 -43 -31 -149 -81 -149
-70 0 2 66 116 147 252 155 264 234 435 333 732 25 72 48 132 52 132 5 0 8
-53 8 -117z m262 -243 c20 -52 45 -115 56 -140 11 -25 28 -84 38 -130 15 -71
24 -91 56 -126 48 -52 240 -358 228 -362 -24 -8 -133 69 -215 152 -96 97 -160
194 -221 336 -71 163 -86 282 -67 539 l6 92 42 -133 c22 -73 57 -176 77 -228z
m-3172 154 c-68 -39 -82 -54 -75 -84 4 -20 -2 -33 -30 -60 -30 -29 -34 -39
-29 -66 3 -19 -1 -57 -11 -89 -20 -71 -10 -89 36 -62 24 13 35 15 51 6 28 -15
144 -6 180 13 15 8 37 27 49 42 11 14 48 39 82 55 63 30 78 32 59 9 -25 -32
-53 -155 -53 -238 0 -106 13 -168 52 -240 59 -111 230 -261 277 -243 11 5 13
3 7 -7 -5 -8 -4 -11 3 -6 6 4 47 -3 92 -14 44 -11 133 -25 198 -31 64 -5 142
-12 173 -15 123 -13 251 49 377 181 100 105 172 218 212 335 15 45 31 76 35
71 3 -6 21 -11 40 -11 19 0 37 -5 41 -11 3 -6 19 -9 35 -7 16 3 29 4 29 2 0
-1 -16 -28 -35 -60 -113 -187 -74 -344 124 -495 38 -29 68 -57 65 -61 -11 -18
-87 -49 -156 -64 -40 -8 -135 -18 -210 -21 -123 -5 -138 -4 -138 10 0 21 -31
37 -73 37 -33 0 -58 -18 -69 -50 -4 -11 -48 -24 -146 -43 -78 -15 -201 -48
-273 -73 l-133 -45 -30 30 c-17 17 -46 61 -66 98 -28 53 -42 69 -68 77 -37 13
-52 30 -52 63 0 33 -31 46 -60 26 -22 -15 -24 -15 -57 25 -19 23 -41 42 -49
42 -19 0 -34 -41 -34 -95 0 -24 -4 -47 -10 -50 -5 -3 -1 -24 12 -50 17 -35 19
-49 11 -67 -9 -20 -6 -28 19 -54 16 -18 28 -39 26 -48 -3 -13 -11 -12 -61 9
-192 78 -353 240 -435 436 -72 174 -107 384 -99 599 6 171 23 239 67 270 17
12 28 25 25 30 -6 10 23 17 80 19 l40 1 -45 -26z m6028 -53 c110 -88 122 -489
22 -764 -71 -194 -204 -374 -350 -474 -48 -33 -151 -86 -187 -97 -35 -11 -30
25 8 58 21 19 28 33 23 44 -19 45 -16 61 11 74 20 9 25 16 19 32 -3 12 -11 54
-17 94 -7 42 -16 72 -23 72 -6 0 -31 -17 -55 -38 -39 -35 -46 -38 -71 -28 -33
12 -42 4 -58 -56 -10 -34 -14 -38 -44 -38 -38 0 -46 -8 -65 -65 -20 -59 -49
-104 -80 -119 -25 -13 -33 -12 -96 15 -91 39 -203 73 -345 104 -105 24 -117
29 -143 61 -36 43 -78 46 -117 9 l-26 -25 -169 10 c-178 10 -253 25 -299 61
l-27 21 36 20 c65 34 161 135 189 198 52 115 42 259 -24 356 l-31 44 38 2 c21
1 53 1 71 0 27 -1 35 3 39 19 4 15 13 -3 30 -60 42 -149 108 -254 231 -373
136 -132 291 -189 509 -187 78 1 100 4 78 10 -24 7 -20 7 18 4 59 -6 145 13
125 27 -9 7 -7 8 10 5 12 -3 22 -1 22 5 0 6 7 7 16 4 10 -4 13 -2 8 6 -5 7 -2
9 9 5 9 -3 17 -2 19 2 2 4 30 22 62 41 83 47 187 148 224 218 36 67 62 165 62
234 0 59 -25 191 -44 229 -19 38 -2 39 50 4 20 -14 43 -25 50 -25 7 0 20 -13
29 -28 27 -46 85 -64 186 -60 74 2 90 0 107 -15 41 -37 53 -2 26 77 -13 39
-14 52 -4 77 12 29 11 32 -24 68 -23 23 -36 46 -36 63 0 36 -26 64 -85 93
l-50 24 55 -6 c37 -4 66 -15 88 -32z m-5478 15 c0 -2 -11 -6 -25 -8 -14 -3
-25 -1 -25 3 0 5 11 9 25 9 14 0 25 -2 25 -4z m-75 -29 c-11 -7 -48 -39 -83
-72 -34 -32 -61 -53 -58 -45 3 8 10 41 16 73 l11 57 67 -1 c56 0 64 -2 47 -12z
m4960 -7 c7 -12 -2 -12 -30 0 -19 8 -19 9 2 9 12 1 25 -3 28 -9z m160 -98 l7
-52 -56 57 -55 58 42 5 c23 3 45 1 48 -5 4 -5 10 -34 14 -63z m-4747 50 c-8
-9 -14 -9 -24 -1 -18 15 -18 14 10 14 18 0 22 -3 14 -13z m875 -2 c-3 -11 0
-34 6 -52 10 -27 9 -35 -7 -51 -19 -18 -19 -17 -25 43 -7 66 -4 80 18 80 8 0
11 -7 8 -20z m2512 -4 c18 -5 20 -13 17 -77 -4 -70 -4 -70 -24 -53 -16 16 -18
26 -13 63 6 39 4 47 -17 63 -24 20 -22 21 37 4z m-2797 -16 c7 0 11 -4 8 -9
-3 -4 6 -13 19 -19 22 -10 25 -18 25 -66 0 -98 -27 -205 -76 -305 -39 -79 -62
-110 -133 -181 -92 -92 -153 -130 -246 -155 -118 -30 -292 -12 -382 41 -76 44
-193 145 -212 183 -49 95 -52 258 -7 356 23 51 90 115 120 115 6 0 5 -4 -3 -9
-10 -6 -2 -8 23 -6 37 4 37 3 22 -18 -60 -84 -71 -111 -71 -182 1 -85 22 -131
92 -196 76 -72 126 -81 272 -49 175 38 296 171 380 421 31 93 42 102 116 88
22 -5 46 -8 53 -9z m3686 -4 c22 9 20 -3 -3 -15 -14 -8 -23 -6 -37 11 -19 21
-19 21 3 9 12 -6 29 -8 37 -5z m-488 -14 c7 -4 26 -49 43 -101 59 -175 151
-313 249 -373 20 -12 39 -25 42 -30 3 -4 25 -14 49 -23 78 -27 185 -15 236 28
11 9 39 30 62 47 65 46 96 100 101 174 4 54 0 68 -31 129 l-36 67 27 0 c55 -1
95 -32 127 -95 28 -55 30 -68 30 -165 0 -96 -3 -110 -29 -165 -77 -156 -255
-255 -457 -255 -146 0 -258 44 -360 138 -139 128 -220 303 -236 511 -5 71 -4
81 11 87 14 5 15 9 4 16 -9 7 -7 8 7 4 11 -3 45 -1 75 3 76 12 74 12 86 3z
m-3509 -51 c-14 -114 -85 -228 -171 -274 -62 -33 -164 -30 -233 6 -60 31 -88
66 -79 100 5 20 12 24 54 26 34 1 53 -3 62 -14 7 -8 21 -15 31 -15 10 0 39
-18 65 -40 25 -23 51 -39 58 -37 15 5 14 108 -3 183 -8 33 -11 69 -8 78 6 16
8 16 23 2 19 -20 73 -21 99 -2 22 15 73 33 94 33 10 0 12 -11 8 -46z m-530 33
c-3 -3 -12 -4 -19 -1 -8 3 -5 6 6 6 11 1 17 -2 13 -5z m4296 -45 c51 -26 65
-51 88 -145 25 -106 40 -134 62 -119 8 6 36 25 61 43 26 17 56 32 67 32 10 0
19 6 19 13 0 16 41 20 75 7 19 -7 25 -17 25 -38 0 -84 -183 -137 -288 -83 -83
42 -170 165 -188 264 -6 36 -6 37 26 37 17 0 41 -5 53 -11z m-2013 -997 c-27
-206 -104 -297 -250 -296 -78 1 -149 31 -182 77 -28 40 -37 133 -14 162 15 19
15 18 16 -18 0 -50 20 -87 65 -121 29 -22 42 -26 68 -21 79 18 132 69 143 141
21 140 -104 251 -250 223 -63 -12 -109 -47 -145 -111 -79 -137 -58 -305 53
-422 29 -31 59 -56 67 -56 8 -1 -5 -10 -29 -22 -53 -26 -80 -63 -94 -130 -15
-72 2 -130 51 -180 l38 -37 -21 -20 c-100 -94 -312 -86 -473 18 -108 70 -156
159 -157 291 0 113 23 167 90 210 60 38 75 38 35 1 -40 -37 -51 -69 -51 -142
0 -77 16 -114 74 -169 92 -88 175 -91 262 -9 107 102 158 253 119 354 -34 90
-87 130 -223 170 l-72 21 62 61 c69 66 122 97 191 113 67 15 157 50 176 69 9
9 49 40 89 69 125 93 231 226 325 409 l42 83 3 -318 c2 -188 -2 -351 -8 -400z
m331 430 c29 -42 98 -122 155 -178 116 -112 187 -155 294 -178 89 -18 135 -44
204 -115 64 -65 64 -65 -14 -75 -101 -14 -193 -97 -221 -201 -13 -46 -7 -141
12 -204 15 -51 90 -138 136 -157 38 -16 130 -18 168 -4 37 14 103 83 122 127
30 73 16 166 -36 227 -13 16 -13 18 -1 11 48 -27 73 -52 97 -98 48 -94 32
-234 -37 -330 -95 -133 -356 -203 -500 -135 -30 14 -64 33 -75 41 -20 15 -20
16 11 49 61 64 87 153 65 221 -13 40 -81 107 -108 107 -14 0 -12 4 7 17 48 33
112 106 133 152 15 34 21 68 21 131 1 73 -3 93 -27 145 -37 79 -97 139 -153
155 -150 42 -296 -74 -270 -213 12 -63 116 -157 174 -157 10 0 37 20 61 44 35
36 44 53 48 90 7 59 23 49 23 -14 0 -92 -41 -151 -124 -175 -89 -27 -138 -20
-214 27 -37 23 -74 48 -83 55 -42 35 -54 292 -35 716 l9 198 53 -101 c30 -56
77 -136 105 -178z m1976 -268 c-3 -3 -12 -4 -19 -1 -8 3 -5 6 6 6 11 1 17 -2
13 -5z m-1837 -148 c0 -2 -8 -10 -17 -17 -16 -13 -17 -12 -4 4 13 16 21 21 21
13z m-1590 -66 c-41 -32 -199 -107 -282 -135 -96 -31 -191 -52 -288 -60 l-75
-7 79 76 c47 46 85 75 93 71 8 -2 12 -9 8 -15 -7 -11 65 -7 84 4 16 10 41 62
34 70 -10 10 57 7 77 -4 13 -7 26 -5 47 5 20 11 60 15 138 15 l110 0 -25 -20z
m2622 -14 c23 -11 42 -14 63 -8 43 12 59 5 72 -28 14 -38 84 -73 130 -64 27 5
31 9 22 20 -7 8 -7 14 -1 14 11 0 81 -74 107 -113 16 -25 45 -37 45 -19 0 5
-11 37 -25 72 -14 35 -24 65 -22 66 6 7 162 -38 215 -62 71 -31 127 -73 114
-86 -5 -5 -62 -11 -128 -15 -211 -10 -443 32 -618 111 -75 34 -216 121 -216
133 0 13 211 -6 242 -21z m-3265 -109 l-32 -77 -91 0 c-50 0 -112 3 -138 6
-43 6 -45 8 -31 24 23 25 136 75 235 103 47 14 86 24 87 23 2 -1 -12 -37 -30
-79z m1042 -180 c0 -21 -1 -21 -9 -2 -12 28 -12 37 0 30 6 -3 10 -16 9 -28z
m-141 -16 c14 -9 2 -22 -30 -34 -12 -4 -18 -17 -18 -37 0 -18 -4 -29 -10 -25
-15 9 -12 58 6 83 16 23 31 27 52 13z m1931 -27 c12 -15 21 -38 20 -53 0 -25
-1 -25 -9 -4 -5 12 -22 32 -39 44 -17 12 -28 26 -25 31 10 16 33 8 53 -18z
m-1215 -61 c-66 -150 -200 -300 -228 -254 -6 8 12 28 53 59 20 15 24 28 25 75
0 41 -4 61 -18 76 -19 21 -19 21 21 21 47 0 105 18 98 30 -5 9 23 22 38 17 5
-1 13 6 18 16 21 37 17 14 -7 -40z m585 -23 l60 0 -24 -46 c-31 -58 -26 -85
26 -140 22 -22 36 -43 33 -47 -17 -17 -45 -3 -84 41 -40 45 -140 198 -140 214
0 4 16 0 35 -8 19 -7 61 -14 94 -14z m-139 -290 c62 -113 117 -211 123 -218 5
-7 -10 -3 -34 8 -68 30 -118 26 -178 -14 l-51 -35 0 187 c0 195 8 299 20 285
5 -4 59 -100 120 -213z m-304 143 c7 -61 -1 -368 -11 -383 -3 -5 -27 4 -54 20
-58 36 -114 39 -170 10 -73 -37 -112 -114 -93 -183 6 -21 7 -35 3 -32 -5 2
-14 25 -21 50 -28 99 14 212 108 294 63 55 130 140 173 222 18 32 38 59 45 59
8 0 15 -21 20 -57z m509 -528 c-3 -16 -17 -41 -32 -55 -15 -14 -21 -17 -13 -7
8 11 14 44 14 78 1 58 1 58 19 36 12 -15 16 -32 12 -52z"/>
</g>
</svg>
