<?xml version="1.0" standalone="no"?>
<!DOCTYPE svg PUBLIC "-//W3C//DTD SVG 20010904//EN"
 "http://www.w3.org/TR/2001/REC-SVG-20010904/DTD/svg10.dtd">
<svg version="1.0" xmlns="http://www.w3.org/2000/svg"
 width="1280.000000pt" height="1280.000000pt" viewBox="0 0 1280.000000 1280.000000"
 preserveAspectRatio="xMidYMid meet">
<metadata>
Created by potrace 1.15, written by Peter Selinger 2001-2017
</metadata>
<g transform="translate(0.000000,1280.000000) scale(0.100000,-0.100000)"
fill="#5c6f46" stroke="none">
<path d="M4932 10925 c-190 -54 -314 -185 -358 -382 -35 -157 0 -302 98 -409
l43 -47 -33 6 c-19 4 -55 21 -80 39 -463 318 -712 424 -1047 444 -188 11 -351
-21 -474 -93 -288 -170 -403 -562 -255 -873 19 -41 47 -90 61 -108 l25 -34 43
81 c139 258 283 384 542 472 123 41 213 53 371 46 108 -4 156 -11 226 -32 115
-34 254 -105 314 -162 45 -42 46 -44 18 -38 -16 3 -62 6 -103 6 -62 0 -85 -5
-136 -29 -111 -52 -173 -134 -208 -273 -18 -69 -21 -102 -16 -189 6 -116 21
-176 74 -292 33 -73 53 -97 53 -65 0 8 19 43 41 78 129 199 453 395 737 444
210 37 368 3 478 -101 l49 -47 -50 -12 c-73 -17 -132 -51 -195 -111 -63 -60
-95 -116 -111 -196 -14 -69 6 -145 51 -200 l31 -38 59 30 c153 77 296 103 415
76 81 -19 252 -100 311 -148 l41 -33 -96 3 c-175 6 -320 -45 -427 -152 -45
-45 -67 -77 -83 -121 -47 -123 -13 -269 90 -388 l41 -47 37 57 c90 139 198
199 402 224 216 26 521 -53 786 -204 107 -61 253 -168 302 -220 l24 -26 -39
11 c-60 18 -248 14 -324 -5 -164 -43 -284 -135 -350 -271 -47 -94 -65 -177
-56 -258 7 -74 26 -148 37 -148 5 0 32 18 61 40 72 55 198 116 283 136 107 25
358 15 485 -19 388 -102 799 -355 1550 -953 124 -99 262 -208 308 -243 45 -35
82 -65 82 -67 0 -3 -17 3 -37 12 -134 57 -371 120 -606 159 -300 49 -626 71
-1242 80 -543 9 -653 23 -830 110 -214 106 -335 264 -335 440 0 79 20 145 69
225 45 75 44 79 -38 124 -177 96 -358 -19 -416 -266 -28 -121 -14 -303 31
-390 14 -26 13 -28 -12 -34 -38 -10 -117 2 -169 25 -56 25 -143 106 -201 188
-149 208 -187 500 -90 692 39 75 112 131 214 161 23 7 42 17 42 21 0 15 -103
91 -154 115 -100 46 -219 38 -321 -22 -101 -59 -213 -212 -271 -372 l-27 -73
-24 42 c-68 120 -136 315 -159 458 -52 316 66 646 298 831 l57 45 -47 8 c-61
10 -209 1 -291 -18 -107 -26 -215 -89 -307 -180 -67 -66 -89 -96 -128 -175
-75 -155 -103 -305 -93 -505 15 -294 141 -573 318 -704 l36 -27 -61 4 c-166
10 -346 -83 -419 -216 -31 -57 -57 -150 -57 -205 l0 -40 38 7 c156 26 285 37
362 31 171 -13 285 -50 378 -124 76 -60 163 -184 202 -286 l9 -23 -63 28
c-174 79 -356 80 -514 4 -150 -73 -262 -253 -262 -419 0 -79 42 -226 76 -263
1 -2 36 25 76 60 87 76 201 148 288 184 195 79 393 85 826 23 261 -38 310 -42
501 -43 117 0 213 -4 213 -7 0 -3 -14 -3 -31 -1 -21 3 -30 1 -25 -6 4 -6 14
-8 24 -5 9 3 -39 -27 -108 -67 -69 -40 -242 -151 -385 -248 -408 -276 -605
-386 -815 -455 -130 -43 -323 -87 -381 -87 -70 0 -166 27 -246 69 l-74 39 -11
-26 c-7 -15 -12 -70 -12 -122 -1 -84 2 -101 27 -151 77 -159 267 -250 518
-250 60 0 111 -4 114 -10 4 -5 11 -6 17 -3 6 4 5 10 -3 15 -10 6 -7 9 10 9 20
0 12 -12 -61 -88 -107 -111 -195 -243 -363 -542 -124 -221 -223 -344 -303
-378 -165 -71 -359 -5 -437 149 -31 59 -46 155 -38 232 l6 60 -81 -43 c-97
-50 -185 -137 -228 -227 -26 -53 -29 -68 -29 -163 0 -95 3 -111 28 -162 43
-88 107 -152 190 -192 40 -19 81 -37 92 -41 17 -6 15 -9 -20 -28 -58 -32 -194
-31 -290 2 -155 53 -275 126 -388 238 -145 144 -198 254 -205 425 -5 139 11
218 95 456 207 591 223 651 223 846 0 202 -40 378 -125 551 -92 190 -220 303
-436 385 -77 29 -81 27 -59 -23 47 -106 100 -386 100 -529 0 -131 -66 -486
-140 -757 -92 -334 -115 -487 -115 -771 0 -226 11 -301 67 -460 66 -187 157
-331 297 -471 189 -189 399 -294 667 -334 128 -19 207 -14 312 21 175 58 319
154 562 374 60 54 104 87 119 88 13 0 28 7 33 14 7 9 8 7 4 -7 -21 -78 -38
-184 -43 -266 -7 -124 13 -220 73 -339 121 -242 344 -360 593 -316 152 27 273
106 348 228 35 57 84 160 79 165 -1 2 -40 -7 -86 -18 -128 -32 -242 -25 -340
23 -41 19 -94 52 -117 72 -59 52 -119 148 -150 241 -25 73 -27 93 -27 235 0
143 2 162 28 240 86 263 293 503 544 629 35 18 61 28 58 23 -3 -5 5 -8 18 -7
l24 3 -30 -81 c-50 -138 -62 -208 -61 -372 0 -121 4 -165 22 -230 47 -178 140
-305 265 -365 124 -59 227 -50 395 32 l104 51 -66 22 c-37 12 -84 35 -104 51
-49 40 -98 121 -126 209 -27 89 -29 275 -3 410 72 379 259 792 469 1037 46 53
67 64 67 35 0 -9 -3 -8 -8 1 -7 10 -12 8 -26 -7 -14 -16 -15 -19 -2 -24 8 -3
17 -1 20 6 4 7 4 1 2 -13 -52 -287 -10 -456 132 -533 44 -24 205 -58 217 -45
2 2 -6 30 -17 63 -27 77 -35 238 -18 343 36 227 156 462 314 617 191 187 525
357 875 445 220 55 513 110 421 80 -22 -8 -21 -9 10 -7 22 1 34 7 33 15 -2 6
5 12 14 12 21 0 32 11 -172 -170 -327 -290 -419 -394 -518 -587 -66 -129 -98
-230 -132 -419 -33 -186 -66 -301 -115 -399 -81 -162 -201 -268 -374 -331 -33
-12 -62 -26 -64 -32 -6 -18 97 -91 150 -107 121 -36 277 3 397 98 33 27 49 33
62 27 9 -5 19 -7 22 -4 11 11 20 -195 13 -309 -13 -224 -55 -397 -140 -572
-141 -288 -376 -487 -691 -586 -55 -17 -107 -33 -115 -36 -22 -8 140 -57 255
-78 183 -33 401 -8 562 65 155 71 310 205 420 366 159 233 189 354 203 824 9
293 20 466 28 422 4 -23 22 -31 22 -9 0 6 15 -15 33 -48 69 -128 121 -187 218
-248 92 -58 169 -80 269 -75 119 6 197 43 295 141 98 99 149 209 169 371 5 43
4 47 -12 41 -104 -44 -251 -56 -342 -29 -228 68 -351 343 -311 693 29 247 116
437 270 592 160 161 376 252 626 266 181 9 318 -22 498 -115 213 -108 400
-287 573 -545 268 -400 469 -976 549 -1572 20 -148 21 -152 46 -158 29 -8 87
11 99 33 20 38 -16 405 -71 725 -204 1187 -226 1385 -173 1574 28 99 166 212
278 227 25 4 46 10 46 14 0 20 -88 95 -138 118 -131 59 -287 9 -354 -114 -66
-122 -75 -372 -24 -644 14 -74 28 -151 31 -170 l6 -35 -26 40 c-118 182 -226
546 -256 860 -45 480 143 854 443 881 104 10 243 -33 334 -102 17 -13 33 -24
36 -24 13 0 18 94 8 152 -13 72 -28 104 -72 153 -48 56 -101 78 -195 84 l-82
6 79 62 c152 119 302 327 358 494 41 125 53 206 53 365 -1 370 -115 702 -306
890 -53 52 -144 124 -158 124 -2 0 2 -30 9 -67 37 -199 40 -378 9 -555 -44
-248 -125 -448 -311 -764 -46 -79 -97 -170 -114 -203 -17 -34 -32 -61 -34 -61
-2 0 1 24 6 53 6 28 8 99 6 157 -4 88 -9 115 -32 165 -48 105 -115 154 -241
176 -62 11 -159 9 -171 -4 -3 -3 0 -42 7 -87 15 -104 7 -345 -16 -460 -9 -47
-43 -191 -75 -320 -72 -289 -81 -340 -81 -450 0 -128 24 -220 136 -515 l26
-70 -86 85 c-352 346 -671 793 -815 1140 -44 107 -88 269 -96 354 -16 183 47
463 156 688 l38 77 -37 13 c-21 8 -81 13 -141 13 -100 0 -109 -2 -175 -34 -48
-23 -93 -57 -141 -105 -113 -113 -172 -257 -192 -471 l-8 -80 -26 51 c-47 89
-163 254 -274 389 -391 474 -544 772 -519 1019 8 86 49 228 80 281 35 61 102
132 159 171 51 35 216 94 260 94 59 0 58 11 -6 61 -89 69 -206 128 -291 145
-223 47 -462 -79 -571 -300 -50 -101 -70 -191 -69 -316 0 -114 20 -191 71
-279 l26 -45 -39 24 c-55 33 -156 111 -242 188 -151 134 -295 332 -349 479
-25 67 -29 92 -29 183 0 97 2 109 29 157 16 29 56 79 89 110 71 67 72 65 -71
114 -84 29 -110 33 -192 33 -121 -1 -188 -25 -265 -96 -102 -93 -154 -241
-155 -436 l0 -103 -73 88 c-41 48 -149 169 -242 268 -346 372 -435 516 -404
656 21 95 91 158 237 214 39 16 72 31 72 35 0 10 -107 71 -171 97 -77 31 -184
39 -257 18z m678 -1511 c0 -2 -9 0 -20 6 -11 6 -20 13 -20 16 0 2 9 0 20 -6
11 -6 20 -13 20 -16z m57 -29 c0 -8 -4 -12 -9 -9 -5 3 -6 10 -3 15 9 13 12 11
12 -6z m136 -68 c-3 -6 -1 -7 5 -3 12 7 113 -47 282 -152 645 -401 1584 -1266
2715 -2502 392 -427 1050 -1108 1062 -1097 2 3 -5 26 -15 53 -104 265 -100
670 10 1013 56 176 78 217 241 445 189 265 316 471 426 694 84 168 118 252
147 361 14 55 24 78 27 65 3 -10 4 6 2 36 -3 39 -2 48 4 30 22 -62 7 -203 -35
-335 -77 -242 -176 -427 -440 -822 -211 -315 -288 -483 -329 -721 -46 -267
-23 -504 81 -856 44 -145 111 -323 233 -616 33 -80 54 -137 48 -126 -165 258
-251 376 -379 523 -229 263 -464 402 -767 454 -102 18 -349 15 -466 -6 -255
-44 -407 -119 -574 -280 -110 -107 -197 -227 -266 -370 -127 -262 -168 -442
-260 -1140 -60 -455 -114 -726 -175 -880 -30 -74 -105 -215 -116 -215 -2 0 0
10 7 21 21 41 68 190 88 282 23 104 63 389 86 612 80 759 110 947 182 1165 74
226 184 416 325 565 200 212 403 317 778 401 l25 6 -25 10 c-14 5 -77 18 -140
30 -374 67 -936 -16 -1485 -219 -731 -271 -1571 -770 -2190 -1302 l-100 -86
61 75 c34 41 115 127 180 190 346 334 858 683 1421 967 444 225 679 316 1118
432 64 17 -191 5 -300 -14 -501 -87 -1153 -370 -1698 -736 -124 -83 -258 -181
-312 -228 -75 -65 82 92 183 182 575 515 1215 803 1982 893 199 24 620 24 820
0 179 -21 410 -59 552 -91 120 -27 504 -137 586 -167 29 -11 55 -18 57 -16 3
2 -93 105 -212 229 -212 220 -455 477 -863 914 -271 291 -828 853 -1065 1075
-529 494 -984 863 -1454 1178 -190 127 -243 178 -126 120 35 -18 61 -36 58
-41z m-913 -2515 c325 -280 796 -474 1351 -557 126 -19 406 -44 509 -46 l75
-1 -105 -14 c-58 -7 -193 -14 -300 -14 -275 -1 -433 19 -674 85 -300 82 -593
241 -795 431 -82 77 -181 196 -160 192 8 -2 52 -36 99 -76z m-91 -374 c-6 -8
23 -48 32 -43 5 4 6 11 3 17 -4 6 17 -7 47 -29 213 -155 518 -262 884 -309 90
-12 210 -17 392 -18 144 0 261 -1 260 -2 -1 -1 -65 -12 -142 -24 -192 -31
-512 -38 -681 -16 -265 35 -470 112 -644 243 -67 50 -173 170 -164 185 3 5 8
7 11 4 2 -2 4 -6 2 -8z m-789 -3301 c0 -2 -10 -12 -22 -23 l-23 -19 19 23 c18
21 26 27 26 19z"/>
<path d="M5710 9355 c14 -8 30 -14 35 -14 6 0 -1 6 -15 14 -14 8 -29 14 -35
14 -5 0 1 -6 15 -14z"/>
<path d="M5369 5123 c-13 -16 -12 -17 4 -4 16 13 21 21 13 21 -2 0 -10 -8 -17
-17z"/>
<path d="M4815 6850 c10 -11 20 -20 23 -20 3 0 -3 9 -13 20 -10 11 -20 20 -23
20 -3 0 3 -9 13 -20z"/>
<path d="M2680 10275 c-167 -87 -293 -388 -293 -705 -1 -240 47 -341 289 -603
241 -262 251 -278 325 -502 37 -112 44 -142 44 -215 0 -47 -4 -102 -8 -122
-10 -48 -4 -48 89 -2 105 52 195 137 240 229 50 101 73 238 56 339 -25 144
-97 246 -383 536 -286 291 -337 360 -375 510 -33 131 -3 383 61 509 29 58 23
62 -45 26z"/>
</g>
</svg>
