<?xml version="1.0" standalone="no"?>
<!DOCTYPE svg PUBLIC "-//W3C//DTD SVG 20010904//EN"
 "http://www.w3.org/TR/2001/REC-SVG-20010904/DTD/svg10.dtd">
<svg version="1.0" xmlns="http://www.w3.org/2000/svg"
 width="966.000000pt" height="1280.000000pt" viewBox="0 0 966.000000 1280.000000"
 preserveAspectRatio="xMidYMid meet">
<metadata>
Created by potrace 1.15, written by Peter Selinger 2001-2017
</metadata>
<g transform="translate(0.000000,1280.000000) scale(0.100000,-0.100000)"
fill="#5c6f46" stroke="none">
<path d="M1195 12782 c-138 -41 -228 -96 -337 -204 -131 -132 -221 -296 -271
-495 -20 -77 -33 -106 -79 -170 -142 -200 -198 -369 -198 -595 0 -203 41 -351
166 -602 l84 -168 0 -137 c0 -203 32 -370 103 -536 18 -44 86 -174 151 -290
178 -319 313 -596 336 -690 17 -70 45 -324 36 -332 -2 -2 -50 44 -107 103
-164 167 -310 268 -482 334 -159 62 -372 96 -519 84 l-78 -7 0 -31 0 -32 118
4 c156 5 198 -10 75 -26 -48 -7 -110 -18 -138 -25 -48 -12 -50 -13 -53 -51 -3
-36 -2 -38 20 -31 147 47 207 58 333 59 107 0 144 -4 210 -22 211 -61 400
-201 565 -421 48 -63 50 -93 20 -221 -27 -113 -51 -176 -112 -292 -98 -187
-220 -312 -375 -385 -149 -69 -379 -111 -543 -98 -47 3 -93 9 -103 11 -14 5
-17 -1 -17 -35 l0 -41 103 -49 c190 -93 347 -131 537 -131 312 0 600 124 813
349 77 82 66 92 96 -94 28 -167 50 -367 57 -516 l7 -126 -134 67 c-214 105
-366 149 -594 171 -166 15 -394 -3 -585 -47 -70 -16 -267 -79 -288 -93 -9 -5
-12 -28 -10 -75 l3 -66 52 35 c79 53 85 42 9 -16 -55 -43 -66 -56 -66 -81 l0
-30 57 53 c78 71 180 135 287 182 111 48 134 43 36 -7 -41 -20 -95 -53 -121
-72 -76 -56 -183 -177 -222 -252 l-37 -70 0 -189 0 -190 32 -64 c82 -164 240
-251 458 -252 206 0 366 82 459 237 29 48 35 69 39 134 l4 77 -63 -62 c-127
-122 -236 -168 -404 -167 -78 1 -112 5 -156 22 -70 28 -139 94 -176 170 -24
49 -28 69 -28 142 0 78 3 92 38 165 30 63 55 96 121 161 77 76 97 89 238 158
149 74 274 116 343 116 45 0 213 -35 315 -66 167 -51 363 -153 391 -205 13
-25 7 -281 -12 -464 -19 -196 -74 -462 -106 -513 -13 -22 -16 -22 -151 -16
-118 5 -169 2 -372 -25 -715 -94 -734 -96 -803 -84 -35 6 -88 22 -116 36 l-51
26 0 -39 c0 -38 1 -39 56 -59 180 -68 370 -65 704 9 96 21 210 43 253 49 86
12 327 15 401 5 57 -8 59 5 -26 -213 -110 -283 -245 -544 -381 -735 -128 -182
-232 -287 -710 -720 -163 -148 -295 -271 -292 -274 8 -9 614 500 759 638 290
275 513 633 707 1134 29 76 60 141 69 144 33 13 435 -143 446 -173 7 -18 -80
-202 -141 -297 -123 -190 -273 -350 -505 -538 -80 -64 -372 -291 -650 -504
-278 -214 -512 -395 -520 -404 -19 -20 -63 -51 405 288 567 412 848 622 953
713 196 170 368 393 483 630 18 37 36 67 39 67 13 0 143 -126 189 -183 112
-141 170 -290 178 -457 6 -125 -11 -211 -59 -304 -42 -80 -156 -194 -229 -230
-64 -31 -150 -56 -193 -56 l-30 0 43 36 c58 50 81 99 81 174 0 172 -175 279
-328 201 -48 -25 -76 -55 -101 -111 -56 -122 13 -266 145 -306 128 -38 281
-23 409 41 91 45 154 100 208 183 82 126 114 245 104 395 -15 231 -120 439
-308 609 -90 82 -88 74 -60 223 54 286 27 516 -89 750 -57 115 -117 198 -233
322 l-83 88 -12 198 c-15 228 -32 377 -68 598 l-26 157 61 108 c131 235 214
460 253 689 16 98 19 147 15 270 -7 206 -45 339 -144 506 -69 117 -127 188
-306 382 -91 97 -173 194 -183 215 -9 20 -111 258 -226 527 l-208 490 23 18
c45 35 146 77 215 89 140 24 295 -26 417 -134 47 -42 55 -46 37 -21 -30 42
-106 106 -163 137 -141 77 -331 74 -486 -8 l-62 -33 -40 91 c-108 250 -197
656 -178 818 9 70 29 99 109 161 137 104 253 147 393 147 139 0 252 -41 365
-132 71 -58 66 -32 -7 31 -92 81 -232 131 -368 131 -139 0 -260 -40 -404 -134
l-70 -45 38 110 c86 244 230 423 421 523 212 112 437 79 620 -91 80 -74 80
-54 1 24 -59 57 -143 110 -220 137 -79 27 -218 31 -296 8z m-630 -1069 c17
-168 44 -286 129 -554 31 -97 56 -186 56 -198 0 -12 -23 -52 -52 -89 -28 -37
-67 -100 -86 -141 -41 -85 -38 -87 -103 42 -47 93 -101 250 -123 359 -47 230
17 584 131 718 15 18 28 29 30 24 1 -5 9 -78 18 -161z m406 -1258 c104 -231
189 -424 189 -428 0 -15 -113 95 -292 283 -240 252 -241 254 -234 310 10 76
113 266 139 257 4 -1 94 -191 198 -422z m-86 -270 c88 -88 210 -207 272 -265
l111 -105 40 -127 c69 -217 112 -436 148 -763 22 -200 14 -406 -20 -564 -14
-62 -27 -116 -30 -118 -4 -5 -110 147 -136 197 -9 16 -16 83 -21 195 -13 315
-70 488 -263 795 -93 149 -249 445 -294 560 -42 107 -73 251 -78 370 l-5 115
57 -65 c32 -36 130 -137 219 -225z m614 -602 c176 -205 229 -288 288 -445 90
-239 82 -540 -23 -857 -34 -103 -172 -402 -190 -414 -5 -3 -36 56 -68 131 -64
152 -65 154 -27 291 54 193 77 450 61 663 -16 217 -50 391 -129 651 -16 53
-25 97 -21 97 4 0 53 -53 109 -117z m-202 -1331 c69 -106 69 -152 3 -291 -137
-286 -346 -470 -615 -541 -103 -27 -274 -36 -389 -21 -87 12 -270 64 -280 79
-3 5 28 4 67 -1 117 -15 317 -2 430 27 189 48 382 174 494 321 91 120 178 311
214 469 11 49 15 56 23 41 6 -9 30 -47 53 -83z m163 -355 c34 -104 40 -133 32
-152 -21 -46 -196 -216 -278 -271 -250 -167 -570 -219 -868 -143 -94 24 -133
43 -66 31 90 -14 340 -7 414 12 287 76 507 269 671 588 22 42 43 74 46 70 4
-4 26 -65 49 -135z m338 -1300 c185 -214 283 -491 268 -757 -5 -95 -34 -252
-49 -267 -7 -6 -44 8 -282 111 -113 48 -169 77 -168 87 1 8 17 75 36 149 51
197 87 490 87 702 l0 79 27 -21 c15 -11 51 -49 81 -83z"/>
<path d="M0 8125 c0 -145 4 -225 10 -225 6 0 5 -8 -2 -20 -7 -10 -9 -22 -5
-26 13 -13 96 27 136 66 120 117 127 286 16 378 -36 29 -94 52 -134 52 -21 0
-21 -2 -21 -225z"/>
<path d="M266 7840 c-61 -89 -139 -160 -210 -191 -37 -16 -56 -30 -56 -42 0
-15 8 -13 62 14 73 37 158 114 205 186 30 48 57 103 50 103 -2 0 -25 -31 -51
-70z"/>
<path d="M0 5283 l1 -128 91 -55 c216 -130 304 -282 283 -492 -4 -38 -5 -68
-2 -68 7 0 53 143 68 211 29 139 -5 288 -86 378 -43 47 -186 165 -288 236
l-67 47 0 -129z"/>
<path d="M410 3724 c-19 -3 -87 -14 -151 -25 -64 -10 -129 -19 -145 -19 -16 0
-48 -8 -71 -17 l-43 -18 0 -54 c0 -47 2 -52 18 -46 52 21 215 56 309 66 428
46 899 -123 1363 -491 159 -125 415 -388 584 -600 81 -102 150 -190 152 -195
3 -6 -47 -100 -110 -209 l-114 -197 -35 63 c-19 35 -107 198 -195 363 -225
421 -249 463 -322 567 -216 306 -535 513 -908 589 -126 26 -382 36 -522 20
-158 -18 -220 -31 -220 -48 0 -9 7 -12 18 -9 101 30 354 31 467 0 158 -42 331
-173 398 -301 40 -77 62 -173 54 -234 l-5 -41 34 33 c104 100 121 269 43 421
-11 21 -17 38 -15 38 14 0 144 -64 193 -95 243 -154 336 -438 238 -727 -14
-40 -25 -75 -25 -77 0 -8 77 12 110 29 44 23 97 81 117 129 8 19 18 65 22 101
l6 65 32 -85 c53 -146 68 -230 67 -380 0 -107 -5 -153 -23 -219 -24 -91 -70
-192 -122 -268 -35 -51 -152 -173 -166 -173 -4 0 -9 76 -9 168 -2 184 -18 297
-61 415 -137 384 -461 635 -906 701 -106 16 -320 21 -414 10 -51 -6 -53 -8
-53 -36 l0 -30 122 7 c253 14 509 -35 715 -137 348 -173 550 -557 528 -1003
-4 -71 -9 -138 -11 -148 -7 -24 -131 -84 -222 -108 -217 -55 -424 16 -520 180
-24 41 -27 56 -27 136 0 82 3 97 33 157 81 165 233 269 436 297 37 5 70 12 72
14 6 5 -127 44 -195 57 -275 51 -507 -79 -537 -302 -4 -27 -10 -48 -13 -48 -4
0 -12 19 -19 43 -20 66 -69 146 -105 168 -31 20 -78 21 -234 6 -22 -2 -23 -6
-23 -79 l0 -77 61 -36 c82 -51 160 -124 306 -292 134 -153 191 -208 259 -248
81 -48 152 -66 270 -72 133 -7 241 12 357 62 44 19 77 28 77 21 -1 -6 -15 -50
-34 -97 -112 -296 -329 -477 -674 -565 -109 -28 -323 -51 -366 -40 l-29 7 29
18 c60 36 104 112 104 176 0 25 -36 104 -58 128 -66 74 -205 75 -277 3 -24
-24 -25 -31 -25 -140 l0 -114 35 -30 c40 -36 76 -47 195 -63 147 -20 334 -2
500 48 242 72 418 199 535 387 49 79 108 210 126 280 13 51 18 57 98 126 133
114 238 278 283 445 18 66 22 108 22 240 0 152 -8 212 -40 300 -22 63 34 -41
216 -395 227 -442 209 -385 174 -565 -24 -126 -25 -407 -1 -528 56 -282 203
-553 413 -763 97 -97 197 -170 317 -230 189 -96 356 -134 584 -134 220 0 326
26 556 137 135 66 138 67 180 55 398 -113 665 -129 986 -60 435 93 737 336
936 751 87 181 124 336 146 613 14 178 7 215 -52 279 -56 61 -111 80 -229 80
-78 0 -102 -4 -136 -22 -61 -33 -109 -92 -124 -151 -18 -76 -7 -84 26 -18 36
73 93 122 162 142 174 51 332 -94 288 -264 -24 -95 -99 -165 -214 -202 -89
-29 -137 -62 -162 -110 -40 -79 -23 -153 61 -263 55 -72 75 -144 60 -212 -16
-70 -52 -124 -144 -217 -66 -66 -236 -196 -226 -172 2 5 19 39 37 76 39 79 56
165 47 227 -18 119 -107 220 -225 256 -21 7 -18 0 23 -44 111 -119 122 -239
39 -411 -27 -56 -58 -97 -122 -162 -78 -79 -90 -87 -140 -98 -266 -55 -556
-53 -807 5 -111 26 -174 46 -171 55 3 7 281 258 442 399 119 104 242 165 366
183 44 7 80 15 80 18 0 8 -229 20 -372 20 -136 0 -156 -12 -183 -107 -5 -19
-13 -23 -48 -23 -99 -1 -167 -65 -167 -158 l0 -51 -47 51 c-95 102 -230 135
-356 88 -52 -20 -137 -86 -137 -107 0 -6 26 0 58 12 84 34 140 40 204 21 104
-30 177 -109 178 -191 0 -36 -38 -114 -62 -129 -22 -14 -84 7 -224 75 -202 98
-407 253 -539 406 l-66 78 153 7 c121 5 171 11 238 31 171 51 217 77 791 454
184 121 372 242 419 270 190 113 390 200 573 248 156 41 489 106 510 99 31
-10 211 -189 282 -279 85 -110 139 -192 305 -465 208 -341 292 -463 391 -565
181 -187 399 -307 651 -359 190 -39 523 -45 858 -15 195 18 566 16 685 -4 191
-31 309 -85 390 -180 25 -29 35 -35 35 -23 0 31 -111 128 -190 167 -229 112
-387 125 -1070 93 -280 -14 -370 -15 -480 -5 -141 12 -320 47 -380 75 -19 9
-27 14 -18 12 78 -22 274 -57 366 -66 193 -20 395 12 552 87 107 51 229 175
288 293 131 263 99 544 -70 614 -49 21 -142 20 -204 -1 -66 -22 -148 -104
-164 -164 -25 -93 8 -179 87 -226 156 -91 343 63 279 231 -18 47 -85 116 -112
116 -8 0 -12 5 -9 10 16 26 113 0 155 -41 51 -52 62 -91 58 -204 -5 -120 -33
-209 -105 -328 -119 -197 -295 -290 -604 -318 -274 -25 -561 39 -828 184 -63
35 -110 70 -145 107 -52 57 -194 280 -415 650 -161 270 -234 371 -365 507 -60
62 -107 116 -104 119 14 13 387 5 480 -10 168 -28 331 -89 448 -169 116 -80
234 -235 292 -384 52 -134 69 -238 77 -456 l6 -199 120 242 c115 233 120 244
123 315 7 135 -45 197 -179 219 -76 12 -72 7 -84 96 -14 108 -45 164 -107 196
-16 8 -71 20 -121 25 -97 10 -208 39 -267 69 -68 35 -206 78 -305 96 -75 13
-157 17 -330 18 -260 1 -229 -6 -410 99 -185 109 -350 157 -565 164 -295 10
-547 -66 -820 -248 -92 -61 -278 -235 -366 -342 l-40 -48 1 203 c0 230 -8 274
-75 413 -110 227 -320 361 -623 396 -312 36 -619 -50 -856 -242 l-58 -47 -125
166 c-488 651 -1008 1034 -1553 1142 -98 20 -359 34 -435 24z m3105 -1119
c263 -46 440 -190 531 -431 90 -238 66 -509 -67 -764 -91 -175 -290 -339 -479
-394 l-55 -16 30 22 c151 112 279 303 305 457 22 130 -23 265 -119 354 -82 77
-125 92 -261 92 -100 0 -126 -4 -196 -28 -139 -48 -188 -126 -154 -249 42
-150 247 -185 339 -58 60 83 50 182 -26 256 l-45 44 66 0 c171 0 305 -119 322
-286 14 -137 -60 -329 -171 -439 -64 -64 -203 -145 -250 -145 -30 0 -110 135
-246 415 -55 116 -182 364 -281 553 -142 270 -177 346 -168 357 19 23 112 92
182 134 104 63 246 114 378 134 66 11 285 6 365 -8z m1903 -355 c99 -13 230
-50 332 -93 104 -45 244 -129 228 -138 -7 -3 -38 -10 -68 -13 -171 -22 -523
-134 -801 -255 -289 -126 -495 -247 -757 -445 -191 -144 -277 -200 -397 -257
-174 -83 -369 -121 -541 -104 l-79 8 85 18 c118 26 173 45 262 91 159 82 275
207 371 402 67 135 129 225 232 335 194 205 508 383 770 434 140 28 237 32
363 17z m-2818 -200 c45 -74 156 -283 247 -465 91 -181 197 -385 234 -453 38
-67 69 -124 69 -126 0 -2 -22 1 -49 5 -65 10 -254 107 -350 180 -93 69 -210
190 -292 301 -78 105 -192 297 -191 323 0 57 109 279 188 383 l27 35 18 -24
c10 -13 55 -85 99 -159z m-239 -531 c143 -212 252 -330 398 -428 127 -84 188
-114 343 -166 72 -24 137 -50 143 -57 6 -7 41 -49 77 -93 173 -211 378 -366
662 -501 53 -25 96 -49 96 -53 0 -13 -190 -98 -280 -125 -47 -14 -114 -30
-150 -35 -73 -12 -210 -20 -210 -13 0 2 14 20 31 40 71 80 99 200 65 277 l-13
30 -25 -50 c-36 -71 -101 -130 -187 -173 -72 -36 -79 -37 -180 -37 -98 0 -112
3 -183 33 -153 66 -336 210 -447 350 l-33 43 49 -7 c71 -9 188 12 259 46 56
27 134 97 134 119 0 5 -42 7 -98 4 -75 -4 -111 -2 -157 12 -197 56 -362 217
-427 415 -35 109 -36 383 -1 528 3 12 7 22 9 22 2 0 58 -82 125 -181z"/>
<path d="M1731 1080 c-1 -9 -28 -70 -60 -135 -68 -138 -140 -224 -263 -316
-153 -113 -426 -232 -633 -274 -222 -46 -501 -34 -712 30 -63 19 -63 20 -63
-15 0 -26 5 -30 42 -41 137 -36 243 -51 418 -56 158 -4 202 -2 305 15 207 36
400 110 559 216 144 96 302 267 361 392 29 61 59 169 51 187 -3 7 -5 6 -5 -3z"/>
</g>
</svg>
