<?xml version="1.0" standalone="no"?>
<!DOCTYPE svg PUBLIC "-//W3C//DTD SVG 20010904//EN"
 "http://www.w3.org/TR/2001/REC-SVG-20010904/DTD/svg10.dtd">
<svg version="1.0" xmlns="http://www.w3.org/2000/svg"
 width="640.000000pt" height="1280.000000pt" viewBox="0 0 640.000000 1280.000000"
 preserveAspectRatio="xMidYMid meet">
<metadata>
Created by potrace 1.15, written by Peter Selinger 2001-2017
</metadata>
<g transform="translate(0.000000,1280.000000) scale(0.100000,-0.100000)"
fill="#5c6f46" stroke="none">
<path d="M510 12096 c0 -754 0 -756 53 -966 89 -349 311 -740 684 -1208 217
-272 393 -567 499 -837 174 -447 212 -948 86 -1165 -39 -68 -126 -155 -211
-209 -107 -68 -128 -73 -287 -69 -126 3 -137 2 -151 -17 -38 -51 16 -202 91
-257 57 -41 106 -51 221 -45 110 5 170 25 262 85 81 52 212 198 267 295 l47
85 27 -14 c15 -8 44 -14 66 -14 87 0 142 116 156 330 10 151 2 244 -34 386
-71 278 -191 571 -334 812 -146 245 -259 385 -578 713 -249 256 -344 371 -481
584 -223 346 -323 655 -323 995 0 196 55 400 162 600 77 145 199 296 283 352
l30 20 -31 -29 c-86 -79 -223 -260 -277 -368 -81 -163 -110 -298 -109 -515 2
-338 64 -498 358 -927 166 -240 305 -395 579 -641 148 -134 255 -215 870 -662
841 -611 1005 -743 1254 -1003 197 -207 304 -338 423 -517 173 -261 280 -521
352 -855 40 -182 49 -289 43 -498 -7 -281 -41 -454 -163 -829 -79 -242 -91
-268 -217 -461 -238 -363 -495 -668 -797 -946 -64 -58 -133 -119 -153 -136
-38 -31 -48 -55 -22 -55 8 0 25 10 39 22 13 13 46 41 72 63 26 22 98 85 158
140 127 115 129 118 -109 -171 -316 -384 -437 -550 -615 -843 -260 -430 -414
-872 -451 -1291 -13 -147 -7 -453 11 -585 31 -226 126 -561 211 -746 133 -286
245 -459 388 -596 58 -56 109 -103 114 -103 17 0 5 30 -27 66 -19 22 -64 72
-100 113 -36 41 -66 79 -66 83 0 5 -13 26 -29 46 -38 48 -145 249 -203 382
-89 202 -161 445 -204 690 -22 127 -32 600 -14 709 30 190 93 414 172 616 112
284 326 653 542 935 124 163 652 800 663 800 2 0 -11 -21 -29 -46 -18 -26 -36
-51 -40 -58 -3 -6 -48 -81 -99 -166 -233 -390 -315 -540 -418 -760 -113 -241
-194 -466 -273 -760 -20 -76 -23 -108 -23 -310 0 -208 2 -231 23 -300 29 -93
86 -202 128 -246 40 -43 85 -46 110 -9 18 27 16 47 -19 250 -27 159 -29 462
-4 610 68 395 221 805 488 1309 106 200 210 386 215 386 2 0 -4 -17 -13 -37
-25 -61 -121 -378 -153 -508 -61 -246 -73 -342 -72 -570 1 -308 23 -427 123
-661 155 -366 396 -640 696 -794 148 -77 215 -92 412 -98 248 -6 367 16 530
98 91 46 218 139 283 207 95 101 197 292 267 498 45 134 65 249 39 228 -8 -7
-20 -39 -27 -70 -21 -94 -78 -239 -149 -377 -78 -150 -163 -250 -293 -342
-266 -187 -626 -235 -931 -124 -349 128 -659 476 -819 920 -54 150 -69 261
-69 522 0 220 15 339 76 583 26 107 155 507 161 501 2 -2 -2 -37 -8 -77 -16
-103 -6 -322 20 -422 47 -182 128 -290 273 -362 78 -39 98 -45 152 -45 l61 1
-37 23 c-54 33 -78 56 -100 99 -33 66 -34 143 -4 218 6 14 -1 15 -50 11 -133
-11 -222 40 -260 149 -16 45 -19 83 -19 224 l1 170 58 170 c75 219 138 356
294 645 167 310 191 361 256 543 96 270 139 475 158 765 14 210 2 384 -41 602
-90 454 -245 784 -539 1152 -100 125 -421 475 -451 492 -9 5 -54 41 -101 80
-249 209 -569 444 -1335 981 -302 212 -397 284 -517 394 -142 130 -204 200
-115 128 367 -295 833 -511 1292 -599 155 -29 533 -37 727 -14 341 39 661 140
857 270 236 157 423 417 526 731 66 199 79 288 79 555 0 239 -16 368 -63 520
-44 140 -58 121 -25 -35 133 -650 -64 -1315 -485 -1639 -242 -186 -551 -301
-900 -336 -177 -17 -473 -13 -603 9 -131 23 -221 42 -216 46 2 1 41 -1 88 -4
111 -9 299 3 381 24 87 22 251 102 326 159 34 26 90 77 123 114 209 228 281
472 265 897 -8 217 -37 445 -56 445 -5 0 -9 -26 -9 -57 0 -92 -27 -246 -55
-315 -37 -91 -68 -133 -122 -165 -40 -23 -58 -27 -122 -28 -53 0 -86 5 -110
18 -57 29 -64 23 -37 -30 13 -27 37 -97 52 -158 27 -102 29 -123 29 -300 0
-184 -1 -192 -26 -245 -125 -266 -481 -344 -1014 -224 -60 14 -141 29 -179 34
-38 5 -72 13 -75 18 -3 5 -17 13 -31 17 -14 4 -88 39 -165 79 -101 52 -192
110 -326 209 -221 162 -234 174 -153 146 146 -50 309 -73 509 -74 142 0 188 4
275 24 189 42 292 91 408 196 207 188 326 476 309 746 -8 117 -30 196 -90 319
-44 90 -62 116 -130 181 -125 121 -276 195 -421 206 -39 3 -68 3 -65 -1 3 -3
41 -15 85 -26 130 -33 275 -120 370 -222 60 -65 133 -205 158 -300 22 -87 30
-232 17 -318 -35 -223 -207 -469 -397 -567 -98 -51 -161 -69 -286 -83 -319
-34 -599 22 -819 162 -92 59 -236 185 -300 264 -193 236 -266 437 -257 698 9
219 65 350 218 506 116 118 198 176 455 325 258 149 300 180 309 230 10 49 -6
71 -74 105 l-59 30 -601 0 -600 0 0 -704z"/>
<path d="M3688 12641 c-80 -73 -102 -129 -103 -256 0 -89 3 -106 26 -150 15
-30 42 -62 68 -80 36 -25 51 -30 101 -29 69 1 115 25 145 74 26 45 27 175 2
233 -14 33 -20 37 -51 37 -43 0 -67 -30 -91 -115 -30 -102 -40 -117 -83 -113
-53 4 -64 31 -59 143 3 99 26 160 88 243 23 29 30 45 22 53 -7 7 -27 -5 -65
-40z"/>
<path d="M3467 8303 c4 -10 38 -74 77 -143 141 -253 221 -445 261 -630 26
-119 31 -358 10 -471 -72 -395 -262 -637 -525 -672 -145 -19 -273 11 -346 81
-95 90 -134 193 -134 349 0 239 84 378 325 537 101 67 114 80 115 117 0 46
-41 73 -118 77 -90 5 -137 -9 -226 -69 -123 -82 -217 -204 -267 -349 -21 -58
-23 -84 -23 -230 0 -186 11 -245 70 -365 69 -142 164 -232 303 -287 47 -19 75
-22 181 -22 141 0 199 15 309 79 130 76 226 189 307 359 85 179 120 378 111
634 -5 166 -28 280 -91 446 -47 123 -175 358 -251 461 -41 55 -75 103 -75 108
0 4 -4 7 -10 7 -5 0 -6 -8 -3 -17z"/>
<path d="M1922 5091 c-45 -23 -88 -90 -102 -156 -19 -92 14 -220 72 -271 52
-47 103 -74 140 -74 45 0 51 15 9 23 -43 9 -112 67 -138 116 -38 73 -29 195
20 249 38 41 47 29 47 -62 0 -85 11 -134 33 -148 20 -13 86 -9 115 6 63 33 97
96 87 162 -7 52 -56 127 -99 154 -43 26 -137 27 -184 1z"/>
<path d="M5172 3753 c-72 -68 -96 -126 -97 -234 0 -76 3 -92 30 -144 42 -82
70 -100 154 -100 58 0 75 4 117 30 66 41 97 98 97 175 -1 97 -42 150 -120 157
-61 5 -95 -13 -110 -57 -17 -49 -16 -130 2 -164 20 -39 19 -46 -9 -46 -26 0
-81 55 -97 97 -14 37 -11 149 6 188 8 20 37 60 66 90 42 45 48 55 32 55 -12 0
-43 -21 -71 -47z"/>
<path d="M4094 1374 c27 -27 57 -67 67 -89 21 -45 25 -147 9 -191 -6 -15 -9
-29 -6 -31 2 -2 35 -9 72 -14 119 -17 190 -66 215 -150 18 -62 11 -294 -12
-394 -29 -129 -34 -159 -21 -151 15 9 59 150 79 251 10 48 16 130 16 205 0
106 -4 138 -27 213 -30 100 -65 175 -108 229 -54 69 -190 145 -294 163 l-39 8
49 -49z"/>
</g>
</svg>
