<?xml version="1.0" standalone="no"?>
<!DOCTYPE svg PUBLIC "-//W3C//DTD SVG 20010904//EN"
 "http://www.w3.org/TR/2001/REC-SVG-20010904/DTD/svg10.dtd">
<svg version="1.0" xmlns="http://www.w3.org/2000/svg"
 width="1280.000000pt" height="640.000000pt" viewBox="0 0 1280.000000 640.000000"
 preserveAspectRatio="xMidYMid meet">
<metadata>
Created by potrace 1.15, written by Peter Selinger 2001-2017
</metadata>
<g transform="translate(0.000000,640.000000) scale(0.100000,-0.100000)"
fill="#5c6f46" stroke="none">
<path d="M10881 4715 c-379 -60 -780 -205 -1172 -426 -48 -27 -89 -49 -93 -49
-3 0 -6 11 -6 25 0 82 -82 199 -182 258 -94 55 -171 72 -323 72 -197 0 -284
-31 -390 -139 l-59 -61 95 -6 c127 -9 190 -23 261 -61 149 -79 219 -235 222
-493 1 -116 -1 -134 -21 -171 -46 -87 -173 -173 -308 -210 -91 -25 -295 -30
-374 -9 -116 30 -195 84 -233 158 -23 45 -34 136 -24 190 l7 36 34 -24 c74
-50 206 -58 297 -18 62 28 113 76 142 135 36 72 37 189 2 263 -43 93 -129 146
-250 153 -185 11 -331 -67 -466 -249 -69 -94 -181 -310 -239 -462 l-10 -26
-48 21 c-63 29 -194 31 -270 5 -77 -27 -137 -77 -169 -142 -23 -48 -26 -64
-21 -117 11 -128 63 -149 275 -113 l42 7 -11 -29 c-40 -106 -202 -172 -352
-144 -164 30 -277 130 -301 264 -6 35 -5 39 16 45 62 16 181 87 247 148 145
134 231 339 231 550 l0 45 -72 -49 c-150 -101 -265 -146 -378 -146 -116 -1
-171 22 -255 108 -62 63 -81 92 -164 256 -83 163 -185 329 -202 330 -3 0 -12
-35 -19 -77 -53 -334 -306 -582 -590 -583 -88 0 -167 21 -272 73 l-88 43 0
-61 c0 -167 58 -300 191 -439 48 -50 137 -132 198 -181 61 -49 111 -93 111
-97 0 -21 -32 -67 -72 -104 -113 -104 -324 -148 -459 -96 -30 12 -95 67 -109
91 -8 15 2 17 94 18 143 1 162 6 186 54 26 49 40 151 28 202 -18 81 -67 147
-133 180 -80 39 -165 29 -308 -35 -49 -22 -90 -38 -91 -36 -1 1 -8 39 -15 83
-37 228 -158 459 -295 564 -110 84 -207 116 -351 116 -125 0 -187 -20 -249
-79 -117 -114 -112 -330 10 -451 55 -54 106 -75 185 -75 56 0 76 5 132 35 36
19 73 35 81 35 38 0 34 -155 -6 -242 -96 -209 -384 -299 -615 -193 -142 65
-307 297 -343 483 -45 225 77 371 422 509 65 25 118 49 117 52 -1 15 -110 95
-164 121 -248 122 -632 -20 -756 -279 l-32 -68 -94 63 c-406 272 -965 422
-1483 400 -192 -8 -592 -60 -540 -69 19 -4 181 -27 360 -52 522 -73 775 -135
977 -239 243 -125 375 -243 652 -581 268 -326 382 -440 557 -557 154 -102 344
-164 536 -175 126 -7 223 6 356 49 52 16 96 27 99 24 4 -3 -27 -39 -68 -79
-132 -129 -300 -197 -488 -197 -123 0 -191 17 -316 80 -187 94 -318 201 -701
572 -122 118 -268 255 -325 305 -663 575 -1133 752 -1639 617 -235 -63 -396
-177 -468 -331 -24 -52 -27 -69 -26 -163 0 -144 23 -202 113 -290 105 -104
230 -154 382 -153 133 1 225 47 271 137 26 51 21 141 -12 205 -32 63 -104 136
-163 165 l-50 26 54 24 c295 129 690 34 1047 -253 99 -80 268 -248 259 -258
-3 -2 -32 1 -64 8 -32 6 -118 15 -191 18 l-133 6 -24 60 c-34 84 -72 132 -151
193 -53 40 -221 134 -306 170 -4 2 -8 -17 -8 -41 0 -33 11 -69 40 -128 52
-108 54 -167 9 -257 -55 -110 -203 -214 -369 -258 -88 -24 -262 -24 -350 0
-204 55 -392 203 -452 356 -31 79 -29 180 6 290 26 81 48 270 32 270 -13 0
-91 -43 -146 -80 -55 -38 -167 -149 -273 -271 l-57 -66 0 -216 0 -216 101
-148 c55 -81 111 -159 122 -172 43 -46 161 -121 241 -152 69 -27 98 -32 197
-37 182 -7 340 33 674 173 298 125 455 174 617 190 37 4 84 4 103 1 l36 -7
-58 -38 c-121 -78 -237 -248 -274 -401 -22 -91 -17 -259 11 -375 13 -55 26
-103 30 -107 3 -4 26 47 50 114 63 170 120 268 210 359 73 74 172 140 234 155
28 7 28 7 22 -32 -5 -33 17 -281 26 -289 2 -1 66 38 143 87 252 162 377 205
565 195 238 -12 407 -101 482 -254 55 -113 42 -225 -39 -314 -89 -99 -244
-129 -323 -62 -45 38 -63 80 -64 149 -1 52 5 71 42 142 23 44 42 95 42 111 l0
31 -80 0 c-133 0 -239 -45 -317 -134 -81 -92 -113 -199 -95 -321 25 -179 134
-316 327 -410 149 -73 230 -90 430 -90 196 1 249 11 385 78 180 88 290 258
290 448 0 51 -18 166 -35 225 -6 19 0 21 98 32 283 33 502 138 755 363 l73 65
37 -35 c86 -81 235 -123 432 -123 138 0 234 17 337 58 35 14 66 24 68 22 2 -2
33 -50 69 -108 108 -172 228 -417 421 -860 66 -153 80 -178 90 -169 2 3 12 57
21 120 48 349 171 644 388 933 l57 75 53 -24 c85 -38 162 -48 309 -42 184 7
343 53 488 141 l55 33 25 -36 c79 -117 248 -254 381 -308 129 -52 286 -83 429
-83 l76 0 -20 -67 c-29 -100 -28 -258 2 -335 47 -120 136 -213 265 -276 249
-121 612 -116 871 12 205 102 302 235 313 428 10 198 -95 364 -272 425 -56 19
-186 24 -269 10 l-48 -8 36 -42 c55 -65 85 -133 85 -197 0 -56 -26 -127 -58
-163 -46 -51 -154 -78 -230 -58 -50 14 -116 69 -142 121 -43 84 -46 221 -6
298 42 82 192 175 356 222 105 30 309 38 403 16 122 -29 162 -58 236 -177 44
-70 96 -115 148 -125 30 -6 32 -5 43 37 7 24 18 91 26 148 7 57 15 106 18 108
18 19 155 -125 256 -267 71 -101 216 -277 230 -279 6 -1 32 57 68 149 51 134
28 310 -60 457 -42 71 -166 204 -242 260 l-58 43 48 1 c207 6 311 -20 692
-172 304 -122 418 -152 587 -153 152 -1 217 13 341 74 148 72 276 212 370 406
l54 111 0 136 0 137 -39 82 c-83 180 -197 289 -340 328 -48 13 -181 29 -181
22 0 -3 31 -70 70 -151 49 -105 72 -167 81 -218 52 -317 -245 -551 -673 -530
-194 9 -351 64 -448 157 -71 67 -94 119 -95 212 0 69 3 80 30 120 20 28 67 67
138 114 59 39 111 75 115 79 12 13 -212 -4 -269 -21 -160 -48 -273 -142 -406
-340 l-54 -81 -97 -6 c-58 -3 -130 -16 -181 -31 l-83 -24 29 31 c16 18 80 87
142 154 291 315 508 444 772 460 156 9 299 -25 374 -90 l39 -34 -57 -11 c-172
-34 -264 -136 -255 -280 4 -62 6 -67 47 -103 70 -62 124 -83 221 -87 138 -5
248 44 352 157 100 108 144 225 136 362 -18 290 -289 467 -681 445 -281 -16
-515 -101 -802 -290 -221 -146 -363 -267 -769 -658 -143 -137 -303 -286 -355
-330 -236 -198 -489 -333 -699 -374 -188 -36 -363 5 -484 114 -35 31 -98 124
-98 144 0 4 28 -6 63 -22 193 -87 469 -60 755 75 211 100 327 203 617 550 281
335 401 446 625 577 212 125 462 213 805 283 129 26 634 115 655 115 11 0 20
3 20 8 0 4 -64 16 -142 26 -79 10 -165 22 -191 27 -71 13 -507 9 -606 -6z
m539 -49 c0 -2 -33 -9 -72 -16 -667 -108 -1092 -293 -1409 -612 -51 -51 -160
-174 -242 -273 -302 -362 -397 -451 -585 -548 -184 -94 -347 -138 -512 -138
-110 0 -188 18 -273 63 -46 25 -81 57 -153 141 -52 59 -94 106 -94 104 0 -11
126 -309 152 -361 61 -121 183 -217 333 -261 88 -27 246 -25 357 4 207 53 423
169 645 348 50 40 196 173 323 296 326 312 439 417 563 518 295 242 538 377
804 446 99 25 124 28 288 28 171 0 184 -2 258 -28 93 -33 142 -62 197 -119 50
-52 86 -123 101 -200 51 -254 -243 -544 -482 -475 -30 9 -73 30 -96 47 -41 31
-43 34 -43 86 0 124 90 193 273 210 42 4 77 10 77 13 0 19 -62 101 -104 138
-150 132 -487 145 -731 29 -196 -93 -278 -164 -692 -603 -137 -145 -173 -186
-144 -168 5 3 89 30 187 60 175 54 281 75 373 75 l47 0 69 103 c115 171 237
278 355 313 23 6 22 3 -13 -36 -55 -59 -71 -102 -70 -185 1 -106 31 -175 112
-255 204 -202 641 -248 947 -99 191 93 294 247 294 439 0 108 -14 163 -66 267
-24 48 -44 91 -44 94 0 21 133 -30 193 -75 44 -32 116 -132 154 -213 32 -70
33 -75 33 -201 l0 -130 -49 -99 c-91 -180 -194 -292 -333 -363 -112 -56 -205
-74 -347 -67 -146 7 -258 38 -516 143 -342 138 -456 171 -627 181 -79 4 -135
1 -217 -12 -61 -10 -111 -21 -111 -25 0 -4 12 -12 27 -19 59 -27 192 -121 256
-181 77 -72 155 -182 188 -267 30 -77 33 -223 6 -301 -11 -29 -24 -51 -30 -49
-7 2 -61 71 -122 154 -151 207 -194 254 -281 313 -42 27 -79 50 -84 50 -17 0
-49 -101 -60 -195 -7 -55 -16 -104 -20 -108 -9 -10 -59 49 -113 133 -50 77
-111 118 -215 145 -313 80 -754 -60 -859 -273 -25 -51 -28 -68 -28 -157 0
-114 12 -161 56 -228 60 -90 141 -131 258 -128 114 2 207 63 253 165 33 75 31
181 -5 260 l-27 59 72 -5 c96 -7 165 -37 223 -99 146 -156 130 -402 -35 -551
-193 -175 -581 -237 -873 -141 -143 48 -247 131 -301 243 -29 61 -31 72 -31
175 1 98 4 120 33 201 18 50 32 94 32 97 0 3 -64 5 -142 6 -163 0 -269 17
-395 63 -158 57 -310 178 -403 321 -23 37 -45 67 -48 67 -2 0 -26 -16 -52 -35
-121 -89 -333 -160 -509 -171 -115 -7 -212 10 -310 56 l-66 31 -28 -33 c-54
-63 -177 -240 -228 -329 -93 -162 -185 -407 -211 -559 -7 -38 -15 -70 -18 -70
-3 0 -36 71 -74 158 -152 348 -303 636 -412 789 l-45 63 -61 -31 c-107 -54
-195 -72 -358 -73 -238 -1 -357 46 -440 172 -15 23 -15 23 -120 -72 -285 -260
-496 -355 -843 -381 -77 -6 -88 -9 -82 -23 4 -10 18 -60 32 -112 20 -78 24
-112 20 -190 -5 -127 -31 -192 -108 -274 -94 -101 -217 -155 -398 -176 -169
-20 -340 9 -497 85 -144 70 -232 161 -273 283 -73 215 50 422 266 450 35 5 63
7 63 5 0 -1 -14 -29 -30 -60 -37 -72 -48 -131 -37 -203 16 -108 81 -178 184
-200 136 -29 307 60 374 197 20 40 24 63 24 143 0 87 -3 101 -32 160 -99 202
-379 325 -661 291 -155 -19 -254 -59 -444 -178 l-96 -61 -7 85 c-7 77 -1 134
21 211 6 21 4 22 -22 16 -68 -16 -203 -72 -254 -106 -112 -74 -207 -186 -276
-324 l-39 -79 -3 80 c-6 141 27 257 105 377 75 114 174 184 335 235 l83 27
-45 13 c-162 48 -321 55 -481 23 -110 -23 -269 -77 -499 -173 -333 -138 -448
-170 -610 -171 -123 -1 -209 22 -305 79 -89 53 -137 105 -236 252 l-89 132 0
198 1 198 104 117 c102 114 220 217 233 203 4 -3 -7 -54 -23 -113 -68 -249
-34 -393 132 -553 295 -284 771 -296 1058 -27 91 85 130 165 130 268 0 61 -5
86 -27 134 -33 69 -32 69 86 -2 114 -68 179 -143 210 -240 l24 -77 173 -6
c200 -8 248 -18 379 -84 49 -25 90 -43 90 -40 0 2 -28 44 -61 92 -336 483
-886 778 -1301 699 -102 -20 -180 -49 -273 -102 -119 -69 -120 -69 -30 -83
120 -18 193 -64 245 -155 57 -99 33 -198 -57 -238 -175 -77 -446 20 -530 190
-25 51 -28 67 -28 162 0 94 3 110 26 155 103 195 440 330 774 312 178 -10 323
-51 520 -147 289 -140 606 -389 1065 -835 348 -339 520 -475 701 -559 129 -59
180 -71 319 -71 148 0 237 22 364 88 108 55 244 190 300 295 21 40 36 75 34
78 -3 2 -87 -24 -189 -58 l-184 -63 -175 1 c-161 0 -182 3 -265 28 -279 84
-466 236 -810 656 -219 268 -367 415 -521 516 -241 159 -479 239 -933 314
l-116 20 215 -5 c237 -4 375 -22 585 -77 297 -77 580 -210 800 -377 38 -28 71
-51 74 -51 3 0 14 32 23 71 10 39 31 93 49 120 114 178 380 287 574 235 57
-15 135 -52 135 -64 0 -5 -36 -23 -79 -41 -250 -103 -375 -229 -402 -405 -35
-221 161 -570 380 -680 100 -50 268 -64 390 -32 249 64 396 286 350 526 l-15
75 -44 -3 c-26 -2 -75 -18 -115 -37 -87 -43 -120 -50 -173 -35 -162 43 -220
296 -96 412 43 40 105 58 198 58 152 0 246 -40 357 -151 63 -63 86 -94 128
-180 55 -111 97 -255 108 -371 3 -38 9 -70 13 -73 13 -8 99 18 182 56 106 49
171 58 233 34 76 -28 124 -120 111 -211 -12 -92 -30 -104 -150 -104 -64 0 -95
7 -159 35 l-39 16 7 -43 c19 -114 68 -184 162 -230 226 -111 593 32 646 253 6
24 -4 35 -128 134 -171 136 -273 243 -319 335 -33 66 -65 175 -54 185 2 3 32
-6 66 -19 232 -91 474 -34 660 154 80 81 140 179 180 291 l29 83 91 -180 c105
-205 173 -301 252 -355 73 -50 136 -69 230 -69 108 0 168 16 287 76 91 45 102
48 98 30 -30 -149 -58 -219 -128 -313 -72 -97 -175 -170 -302 -213 l-50 -17
-3 -58 c-14 -268 359 -459 635 -324 86 42 148 123 166 216 6 31 4 33 -31 44
-29 8 -55 7 -121 -5 -105 -20 -135 -20 -155 0 -20 20 -21 105 -2 143 37 71
136 121 240 121 67 0 111 -13 169 -50 l47 -30 16 38 c8 20 31 74 50 120 162
391 324 579 528 612 151 24 272 -39 297 -158 33 -160 -67 -282 -230 -282 -83
0 -133 22 -189 84 -25 28 -44 41 -47 34 -28 -84 -39 -145 -39 -218 0 -112 25
-170 104 -244 101 -93 242 -134 430 -123 252 15 458 123 535 281 27 56 28 57
22 214 -3 100 -12 179 -22 216 -57 205 -183 325 -383 366 l-87 17 40 21 c73
37 155 55 255 55 282 2 468 -146 446 -355 -3 -32 -2 -58 2 -58 4 0 57 30 117
66 452 268 880 420 1340 477 42 6 415 8 415 3z"/>
<path d="M6290 3995 c-7 -20 -36 -64 -66 -98 -77 -88 -95 -132 -78 -192 5 -19
13 -20 242 -20 185 1 245 4 275 16 l38 15 -128 131 c-99 101 -141 136 -185
157 -31 14 -63 26 -72 26 -8 0 -20 -16 -26 -35z m112 -76 c27 -17 76 -61 108
-98 56 -62 59 -66 38 -71 -13 -4 -88 -2 -168 2 -80 4 -151 6 -157 3 -29 -10
-9 29 52 100 36 42 65 81 65 86 0 15 10 11 62 -22z"/>
<path d="M6363 3449 c-41 -49 -53 -70 -131 -240 -21 -47 -56 -104 -76 -127
l-37 -41 34 -44 c18 -24 49 -82 67 -128 77 -194 126 -267 209 -312 l50 -28 7
28 c26 118 55 197 126 338 l82 163 -50 54 c-32 36 -78 111 -134 218 -47 90
-90 165 -95 167 -6 1 -29 -20 -52 -48z m104 -182 c35 -68 81 -145 104 -171
l42 -47 -76 -157 c-42 -86 -82 -178 -89 -204 -7 -27 -15 -48 -18 -48 -4 0 -18
12 -32 28 -30 31 -65 99 -108 208 -17 43 -42 96 -56 119 l-24 42 33 51 c19 27
49 85 67 128 36 88 80 174 89 174 3 0 34 -56 68 -123z"/>
</g>
</svg>
