<?xml version="1.0" standalone="no"?>
<!DOCTYPE svg PUBLIC "-//W3C//DTD SVG 20010904//EN"
 "http://www.w3.org/TR/2001/REC-SVG-20010904/DTD/svg10.dtd">
<svg version="1.0" xmlns="http://www.w3.org/2000/svg"
 width="1280.000000pt" height="1248.000000pt" viewBox="0 0 1280.000000 1248.000000"
 preserveAspectRatio="xMidYMid meet">
<metadata>
Created by potrace 1.15, written by Peter Selinger 2001-2017
</metadata>
<g transform="translate(0.000000,1248.000000) scale(0.100000,-0.100000)"
fill="#000000" stroke="none">
<path d="M8900 12473 c-368 -34 -590 -79 -895 -180 -982 -325 -1931 -1104
-2505 -2057 -399 -665 -625 -1357 -702 -2151 -16 -171 -16 -704 0 -865 67
-653 214 -1181 482 -1735 150 -310 305 -565 509 -834 64 -84 122 -162 129
-171 10 -14 -14 -8 -99 26 -301 119 -622 198 -954 236 -160 18 -551 15 -705
-6 -379 -51 -657 -135 -985 -296 -304 -149 -523 -306 -760 -544 -224 -224
-369 -427 -496 -691 -272 -570 -279 -1173 -17 -1683 54 -106 177 -296 227
-352 17 -19 6 0 -24 44 -178 253 -286 525 -325 819 -15 115 -12 354 5 476 50
341 196 680 425 986 100 134 368 401 502 500 357 265 719 428 1143 516 240 50
387 62 670 56 249 -5 382 -20 585 -63 526 -113 1097 -383 1472 -695 321 -268
637 -474 1003 -654 398 -197 776 -330 1185 -419 333 -72 580 -103 580 -72 0 8
7 92 16 187 8 95 13 182 10 195 -7 25 -21 29 -131 39 -174 16 -544 144 -825
285 -925 464 -1592 1286 -1859 2294 -81 304 -115 570 -115 911 0 254 9 381 45
605 229 1422 1329 2616 2694 2926 366 84 792 96 1152 33 264 -46 476 -114 718
-234 187 -91 334 -184 483 -302 102 -81 301 -274 341 -331 22 -32 21 -32 -45
17 -346 251 -737 403 -1204 468 -173 24 -564 23 -745 -1 -383 -52 -724 -156
-1066 -327 -814 -406 -1406 -1108 -1669 -1979 -82 -272 -140 -629 -123 -750
l9 -65 8 75 c71 702 386 1388 865 1883 338 350 722 606 1161 775 698 269 1474
276 2090 20 557 -231 949 -618 1159 -1146 68 -169 91 -272 91 -398 0 -814
-443 -1537 -1170 -1908 -177 -91 -376 -158 -584 -197 -140 -26 -455 -37 -605
-20 -383 42 -765 195 -1083 435 -27 20 -48 34 -48 31 0 -10 186 -148 270 -199
356 -221 735 -329 1150 -329 351 1 661 73 970 226 377 187 693 480 910 844 74
125 148 286 192 419 17 52 33 92 35 90 9 -9 -44 -237 -83 -355 -169 -506 -545
-936 -1021 -1166 -54 -26 -100 -49 -102 -51 -6 -5 151 -367 166 -382 11 -11
31 -4 121 43 449 238 812 610 1031 1059 118 241 180 438 222 711 17 108 17
476 0 590 -57 390 -184 724 -390 1031 -38 55 -94 150 -125 211 -217 424 -565
794 -990 1053 -603 367 -1405 496 -2136 345 -1116 -230 -2084 -993 -2613
-2060 -413 -832 -515 -1792 -287 -2705 149 -596 462 -1189 873 -1655 39 -44
78 -89 86 -99 18 -21 -97 53 -234 153 -363 263 -702 599 -975 966 -834 1119
-1129 2528 -814 3891 149 647 424 1237 830 1779 361 483 842 918 1342 1217
608 362 1210 540 1822 540 482 0 887 -98 1325 -320 707 -360 1218 -982 1445
-1757 59 -203 107 -473 112 -635 l1 -55 6 45 c5 37 7 29 12 -50 5 -76 6 -66 3
45 -11 475 -176 1011 -445 1444 -153 245 -391 521 -606 701 -486 405 -1069
647 -1688 700 -111 9 -353 11 -435 3z m-1853 -5645 c-3 -7 -5 -2 -5 12 0 14 2
19 5 13 2 -7 2 -19 0 -25z m-10 -95 c-2 -16 -4 -5 -4 22 0 28 2 40 4 28 2 -13
2 -35 0 -50z"/>
<path d="M41 11684 c0 -11 3 -14 6 -6 3 7 2 16 -1 19 -3 4 -6 -2 -5 -13z"/>
<path d="M32 11620 c-2 -26 18 -261 43 -520 161 -1626 444 -2551 921 -3011
123 -118 228 -188 364 -242 125 -50 201 -62 380 -62 174 1 260 13 417 59 91
26 93 25 93 -39 0 -19 9 -95 20 -171 103 -703 398 -1318 846 -1769 240 -241
542 -443 849 -569 291 -118 651 -197 973 -213 l132 -6 0 96 c0 52 -3 102 -6
111 -5 12 -20 16 -63 16 -100 0 -292 20 -449 46 -528 87 -980 314 -1340 673
-386 383 -669 954 -773 1554 -28 163 -48 351 -38 355 42 16 201 99 265 137
407 246 661 575 640 830 -14 181 -181 360 -390 420 -257 74 -492 -145 -605
-563 -51 -189 -92 -574 -76 -714 l6 -57 -113 -35 c-404 -126 -731 -85 -1010
124 -189 143 -377 413 -518 745 -106 249 -239 708 -314 1085 -85 430 -168
1020 -218 1559 -7 75 -15 125 -19 115 -5 -13 -8 -5 -11 26 -3 25 -5 34 -6 20z
m2945 -2461 c77 -37 166 -116 186 -167 26 -65 30 -124 13 -190 -55 -214 -276
-459 -583 -646 -89 -54 -187 -106 -199 -106 -15 0 5 386 25 505 61 350 197
588 360 631 63 16 124 8 198 -27z"/>
<path d="M1245 6679 c-183 -23 -356 -108 -473 -233 -144 -154 -216 -343 -215
-566 0 -149 17 -230 73 -345 118 -244 352 -385 637 -385 95 0 104 2 99 18 -2
9 -8 53 -12 97 -3 44 -11 86 -16 93 -7 8 -41 12 -102 12 -309 0 -495 193 -496
516 0 280 170 530 417 613 241 81 518 38 868 -133 233 -115 387 -218 675 -453
213 -173 378 -290 565 -402 372 -223 775 -391 1115 -467 92 -20 126 -24 143
-16 18 9 16 10 -18 6 -28 -3 -34 -2 -20 4 16 7 11 10 -28 16 -157 24 -456 132
-722 261 -361 176 -687 396 -996 672 -422 377 -831 612 -1174 676 -110 21
-236 27 -320 16z"/>
<path d="M7012 6660 c0 -19 2 -27 5 -17 2 9 2 25 0 35 -3 9 -5 1 -5 -18z"/>
<path d="M3138 4663 c7 -3 16 -2 19 1 4 3 -2 6 -13 5 -11 0 -14 -3 -6 -6z"/>
<path d="M2976 4619 c-387 -128 -733 -340 -1035 -634 -478 -465 -781 -1064
-862 -1705 -17 -136 -14 -441 6 -575 90 -602 412 -1073 954 -1392 720 -424
1528 -414 2199 27 151 100 224 158 350 283 184 182 311 357 422 582 129 261
178 453 187 720 8 253 -28 435 -126 641 -57 119 -96 182 -180 287 l-62 78
-114 -107 -114 -107 48 -56 c100 -117 171 -249 217 -406 22 -75 27 -117 31
-247 9 -272 -38 -480 -167 -733 -288 -565 -827 -956 -1440 -1045 -109 -16
-369 -14 -491 5 -449 67 -926 320 -1200 637 -221 257 -361 595 -400 967 -16
153 -6 431 20 587 79 466 266 887 572 1284 90 117 355 383 469 471 241 186
463 309 740 410 58 21 100 38 93 38 -15 1 -188 -58 -272 -93 -35 -14 -66 -24
-68 -22 -5 5 159 72 272 110 55 19 93 35 85 35 -8 0 -69 -18 -134 -40z"/>
<path d="M3125 4640 c-13 -5 -14 -9 -5 -9 8 0 24 4 35 9 13 5 14 9 5 9 -8 0
-24 -4 -35 -9z"/>
</g>
</svg>
