<?xml version="1.0" standalone="no"?>
<!DOCTYPE svg PUBLIC "-//W3C//DTD SVG 20010904//EN"
 "http://www.w3.org/TR/2001/REC-SVG-20010904/DTD/svg10.dtd">
<svg version="1.0" xmlns="http://www.w3.org/2000/svg"
 width="1280.000000pt" height="1280.000000pt" viewBox="0 0 1280.000000 1280.000000"
 preserveAspectRatio="xMidYMid meet">
<metadata>
Created by potrace 1.15, written by Peter Selinger 2001-2017
</metadata>
<g transform="translate(0.000000,1280.000000) scale(0.100000,-0.100000)"
fill="#000000" stroke="none">
<path d="M5164 11120 c-160 -114 -162 -405 -2 -637 l29 -43 -188 0 c-108 0
-280 -9 -403 -20 -423 -39 -652 -36 -807 11 -38 11 -105 40 -150 64 l-83 44
-15 -52 c-26 -87 -37 -189 -26 -253 37 -227 191 -381 431 -430 96 -19 223 -15
304 10 39 12 53 13 65 3 10 -8 15 -9 18 -1 2 6 11 20 19 30 48 59 -54 -104
-121 -194 -145 -196 -367 -400 -536 -495 -109 -60 -181 -80 -276 -74 l-83 5
-7 -37 c-5 -20 -8 -70 -8 -111 1 -115 46 -184 150 -232 44 -20 65 -23 165 -22
110 1 167 13 295 59 16 5 17 5 5 -4 -12 -9 -10 -11 13 -11 34 0 32 -9 -19
-114 -155 -311 -454 -510 -813 -542 l-83 -7 5 -48 c16 -133 108 -208 285 -232
102 -13 236 1 367 38 114 33 312 128 418 201 45 31 73 47 63 35 -16 -18 -17
-21 -3 -21 8 0 17 3 20 8 2 4 2 0 -1 -8 -3 -8 -7 -53 -9 -100 -4 -63 -1 -95
11 -121 40 -95 130 -153 238 -154 36 0 69 3 73 6 3 4 1 28 -6 53 -20 79 -7
247 26 336 29 80 102 230 111 230 3 0 2 -4 -1 -10 -3 -5 1 -10 9 -10 8 0 16
11 18 28 2 15 5 -14 6 -64 8 -379 254 -579 514 -417 l37 23 -53 50 c-150 142
-188 448 -95 764 51 169 155 359 255 462 27 28 40 40 30 27 -19 -23 -19 -23 2
-23 12 0 22 6 22 13 1 6 12 -28 25 -78 44 -170 85 -253 179 -366 210 -255 530
-319 703 -141 44 45 93 137 96 179 2 24 -3 27 -63 39 -216 45 -339 122 -398
251 -98 214 -24 472 194 672 168 154 343 209 559 177 298 -44 610 -238 1006
-622 88 -85 100 -100 67 -83 -65 33 -184 59 -272 59 -190 0 -321 -74 -389
-218 -30 -63 -32 -73 -32 -182 1 -98 5 -127 28 -195 41 -120 38 -119 101 -49
186 206 492 182 841 -64 103 -73 379 -347 485 -481 199 -253 365 -540 459
-795 l22 -59 -38 28 c-21 16 -87 68 -148 116 -365 288 -641 382 -930 314 -173
-40 -325 -219 -366 -430 -14 -73 -12 -270 6 -430 35 -326 9 -516 -85 -635 -16
-21 -30 -41 -30 -45 0 -4 49 -6 109 -3 134 5 191 30 281 119 81 81 130 184
175 364 62 246 96 325 168 392 56 52 96 63 223 63 122 0 225 -24 339 -79 310
-149 621 -568 823 -1111 74 -197 202 -614 202 -655 0 -4 -33 23 -72 60 -189
175 -445 330 -621 374 -408 105 -657 13 -1047 -386 -75 -76 -192 -203 -260
-283 -178 -209 -454 -482 -585 -579 -281 -209 -522 -253 -783 -143 -234 98
-398 301 -448 557 -10 50 -19 91 -20 93 -1 2 -36 -13 -78 -34 -140 -68 -204
-144 -232 -275 -16 -76 -14 -190 5 -257 5 -17 8 -32 5 -32 -10 0 -98 60 -224
153 -155 114 -354 309 -442 433 -115 161 -186 322 -210 475 -7 44 -17 79 -23
79 -6 0 -35 -15 -65 -33 -172 -102 -201 -434 -66 -749 19 -43 -224 54 -338
136 -191 136 -334 372 -368 605 -10 68 -15 81 -30 81 -34 0 -86 -28 -132 -70
-141 -130 -154 -397 -30 -582 19 -28 37 -55 40 -59 6 -10 -37 3 -116 35 -182
75 -402 241 -530 402 -104 130 -164 259 -204 436 l-22 98 -52 -36 c-117 -78
-197 -184 -227 -299 -22 -85 -19 -241 5 -345 66 -272 299 -569 554 -704 l49
-26 -84 0 c-175 -1 -297 -45 -393 -143 -101 -103 -156 -244 -172 -437 l-7 -93
45 31 c62 42 191 106 267 132 126 42 241 61 406 67 189 7 303 -6 425 -47 77
-25 166 -68 158 -75 -2 -2 -40 -17 -85 -35 -219 -84 -373 -245 -373 -390 0
-88 -2 -87 156 -52 77 17 174 36 217 41 97 14 309 14 402 1 81 -11 207 -40
217 -49 3 -3 -28 -47 -70 -98 -132 -157 -181 -257 -182 -369 0 -62 23 -158 40
-169 6 -4 38 18 71 49 142 128 338 195 630 216 265 18 265 18 239 10 -22 -7
-22 -8 -5 -10 11 -1 23 -2 26 -2 3 1 -10 -32 -31 -72 -77 -154 -89 -260 -40
-356 38 -76 34 -77 125 6 122 112 229 189 330 239 107 53 172 71 320 85 539
53 920 183 1339 460 262 173 525 426 731 705 64 86 261 394 420 655 297 488
408 624 548 665 66 19 216 19 291 0 114 -30 192 -80 317 -205 261 -260 450
-651 584 -1205 59 -244 115 -620 115 -773 0 -67 19 -101 70 -122 39 -16 115
-5 142 22 19 19 20 28 14 152 -23 456 -92 868 -290 1742 -193 850 -260 1228
-286 1602 -21 323 -8 460 61 600 144 294 422 363 704 176 31 -20 58 -35 60
-33 2 2 10 42 19 88 43 225 1 406 -119 520 -83 79 -146 104 -280 111 -104 5
-110 6 -113 27 -6 41 35 107 164 268 259 321 345 485 374 715 20 156 -2 363
-55 519 -71 211 -211 359 -390 414 -58 18 -135 30 -135 21 0 -3 11 -20 24 -37
59 -79 98 -192 98 -286 0 -153 -62 -301 -281 -674 -171 -291 -210 -371 -241
-490 -20 -80 -20 -80 -40 58 -33 221 -94 298 -247 312 -63 6 -66 5 -59 -13 23
-57 30 -99 29 -194 0 -88 -9 -146 -52 -350 -66 -312 -77 -372 -101 -558 -23
-178 -25 -294 -6 -447 8 -60 13 -111 12 -112 -1 -1 -44 91 -96 205 -51 114
-149 331 -217 482 -370 819 -764 1459 -1163 1891 -242 261 -568 489 -895 624
-49 21 -216 80 -369 132 -814 274 -1068 396 -1188 571 -16 23 -35 59 -42 79
-7 20 -17 38 -22 39 -5 2 -27 -10 -50 -26z m776 -730 c-19 -5 -39 -5 -43 -1
-4 4 12 8 35 8 l43 1 -35 -8z m-67 -9 c13 -5 -4 -13 -59 -29 -359 -106 -752
-329 -1047 -596 -152 -138 -367 -376 -476 -528 -19 -27 -36 -48 -38 -48 -6 0
50 118 88 185 146 255 392 511 669 697 210 140 526 276 726 312 90 16 112 17
137 7z m-893 -140 c-292 -141 -481 -199 -685 -208 -74 -4 -130 -1 -170 8 -49
11 -55 14 -31 17 22 3 26 6 15 13 -9 6 6 9 44 9 102 0 290 46 612 150 228 74
318 99 365 99 28 1 -2 -17 -150 -88z m1233 12 c-7 -2 -19 -2 -25 0 -7 3 -2 5
12 5 14 0 19 -2 13 -5z m-71 -14 c-21 -6 -39 -6 -50 0 -13 8 -5 10 33 10 48
-1 49 -1 17 -10z m-64 -8 c9 -5 -2 -12 -35 -21 -91 -25 -278 -101 -383 -156
-259 -137 -479 -310 -662 -521 -100 -115 -157 -193 -381 -523 -259 -382 -401
-552 -562 -678 l-60 -46 64 68 c148 160 277 344 501 711 239 392 311 493 477
666 203 211 392 334 649 422 133 46 284 78 337 72 32 -4 36 -3 17 4 l-25 9 25
1 c14 0 31 -3 38 -8z m-2012 -163 c-8 -4 -25 -4 -38 1 -20 8 -18 9 15 8 24 -1
32 -4 23 -9z m2384 2 c-36 -4 -96 -6 -135 -5 -46 2 -53 1 -20 -2 48 -5 46 -6
-66 -29 -429 -87 -742 -293 -1036 -680 -33 -44 -115 -157 -181 -252 -67 -96
-122 -172 -122 -169 0 3 24 59 54 124 188 414 445 717 736 867 209 108 418
154 700 153 106 0 121 -2 70 -7z m3922 -737 c-3 -16 -7 -22 -10 -15 -4 13 4
42 11 42 2 0 2 -12 -1 -27z m18 -103 c0 -196 -87 -411 -315 -781 -289 -468
-417 -772 -469 -1109 -17 -113 -31 -308 -21 -298 4 3 25 60 46 125 73 216 183
389 294 459 16 11 26 13 22 7 -5 -8 -3 -11 5 -9 7 3 27 7 43 11 27 7 28 8 10
15 -16 6 -13 8 13 7 l32 0 -34 -25 c-75 -53 -171 -202 -237 -367 -42 -105 -93
-310 -114 -460 -43 -298 -34 -723 21 -994 9 -49 -56 102 -102 233 -215 617
-285 1415 -155 1776 11 30 20 46 21 35 l1 -20 10 20 c6 14 8 4 4 -35 -34 -382
-32 -733 5 -905 12 -55 24 -103 28 -107 4 -4 5 70 4 165 -8 363 52 690 182
1001 61 145 118 247 237 428 142 213 245 386 302 507 51 108 110 276 121 346
5 31 12 41 27 42 17 2 19 -5 19 -67z m-913 -1312 c-3 -8 -6 -5 -6 6 -1 11 2
17 5 13 3 -3 4 -12 1 -19z m-882 -2518 c-3 -5 -12 -10 -18 -10 -7 0 -6 4 3 10
19 12 23 12 15 0z m-98 -88 c-80 -85 -237 -300 -457 -627 -497 -738 -617 -878
-944 -1096 -362 -241 -706 -363 -1131 -400 -360 -31 -774 43 -1144 203 -189
82 -520 255 -418 218 41 -15 57 -11 22 5 -37 16 -29 19 13 4 18 -6 29 -16 25
-22 -3 -6 -1 -7 5 -3 7 4 110 -25 229 -64 395 -130 631 -180 950 -200 400 -25
798 52 1133 220 122 61 278 165 405 268 116 95 232 201 194 179 -159 -94 -274
-154 -372 -197 -486 -208 -1071 -246 -1642 -106 -215 53 -445 135 -665 237
-134 62 -100 69 70 15 387 -125 704 -197 993 -226 178 -18 552 -8 692 19 369
70 655 198 910 405 191 155 333 308 521 562 238 321 417 512 599 638 40 28 40
28 10 2 -22 -19 -24 -25 -10 -20 30 10 55 35 48 47 -4 6 -1 7 6 3 8 -6 -5 -26
-42 -64z m-3184 -1175 c4 3 7 4 7 0 0 -17 -20 -14 -36 6 -19 22 -19 22 2 4 11
-9 24 -14 27 -10z m29 -14 c-18 -7 -4 -23 21 -23 18 0 19 2 7 10 -24 15 -5 12
51 -10 89 -35 312 -90 451 -110 89 -13 187 -20 298 -20 173 0 225 -10 154 -29
-114 -30 -160 -36 -314 -35 -173 0 -274 14 -401 55 -129 42 -298 137 -284 159
3 6 12 10 18 9 9 0 8 -2 -1 -6z m-787 -113 c3 -6 -1 -7 -9 -4 -18 7 -21 14 -7
14 6 0 13 -4 16 -10z m1850 -40 c-27 -12 -43 -12 -25 0 8 5 22 9 30 9 10 0 8
-3 -5 -9z m-2099 -306 c18 -14 18 -14 -6 -3 -31 14 -36 19 -24 19 6 0 19 -7
30 -16z m84 -28 c0 -2 -7 -7 -16 -10 -8 -3 -12 -2 -9 4 6 10 25 14 25 6z"/>
<path d="M5823 10373 c9 -2 23 -2 30 0 6 3 -1 5 -18 5 -16 0 -22 -2 -12 -5z"/>
<path d="M4655 3965 c17 -8 37 -14 45 -14 8 0 -1 7 -20 14 -46 18 -64 17 -25
0z"/>
<path d="M6293 3953 c9 -2 25 -2 35 0 9 3 1 5 -18 5 -19 0 -27 -2 -17 -5z"/>
<path d="M2670 8781 c-76 -23 -149 -80 -180 -141 -41 -80 -53 -294 -25 -438
44 -222 228 -441 460 -548 198 -92 423 -105 635 -38 86 27 204 104 248 162
l25 33 -54 -22 c-240 -97 -469 -105 -631 -23 -76 39 -153 116 -192 195 -66
132 -71 281 -16 494 17 64 30 131 30 148 -1 74 -60 149 -139 176 -38 12 -123
13 -161 2z"/>
</g>
</svg>
