<?xml version="1.0" standalone="no"?>
<!DOCTYPE svg PUBLIC "-//W3C//DTD SVG 20010904//EN"
 "http://www.w3.org/TR/2001/REC-SVG-20010904/DTD/svg10.dtd">
<svg version="1.0" xmlns="http://www.w3.org/2000/svg"
 width="1095.000000pt" height="1280.000000pt" viewBox="0 0 1095.000000 1280.000000"
 preserveAspectRatio="xMidYMid meet">
<metadata>
Created by potrace 1.15, written by Peter Selinger 2001-2017
</metadata>
<g transform="translate(0.000000,1280.000000) scale(0.100000,-0.100000)"
fill="#5c6f46" stroke="none">
<path d="M5302 12523 c-468 -701 -785 -1238 -1076 -1823 -326 -655 -498 -1139
-562 -1580 -24 -166 -15 -421 20 -586 60 -281 175 -585 499 -1314 401 -904
541 -1250 685 -1690 77 -236 192 -655 192 -700 0 -6 -59 -10 -159 -10 l-158 0
-12 63 c-33 168 -114 464 -188 686 -275 825 -699 1604 -1201 2211 -122 147
-408 433 -536 534 -296 237 -611 393 -886 441 -121 21 -332 21 -435 0 -202
-41 -496 -165 -683 -288 -433 -285 -694 -710 -779 -1267 -21 -143 -24 -528 -5
-670 48 -348 137 -670 267 -965 61 -137 153 -315 163 -315 4 1 32 44 62 97
238 415 484 718 720 885 281 200 623 291 978 260 598 -53 1030 -415 1387
-1165 59 -124 205 -478 205 -497 0 -5 -21 -12 -47 -15 -168 -23 -308 -118
-371 -253 -24 -50 -27 -70 -27 -157 0 -90 3 -106 29 -160 41 -83 119 -158 208
-200 84 -40 168 -55 310 -55 l96 0 7 -85 c12 -137 0 -528 -19 -628 -56 -297
-168 -496 -319 -570 -111 -53 -309 -73 -425 -43 -212 57 -397 228 -606 563
l-49 78 -14 -34 c-27 -65 -82 -299 -104 -442 -33 -211 -33 -564 -1 -732 66
-347 204 -592 427 -753 80 -58 241 -130 355 -159 850 -213 1427 618 1554 2235
8 102 18 272 22 378 l7 192 177 0 c176 0 178 0 184 -22 14 -50 19 -505 7 -643
-37 -432 -122 -751 -370 -1392 -66 -172 -136 -363 -153 -425 -30 -104 -33
-124 -32 -253 0 -125 3 -149 28 -224 103 -312 353 -644 704 -938 l112 -94 78
63 c42 34 133 116 201 183 214 208 367 411 466 618 121 252 133 431 48 701
-14 44 -75 209 -135 366 -190 492 -251 681 -307 953 -61 295 -82 604 -66 950
l7 157 169 0 169 0 0 -77 c0 -180 27 -572 56 -803 121 -986 432 -1640 889
-1869 126 -63 226 -85 380 -86 334 -1 633 145 823 400 242 326 307 906 168
1510 -23 99 -68 235 -78 235 -4 0 -8 -4 -8 -9 0 -18 -180 -279 -244 -354 -121
-141 -259 -236 -396 -272 -118 -31 -315 -12 -426 42 -169 82 -284 307 -330
643 -16 120 -21 458 -9 573 l7 64 157 6 c116 4 172 10 218 25 121 38 221 124
271 230 24 50 27 69 27 162 0 96 -3 110 -29 159 -74 142 -209 229 -383 247
-35 4 -63 11 -63 16 0 14 114 296 174 429 281 624 642 1013 1076 1162 233 80
533 96 794 42 389 -80 707 -316 1013 -750 70 -100 254 -393 275 -440 6 -14 15
-25 19 -25 13 0 155 288 208 421 233 586 300 1203 185 1704 -105 462 -357 832
-739 1090 -169 113 -505 255 -693 291 -101 19 -316 19 -429 -1 -277 -48 -593
-204 -889 -441 -127 -101 -413 -386 -535 -534 -603 -728 -1094 -1708 -1339
-2675 -21 -82 -44 -180 -51 -218 l-13 -67 -148 0 c-113 0 -146 3 -143 13 2 6
18 71 35 142 94 387 273 913 479 1407 49 118 189 439 311 713 240 540 308 699
375 872 71 182 153 446 182 581 24 113 27 149 27 322 1 143 -4 224 -18 304
-121 728 -594 1739 -1404 3006 -170 265 -404 610 -414 610 -4 0 -88 -120 -186
-267z"/>
</g>
</svg>
