<?xml version="1.0" standalone="no"?>
<!DOCTYPE svg PUBLIC "-//W3C//DTD SVG 20010904//EN"
 "http://www.w3.org/TR/2001/REC-SVG-20010904/DTD/svg10.dtd">
<svg version="1.0" xmlns="http://www.w3.org/2000/svg"
 width="1166.000000pt" height="1280.000000pt" viewBox="0 0 1166.000000 1280.000000"
 preserveAspectRatio="xMidYMid meet">
<metadata>
Created by potrace 1.15, written by Peter Selinger 2001-2017
</metadata>
<g transform="translate(0.000000,1280.000000) scale(0.100000,-0.100000)"
fill="#5c6f46" stroke="none">
<path d="M5747 12698 c-456 -574 -883 -1320 -1147 -2003 -241 -623 -369 -1222
-387 -1800 -10 -342 29 -543 161 -836 73 -161 162 -307 455 -749 141 -212 288
-439 328 -505 330 -555 522 -1098 617 -1746 23 -155 46 -393 46 -476 0 -42 4
-73 10 -73 6 0 10 31 10 73 0 83 23 321 46 476 95 648 287 1191 617 1746 40
66 187 293 328 505 293 442 382 588 455 749 132 293 171 494 161 836 -33 1095
-481 2308 -1274 3452 -120 173 -322 435 -340 441 -6 2 -45 -39 -86 -90z"/>
<path d="M2135 7873 c-523 -47 -993 -229 -1375 -533 -96 -77 -273 -255 -341
-345 -155 -202 -270 -429 -338 -666 -108 -374 -105 -798 9 -1227 106 -397 221
-606 456 -833 212 -203 415 -333 945 -604 373 -191 501 -264 600 -342 213
-169 233 -338 65 -543 -25 -29 -44 -55 -42 -57 8 -8 149 43 220 80 220 114
327 316 296 562 -21 172 -93 321 -236 495 -238 287 -399 590 -460 861 -25 110
-23 321 4 420 41 152 117 274 248 399 187 178 429 298 679 337 132 20 377 13
532 -16 535 -100 1030 -411 1321 -829 64 -92 171 -307 206 -414 27 -81 60
-236 71 -331 4 -39 11 -57 18 -53 189 84 355 134 521 157 102 14 96 -3 61 194
-179 1020 -557 1820 -1133 2398 -212 214 -382 348 -625 493 -358 214 -782 353
-1202 394 -94 9 -412 11 -500 3z"/>
<path d="M9015 7870 c-1027 -108 -1896 -727 -2443 -1742 -227 -421 -405 -961
-507 -1543 -35 -197 -41 -180 61 -194 166 -23 332 -73 521 -157 7 -4 14 14 18
53 23 197 69 353 160 538 164 336 423 599 792 804 442 245 981 326 1363 205
225 -71 483 -248 610 -420 54 -72 108 -184 132 -273 27 -99 29 -310 4 -420
-61 -271 -222 -574 -460 -861 -143 -174 -215 -323 -236 -495 -10 -82 -3 -177
19 -252 35 -120 143 -241 277 -310 71 -37 212 -88 220 -80 2 2 -17 28 -42 57
-168 205 -148 374 65 543 99 78 227 151 600 342 530 271 733 401 945 604 235
227 350 436 456 833 171 643 91 1257 -228 1748 -83 128 -136 194 -252 314
-358 369 -844 608 -1405 691 -127 19 -545 28 -670 15z"/>
<path d="M5540 4155 c-423 -59 -737 -221 -843 -435 -28 -57 -32 -75 -32 -145
0 -70 4 -88 32 -145 85 -172 304 -312 608 -389 192 -48 259 -55 525 -55 266 0
333 7 525 55 304 77 523 217 608 389 28 57 32 75 32 145 0 70 -4 88 -32 145
-108 217 -423 378 -853 436 -131 17 -441 17 -570 -1z"/>
<path d="M5207 2657 c-9 -221 -37 -407 -107 -700 -92 -388 -277 -607 -575
-683 -80 -20 -282 -24 -354 -6 l-43 10 27 -28 c45 -47 175 -136 264 -180 46
-23 127 -53 180 -67 131 -33 305 -29 426 10 197 65 383 218 512 423 7 10 -1
-17 -17 -62 -50 -140 -63 -224 -63 -389 0 -232 44 -406 163 -650 56 -115 150
-268 191 -310 19 -19 19 -19 38 0 41 42 135 195 191 310 119 244 163 418 163
650 0 165 -13 249 -63 389 -16 45 -24 72 -17 62 129 -205 315 -358 512 -423
121 -39 295 -43 426 -10 53 14 134 44 180 67 89 44 219 133 264 180 l27 28
-43 -10 c-72 -18 -274 -14 -354 6 -298 76 -483 295 -575 683 -70 293 -98 479
-107 700 -3 95 -9 170 -14 168 -14 -9 -197 -44 -286 -55 -48 -6 -194 -11 -323
-11 -129 0 -275 5 -323 11 -89 11 -272 46 -286 55 -5 2 -11 -73 -14 -168z"/>
</g>
</svg>
