<?xml version="1.0" standalone="no"?>
<!DOCTYPE svg PUBLIC "-//W3C//DTD SVG 20010904//EN"
 "http://www.w3.org/TR/2001/REC-SVG-20010904/DTD/svg10.dtd">
<svg version="1.0" xmlns="http://www.w3.org/2000/svg"
 width="1280.000000pt" height="1280.000000pt" viewBox="0 0 1280.000000 1280.000000"
 preserveAspectRatio="xMidYMid meet">
<metadata>
Created by potrace 1.15, written by Peter Selinger 2001-2017
</metadata>
<g transform="translate(0.000000,1280.000000) scale(0.100000,-0.100000)"
fill="#5c6f46" stroke="none">
<path d="M5905 8074 c-104 -16 -249 -80 -313 -139 -80 -72 -126 -227 -104
-346 28 -152 129 -288 268 -361 80 -42 110 -48 99 -20 -41 98 -44 167 -11 237
46 101 161 171 297 182 83 7 152 -9 249 -57 260 -131 460 -373 713 -867 78
-154 113 -213 126 -213 9 0 32 16 51 35 l34 35 -34 77 c-158 364 -307 661
-418 833 -192 299 -433 508 -667 580 -69 21 -226 34 -290 24z"/>
<path d="M8575 7274 c-302 -45 -551 -152 -799 -342 -33 -25 -184 -166 -336
-312 -282 -271 -413 -385 -553 -479 -161 -108 -373 -195 -532 -219 -97 -15
-205 -24 -205 -17 0 3 13 31 29 63 38 76 54 150 53 240 -3 285 -199 517 -501
593 -73 19 -104 21 -230 16 -202 -7 -335 -45 -479 -139 -192 -126 -336 -328
-398 -563 -39 -148 -18 -400 45 -547 11 -27 17 -48 12 -48 -4 0 -80 46 -167
103 -505 328 -779 453 -1093 498 -114 16 -305 7 -406 -20 -257 -68 -440 -232
-476 -426 -32 -171 43 -338 196 -440 80 -52 153 -75 246 -75 94 0 163 23 231
78 56 44 128 136 128 162 0 29 -15 32 -76 14 -143 -41 -271 28 -304 166 -33
140 55 273 216 326 48 15 86 19 209 18 174 0 293 -24 472 -96 157 -62 285
-138 653 -383 659 -440 906 -536 1335 -522 275 9 464 57 720 182 203 99 363
209 720 495 94 75 185 147 203 160 17 13 32 30 32 39 0 16 -54 103 -75 121
-12 10 -42 -9 -157 -94 -542 -403 -765 -539 -1025 -624 -175 -58 -239 -67
-458 -67 -186 0 -207 2 -305 28 -61 16 -152 51 -219 83 -102 50 -124 65 -206
147 -102 103 -142 169 -176 292 -56 204 -7 433 128 600 104 128 226 195 374
203 192 10 302 -73 325 -245 12 -97 -31 -174 -123 -220 -50 -24 -69 -28 -143
-27 -63 0 -99 6 -136 22 -29 11 -54 18 -57 16 -10 -10 21 -83 57 -137 60 -91
184 -169 320 -203 86 -21 387 -30 512 -15 367 45 710 203 1074 495 135 109
264 225 489 440 232 222 394 324 626 394 166 51 208 57 395 57 147 0 189 -4
262 -22 329 -83 528 -282 615 -613 22 -81 26 -118 27 -255 1 -164 -7 -222 -46
-345 -43 -134 -102 -232 -197 -325 -149 -146 -335 -210 -513 -175 -169 33
-266 132 -255 261 6 67 25 107 75 157 94 94 227 107 330 32 53 -38 93 -108 97
-166 2 -26 10 -53 18 -61 13 -13 19 -11 51 18 64 56 81 100 81 210 0 92 -1 98
-42 181 -89 178 -298 321 -547 372 -101 21 -321 22 -438 1 -175 -30 -339 -96
-538 -214 -58 -35 -107 -64 -108 -66 -6 -6 50 -104 70 -121 17 -16 25 -14 156
54 193 100 399 162 538 162 l41 0 -67 -69 c-111 -113 -160 -235 -160 -401 0
-104 14 -167 54 -255 14 -32 26 -59 26 -61 0 -10 -124 60 -210 117 -108 73
-269 223 -339 318 -64 87 -150 230 -211 350 -64 128 -69 132 -120 91 -49 -39
-49 -35 32 -184 115 -211 200 -326 368 -500 191 -197 370 -331 590 -441 531
-267 1038 -203 1421 177 123 123 201 226 447 598 177 267 230 340 301 411 96
96 177 143 271 158 103 17 228 -19 267 -75 10 -14 28 -37 40 -52 21 -26 21
-26 42 -8 36 32 54 98 49 173 -12 171 -154 310 -349 343 -133 23 -267 -3 -429
-82 -93 -46 -116 -62 -200 -148 -99 -100 -161 -192 -222 -330 l-32 -72 -27
110 c-114 463 -453 804 -919 924 -99 25 -137 30 -275 33 -88 2 -173 1 -190 -1z"/>
</g>
</svg>
