<?xml version="1.0" standalone="no"?>
<!DOCTYPE svg PUBLIC "-//W3C//DTD SVG 20010904//EN"
 "http://www.w3.org/TR/2001/REC-SVG-20010904/DTD/svg10.dtd">
<svg version="1.0" xmlns="http://www.w3.org/2000/svg"
 width="1121.000000pt" height="1280.000000pt" viewBox="0 0 1121.000000 1280.000000"
 preserveAspectRatio="xMidYMid meet">
<metadata>
Created by potrace 1.15, written by Peter Selinger 2001-2017
</metadata>
<g transform="translate(0.000000,1280.000000) scale(0.100000,-0.100000)"
fill="#5c6f46" stroke="none">
<path d="M8381 12348 c-19 -13 -41 -34 -49 -48 -12 -22 -11 -21 8 3 67 84 150
66 206 -46 32 -63 94 -222 94 -239 -1 -7 -14 21 -29 62 -66 178 -125 260 -185
260 -22 0 -75 -54 -137 -140 -26 -36 -90 -114 -143 -175 -158 -182 -187 -256
-190 -482 0 -78 -4 -144 -8 -148 -3 -4 -9 26 -12 67 -12 140 -14 142 -11 6 2
-76 0 -138 -5 -138 -4 0 -34 36 -65 81 -66 94 -152 183 -221 228 -42 27 -44
28 -14 4 109 -88 208 -200 252 -288 27 -53 20 -45 -41 47 -94 140 -252 267
-413 331 -141 57 -227 71 -423 72 -200 0 -263 -9 -423 -61 -193 -63 -376 -175
-496 -304 -188 -204 -267 -434 -253 -742 3 -74 2 -130 -4 -133 -11 -7 -10 -16
-19 165 l-6 145 -2 -135 c-1 -120 5 -206 24 -320 4 -27 3 -31 -5 -20 -14 20
-8 -18 30 -177 36 -155 86 -289 155 -422 72 -137 105 -183 183 -261 140 -139
318 -188 522 -145 302 64 529 296 593 607 17 84 23 353 7 344 -5 -3 -12 18
-16 46 -23 169 -122 355 -228 430 -18 13 -6 -4 28 -39 34 -33 75 -88 93 -121
33 -61 73 -165 71 -186 0 -6 -13 24 -28 67 -57 158 -166 277 -299 328 -78 29
-216 37 -299 15 -181 -46 -315 -169 -358 -330 -18 -65 -17 -155 1 -200 5 -14
4 -17 -4 -12 -7 4 -13 1 -13 -6 -3 -28 -17 50 -18 97 -1 45 14 124 33 180 5
12 2 11 -7 -5 -35 -59 -45 -213 -21 -310 5 -20 4 -22 -6 -10 -9 12 -10 5 -5
-30 4 -25 11 -60 17 -78 5 -18 8 -38 5 -45 -2 -6 0 -21 5 -32 5 -11 -7 -2 -27
20 -54 60 -96 156 -103 234 -25 303 49 542 223 717 44 44 105 95 135 112 133
75 316 109 482 91 348 -39 613 -253 675 -545 9 -44 21 -82 26 -85 6 -4 7 -76
4 -175 -5 -190 -26 -316 -82 -490 -19 -60 -32 -110 -30 -112 2 -2 19 46 39
106 53 170 72 271 100 547 2 22 3 -18 1 -90 -6 -220 -74 -482 -185 -710 -128
-263 -247 -388 -635 -665 -205 -146 -313 -237 -451 -376 -307 -310 -558 -706
-731 -1154 -24 -63 -51 -125 -59 -137 -17 -26 -37 -21 -53 13 -16 36 -13 44 5
11 21 -38 35 -30 60 34 35 87 37 109 5 42 -16 -35 -34 -63 -39 -63 -10 0 -13
7 -92 199 -165 399 -405 764 -694 1055 -140 141 -251 234 -464 385 -220 156
-300 221 -395 320 -119 125 -204 264 -281 459 -41 104 -89 280 -82 299 3 7 1
38 -5 70 -15 95 -12 318 6 408 83 401 390 647 807 646 355 -1 620 -194 694
-506 9 -38 21 -78 25 -87 5 -10 9 -64 9 -120 0 -116 -25 -237 -65 -323 -44
-93 -50 -87 -47 43 2 64 -1 125 -7 136 -5 12 -17 54 -25 94 -25 118 -92 230
-169 284 -22 15 -13 1 29 -44 68 -73 110 -152 119 -219 5 -43 5 -43 -10 10
-24 84 -63 147 -131 211 -99 93 -221 140 -359 140 -137 0 -239 -43 -335 -139
-117 -118 -178 -285 -167 -461 3 -53 2 -102 -3 -109 -8 -15 -17 36 -24 149 -2
30 -2 1 0 -65 7 -206 11 -238 39 -320 52 -152 136 -286 238 -380 86 -80 235
-158 347 -181 129 -27 286 -8 396 49 258 133 448 533 494 1037 14 150 1 408
-20 395 -4 -2 -10 20 -14 50 -14 121 -83 293 -168 418 -50 74 -165 189 -233
235 -39 26 -42 27 -15 5 128 -102 225 -215 290 -336 38 -70 81 -178 79 -201 0
-6 -12 23 -27 64 -107 294 -362 525 -702 634 -165 53 -225 61 -430 60 -166 -1
-195 -4 -284 -27 -234 -62 -443 -210 -555 -390 -12 -20 -25 -37 -27 -37 -10 0
28 62 77 127 29 37 44 62 35 54 -9 -8 -40 -44 -68 -80 -28 -36 -54 -69 -57
-73 -3 -4 -7 14 -8 40 -5 108 -15 192 -23 187 -4 -2 -11 18 -14 46 -10 73 -48
187 -78 234 -14 22 -74 96 -133 165 -59 69 -132 160 -162 203 -30 42 -64 84
-76 92 -34 24 -91 19 -127 -11 -28 -24 -97 -141 -87 -150 2 -2 17 24 33 57 35
74 73 109 118 109 44 0 77 -27 135 -114 27 -39 101 -131 164 -204 114 -133
159 -204 171 -272 4 -23 -2 -14 -17 26 -32 83 -45 103 -165 242 -57 67 -131
158 -165 203 -77 104 -100 118 -147 95 -43 -20 -76 -72 -125 -195 -80 -203
-123 -451 -111 -650 4 -59 3 -112 -2 -119 -13 -19 -25 167 -19 286 4 76 4 84
-3 37 -12 -87 -11 -227 1 -325 5 -47 12 -119 14 -160 10 -213 138 -543 286
-739 43 -57 42 -62 -4 -27 -37 28 -82 51 -117 60 -14 4 -1 -7 28 -23 70 -42
66 -49 -6 -12 -108 55 -163 66 -317 65 -104 -1 -166 -7 -239 -22 -174 -39
-217 -29 -340 77 -69 60 -108 78 -146 66 -40 -13 -44 -32 -36 -210 5 -114 -4
-109 -24 13 -8 52 -9 50 -3 -18 4 -41 7 -104 8 -140 5 -151 112 -466 224 -658
22 -39 45 -81 50 -95 l10 -26 -47 15 c-68 20 -74 17 -17 -11 56 -28 55 -28
-70 13 -233 78 -438 83 -641 17 -27 -9 -148 -65 -269 -125 -121 -59 -260 -122
-310 -140 -94 -33 -150 -76 -139 -105 4 -8 1 -15 -5 -15 -19 0 -12 46 11 75
21 27 21 27 0 14 -28 -18 -44 -56 -33 -77 5 -9 8 -38 7 -64 -1 -25 2 -45 5
-42 3 2 15 -6 25 -19 18 -20 18 -21 1 -7 -17 12 -16 9 3 -27 12 -23 28 -47 36
-54 8 -6 22 -27 30 -45 29 -60 191 -194 331 -274 219 -126 421 -191 594 -191
116 0 155 7 306 52 137 41 143 39 92 -36 l-42 -60 57 60 57 60 -44 -60 c-216
-293 -328 -572 -368 -914 -7 -63 -10 -179 -7 -288 3 -100 1 -188 -3 -194 -13
-22 -22 144 -17 336 3 139 2 171 -5 120 -7 -59 -6 -168 6 -582 1 -28 6 -49 11
-46 5 4 6 -5 2 -20 -8 -33 16 -159 60 -309 198 -690 656 -1199 1208 -1343 139
-36 244 -48 388 -43 71 3 124 1 116 -3 -20 -11 -168 -49 -197 -50 -17 -1 -20
-3 -9 -6 10 -2 56 3 104 12 47 9 88 14 91 12 7 -8 -217 -46 -307 -52 -105 -8
-231 6 -378 42 -94 23 -116 25 -133 15 -22 -14 -39 -8 -39 13 0 20 29 26 75
15 61 -15 65 -10 10 10 -59 22 -106 25 -123 8 -9 -9 -18 -6 -38 13 -26 23 -26
23 -15 2 6 -13 20 -27 31 -33 11 -6 25 -20 31 -33 6 -12 -10 -2 -38 26 -57 55
-83 61 -83 19 0 -19 12 -40 40 -67 22 -21 38 -41 35 -43 -3 -3 0 -11 6 -19 6
-7 -14 -2 -45 12 -78 34 -81 31 -10 -10 70 -42 114 -87 114 -117 0 -15 -7 -9
-23 23 -20 39 -34 50 -127 97 -218 110 -421 157 -645 150 -120 -4 -152 -9
-225 -34 -107 -36 -216 -108 -281 -186 -30 -36 -79 -119 -120 -201 -86 -174
-117 -213 -209 -261 -71 -37 -99 -69 -87 -100 3 -8 16 -16 29 -19 22 -4 22 -4
-2 -6 -54 -3 -65 40 -23 90 24 29 25 31 5 20 -28 -15 -45 -47 -39 -77 2 -13 0
-24 -4 -24 -17 0 -9 -50 12 -69 12 -11 18 -24 15 -30 -4 -5 -1 -13 5 -17 8 -5
9 -3 4 6 -5 8 -4 11 3 6 6 -4 9 -13 6 -21 -3 -8 9 -34 28 -58 18 -25 40 -58
49 -74 37 -67 179 -149 393 -228 l50 -18 -40 -35 -39 -34 42 21 c24 12 43 20
43 17 0 -2 -29 -23 -65 -46 -172 -112 -268 -278 -312 -540 -17 -102 -23 -435
-9 -525 7 -48 7 -49 -9 -27 -14 19 -17 54 -18 210 -1 103 1 223 5 267 4 53 4
65 -2 35 -29 -158 -18 -595 16 -649 l17 -26 -22 19 -21 19 6 -34 c8 -44 34
-99 46 -99 5 0 6 -4 3 -10 -3 -5 -1 -10 5 -10 8 0 10 -13 5 -40 l-7 -40 37 0
c33 0 45 8 104 68 36 37 92 102 125 145 64 84 141 147 306 250 138 87 207 143
271 219 53 63 119 187 119 221 0 11 15 47 33 80 l32 61 12 -134 c13 -148 30
-291 39 -330 4 -20 3 -22 -5 -10 -14 20 -14 7 4 -70 45 -191 126 -367 214
-462 49 -53 58 -59 89 -56 27 2 40 10 51 31 19 32 157 149 256 215 39 25 185
104 325 175 140 71 282 148 315 172 81 58 167 146 222 228 60 91 72 102 89 85
7 -7 31 -91 53 -187 61 -264 179 -600 228 -649 12 -12 23 -30 23 -38 0 -8 11
-20 25 -26 31 -14 80 0 80 22 0 9 12 31 27 50 14 19 52 91 82 160 68 152 113
219 252 375 268 301 446 558 596 862 55 112 104 201 109 197 5 -3 9 3 9 12 0
10 2 15 6 12 3 -3 -13 -118 -35 -255 -23 -136 -41 -257 -40 -268 1 -11 9 27
19 85 36 208 94 502 97 493 2 -6 -17 -129 -41 -275 -82 -479 -107 -758 -95
-1063 3 -82 4 -152 2 -154 -14 -19 -18 49 -18 297 0 218 5 323 19 435 10 82
16 150 14 153 -9 8 -38 -273 -49 -464 -12 -202 0 -475 27 -644 8 -50 12 -93 9
-96 -3 -3 -5 3 -5 13 0 10 -2 16 -5 13 -16 -16 103 -538 241 -1055 35 -133 87
-332 114 -444 28 -111 57 -214 65 -230 8 -15 15 -37 15 -48 0 -11 7 -26 15
-33 9 -7 32 -28 52 -46 61 -55 119 -65 327 -59 100 3 197 10 217 16 49 15 110
70 141 127 25 46 79 246 269 984 78 303 141 609 164 790 22 172 30 539 16 730
-14 185 -50 474 -60 478 -4 1 -5 19 -3 39 3 21 1 33 -5 30 -5 -3 -8 7 -5 24 2
17 0 29 -7 29 -6 0 -8 12 -4 32 5 24 3 29 -7 23 -10 -6 -11 0 -6 30 5 27 4 35
-5 30 -9 -6 -10 2 -5 30 5 24 4 35 -3 31 -6 -4 -8 3 -5 18 2 14 -3 67 -11 118
-17 109 -19 162 -5 153 5 -3 43 -72 84 -153 200 -393 385 -668 644 -957 192
-214 222 -259 273 -420 35 -109 54 -145 76 -145 10 0 12 -8 8 -34 -6 -28 -4
-35 13 -40 10 -4 28 -3 38 0 27 10 108 96 138 146 61 105 142 363 176 563 25
145 46 209 67 201 8 -3 16 -6 18 -6 1 0 42 -50 91 -112 131 -165 194 -210 508
-366 286 -143 417 -223 508 -309 46 -44 58 -62 56 -82 -2 -20 3 -28 24 -35 23
-8 33 -6 56 11 15 11 37 23 49 27 37 12 114 105 149 180 76 165 102 302 110
581 3 105 8 196 10 204 5 15 23 -9 146 -190 99 -148 174 -225 292 -299 296
-186 330 -215 403 -346 81 -146 118 -177 169 -140 15 12 17 17 7 27 -14 14
-17 30 -5 28 22 -4 32 5 51 44 33 70 44 198 37 442 -6 224 -13 298 -25 290 -4
-2 -13 31 -20 73 -42 248 -141 420 -317 549 -35 26 -64 50 -64 54 0 4 44 22
98 40 232 76 394 190 418 294 4 17 17 45 31 62 20 28 23 39 17 83 -4 28 -11
47 -16 44 -6 -4 -8 2 -6 12 7 29 -19 72 -52 89 -42 22 -51 19 -13 -5 31 -19
59 -57 49 -67 -2 -3 -19 11 -36 30 -17 20 -41 39 -53 43 -38 12 -105 63 -127
97 l-22 32 29 -33 c29 -34 81 -72 98 -72 5 0 -7 11 -26 24 -46 32 -95 105
-157 237 -55 116 -120 209 -184 261 -70 56 -67 50 17 -35 66 -67 90 -100 129
-180 26 -54 46 -100 44 -102 -2 -2 -25 39 -52 92 -82 160 -198 266 -355 323
-239 88 -551 53 -870 -96 -98 -46 -108 -48 -44 -7 37 23 37 23 8 17 -16 -4
-41 -14 -55 -23 -23 -14 -24 -14 -13 0 7 9 11 18 8 21 -3 2 13 22 35 43 42 41
52 78 24 89 -10 4 -34 -12 -70 -46 -30 -28 -57 -49 -59 -46 -3 3 15 22 40 42
25 21 45 43 45 49 0 6 -12 0 -27 -15 -26 -26 -26 -26 -42 -6 -16 19 -18 19
-74 3 -31 -9 -57 -18 -57 -19 0 -2 20 -1 45 2 35 4 46 1 51 -12 3 -9 0 -23 -7
-32 -11 -14 -13 -14 -21 0 -13 23 -54 20 -165 -11 -89 -24 -114 -27 -283 -27
-143 -1 -206 3 -278 18 -51 10 -91 21 -88 23 2 2 41 -3 86 -11 45 -9 94 -16
109 -15 14 0 -14 9 -64 19 -93 19 -267 74 -205 65 405 -61 736 13 1062 237
102 70 263 219 347 322 195 239 347 559 415 878 47 216 59 358 52 618 -6 252
-13 321 -27 299 -6 -10 -9 -6 -9 13 0 50 -47 252 -84 363 -63 186 -166 378
-306 563 l-32 42 34 0 c18 0 96 -18 173 -41 175 -50 297 -60 423 -35 344 70
797 355 828 522 3 18 12 38 20 45 9 8 14 32 14 73 0 44 -3 57 -10 46 -7 -11
-8 -3 -4 27 5 36 3 45 -19 67 -15 14 -31 26 -36 26 -6 0 1 -11 14 -25 16 -15
24 -34 24 -52 -1 -23 -2 -24 -6 -6 -7 36 -53 67 -152 102 -51 18 -183 78 -293
133 -233 115 -268 130 -363 151 -163 37 -321 31 -493 -19 -93 -27 -111 -29
-67 -8 l30 14 -43 -6 c-49 -7 -49 -5 5 88 74 126 156 367 188 549 17 97 20
294 5 284 -6 -4 -10 17 -10 55 0 104 -32 151 -102 149 l-33 -1 37 -7 c20 -4
44 -13 52 -21 23 -18 39 -87 31 -137 -10 -71 -24 -58 -22 21 2 85 -15 116 -65
116 -39 0 -62 -13 -128 -73 -62 -56 -140 -97 -186 -97 -18 0 -76 10 -130 22
-78 17 -132 22 -259 22 -147 0 -166 -2 -232 -25 -40 -14 -73 -24 -73 -22 0 2
19 13 43 24 41 20 34 21 -40 2 l-27 -6 38 64 c140 241 204 480 213 795 5 172
-8 371 -25 384 -4 3 -15 46 -25 95 -40 196 -150 465 -207 507 -42 30 -81 32
-119 6z m-5114 -670 c-3 -7 -5 -2 -5 12 0 14 2 19 5 13 2 -7 2 -19 0 -25z
m-261 -757 c12 -34 31 -72 43 -85 16 -17 21 -35 21 -74 0 -46 2 -52 20 -52 14
0 26 11 35 33 8 17 15 29 16 25 1 -5 3 -12 4 -18 1 -5 3 -20 4 -32 2 -22 3
-22 10 -3 5 11 11 -40 15 -125 4 -80 11 -179 17 -220 5 -41 7 -93 4 -115 -4
-30 -3 -35 5 -20 7 15 8 12 4 -16 -12 -75 98 -529 160 -664 41 -88 148 -267
206 -345 l41 -55 -28 -9 -28 -10 25 -7 c14 -4 -31 -5 -100 -2 -140 5 -151 7
-148 25 2 7 -12 19 -29 27 -35 15 -43 31 -17 31 8 0 12 5 9 10 -3 6 -19 10
-34 10 -24 0 -28 3 -24 23 3 13 -6 37 -21 60 -31 45 -25 64 28 95 25 15 35 29
39 53 3 19 10 51 15 72 12 45 3 139 -9 97 l-7 -25 -1 24 c-2 51 -202 461 -282
577 -27 40 -27 42 -9 47 20 5 28 27 10 27 -6 0 -5 8 2 19 10 16 9 27 -5 55
-12 27 -14 42 -7 62 6 14 10 55 10 92 -1 58 -2 65 -14 50 -18 -24 -24 -23 -20
5 10 73 11 119 2 106 -7 -10 -8 -6 -4 13 4 15 1 70 -5 123 -12 102 -5 189 14
182 6 -2 21 -32 33 -66z m5274 48 c0 -13 4 -18 12 -13 14 9 5 -96 -21 -249
-23 -130 -19 -155 23 -148 5 1 5 -8 2 -21 -4 -13 -11 -36 -15 -53 -7 -25 -10
-27 -16 -12 -4 10 -1 27 10 43 16 25 16 26 -2 22 -15 -3 -18 -13 -18 -69 0
-45 -5 -73 -18 -92 -21 -33 -22 -51 -1 -68 17 -14 14 -17 63 50 15 21 18 21
16 5 -2 -26 -34 -74 -51 -74 -7 0 -16 -5 -20 -12 -4 -7 -3 -8 4 -4 21 13 13
-5 -55 -112 -37 -59 -100 -174 -140 -257 -40 -82 -70 -139 -67 -125 4 14 8 39
10 56 1 17 11 78 23 135 34 168 50 295 56 439 10 237 15 279 31 273 8 -3 25
-2 39 1 23 6 24 9 18 52 -3 25 -2 49 3 52 18 13 41 57 59 112 22 68 33 90 45
90 6 0 10 -9 10 -21z m36 -167 c-19 -125 -20 -162 -6 -162 6 0 10 -4 10 -10 0
-5 -7 -10 -15 -10 -18 0 -20 -17 -3 -22 9 -3 9 -6 1 -11 -7 -4 -17 1 -23 12
-8 15 -4 57 15 166 14 81 26 158 26 173 l2 27 4 -28 c3 -15 -3 -76 -11 -135z
m-5101 -299 c4 -46 3 -73 -3 -73 -15 0 -22 65 -20 190 l1 115 7 -80 c4 -44 11
-113 15 -152z m1952 -5 c-6 -101 -33 -201 -78 -290 -39 -78 -45 -74 -9 5 38
80 69 202 77 300 3 42 8 77 11 77 3 0 2 -42 -1 -92z m2090 -70 c-3 -8 -6 -5
-6 6 -1 11 2 17 5 13 3 -3 4 -12 1 -19z m1052 -140 c-70 -87 -138 -203 -224
-381 -41 -84 -74 -149 -74 -146 -3 23 142 324 197 409 31 50 139 180 148 180
2 0 -19 -28 -47 -62z m-5404 12 c10 -11 16 -20 13 -20 -3 0 -13 9 -23 20 -10
11 -16 20 -13 20 3 0 13 -9 23 -20z m103 -138 c48 -75 142 -254 142 -269 0 -5
-30 48 -65 116 -36 68 -86 154 -111 190 -26 36 -39 60 -31 52 9 -7 38 -47 65
-89z m172 -337 c0 -5 -5 -3 -10 5 -5 8 -10 20 -10 25 0 6 5 3 10 -5 5 -8 10
-19 10 -25z m4802 -160 c-5 -44 1 -52 33 -46 6 1 3 -5 -7 -15 -9 -9 -21 -13
-27 -10 -12 8 -15 74 -5 100 10 26 12 18 6 -29z m-4193 -70 c13 -22 15 -31 6
-20 -18 22 -53 86 -38 70 6 -5 20 -28 32 -50z m4165 9 c3 -8 2 -12 -4 -9 -6 3
-10 10 -10 16 0 14 7 11 14 -7z m29 -47 c-4 -7 -8 -21 -9 -32 0 -11 -3 -36 -5
-55 -4 -34 -3 -35 38 -44 55 -13 63 -39 24 -81 -42 -45 -55 -73 -40 -91 10
-12 5 -14 -25 -14 -24 0 -35 -4 -30 -11 4 -6 20 -8 40 -4 26 4 34 3 34 -9 0
-8 -8 -14 -17 -14 -32 2 -93 -13 -93 -22 0 -6 0 -13 1 -17 1 -14 -44 -21 -126
-21 -54 0 -72 3 -55 8 l25 8 -27 1 c-15 1 -29 5 -33 10 -3 5 19 43 49 85 29
41 79 125 110 185 31 61 61 113 67 117 6 4 22 -6 34 -22 l23 -29 -5 28 c-3 17
-1 27 6 27 7 0 9 5 5 12 -4 7 -3 8 5 4 6 -4 8 -13 4 -19z m-4106 -87 c90 -115
198 -209 443 -382 198 -140 303 -223 414 -329 240 -227 459 -513 600 -784 56
-108 45 -94 -25 30 -132 234 -294 449 -483 644 -159 162 -251 240 -497 416
-215 155 -281 208 -364 291 -48 47 -131 150 -150 184 -12 23 5 3 62 -70z
m4195 -143 c-12 -13 -22 -36 -22 -51 0 -20 -4 -27 -17 -24 -9 2 -18 8 -20 15
-5 13 54 83 70 83 6 0 1 -10 -11 -23z m-4864 -68 c-6 -18 -23 -15 -27 6 -2 11
-12 34 -23 50 -17 26 -15 24 17 -8 20 -21 35 -43 33 -48z m4918 -4 c-19 -15
-46 -20 -46 -10 0 6 40 24 55 24 6 0 1 -6 -9 -14z m-4991 -15 c8 -13 -5 -13
-25 0 -13 8 -13 10 2 10 9 0 20 -4 23 -10z m105 -40 c0 -5 -4 -10 -10 -10 -5
0 -10 5 -10 10 0 6 5 10 10 10 6 0 10 -4 10 -10z m5743 -67 c-7 -2 -19 -2 -25
0 -7 3 -2 5 12 5 14 0 19 -2 13 -5z m-6635 -33 c12 -12 22 -26 22 -33 0 -7 -8
-2 -18 10 -9 12 -28 27 -42 32 -22 9 -23 10 -4 10 11 1 30 -8 42 -19z m6530 0
c-7 -11 -17 -20 -22 -20 -5 0 -1 9 9 20 10 11 20 20 22 20 2 0 -2 -9 -9 -20z
m-6464 -15 c3 -8 1 -15 -4 -15 -6 0 -10 7 -10 15 0 8 2 15 4 15 2 0 6 -7 10
-15z m6362 -14 c-3 -5 0 -11 8 -14 9 -4 12 -15 8 -33 -4 -20 1 -31 19 -46 24
-19 24 -19 -16 -2 -93 38 -145 64 -145 74 0 5 15 14 33 19 42 12 100 13 93 2z
m-6221 -12 c50 -13 50 -20 -3 -50 -20 -11 -30 -18 -22 -16 57 16 57 13 1 -13
-66 -31 -95 -34 -44 -5 15 9 20 14 10 11 -61 -19 -62 -19 -61 16 1 18 2 38 4
43 1 6 2 13 1 18 -2 11 64 9 114 -4z m-165 -24 c-7 -8 -17 -15 -23 -15 -6 0
-2 7 9 15 25 19 30 19 14 0z m6543 -2 c-7 -2 -19 -2 -25 0 -7 3 -2 5 12 5 14
0 19 -2 13 -5z m-6613 -13 c-8 -5 -24 -9 -35 -9 l-20 0 20 9 c11 5 27 9 35 9
13 1 13 0 0 -9z m6409 -31 c24 -11 42 -21 39 -24 -3 -3 -34 8 -69 25 -68 32
-45 31 30 -1z m766 -639 c61 -91 166 -297 179 -350 l6 -25 -12 25 c-6 14 -31
67 -54 118 -53 115 -98 190 -186 312 -38 52 -53 77 -33 55 20 -22 65 -83 100
-135z m-1347 124 c118 -17 257 -59 370 -110 394 -179 708 -559 783 -945 7 -35
17 -67 23 -71 17 -11 12 -267 -7 -375 -10 -51 -30 -134 -47 -185 -16 -51 -28
-94 -26 -96 7 -6 55 151 76 243 10 50 22 127 26 173 4 45 11 82 16 82 11 0 0
-126 -23 -241 -25 -126 -60 -230 -120 -358 -70 -148 -148 -260 -264 -380 -156
-160 -320 -261 -514 -313 -100 -27 -295 -29 -395 -5 -207 51 -413 192 -567
387 -56 72 -113 154 -97 140 3 -3 28 -34 54 -70 87 -119 243 -269 339 -324 30
-17 30 -17 5 1 -194 143 -340 313 -440 513 -87 174 -107 264 -103 455 5 261
176 516 434 645 95 48 206 80 277 80 l53 0 -75 -61 c-87 -70 -101 -89 -23 -31
49 37 97 66 97 60 0 -2 -27 -23 -61 -48 -110 -80 -184 -201 -214 -349 -14 -67
-15 -98 -6 -177 6 -61 7 -103 0 -117 -7 -17 -8 -15 -3 12 4 21 3 31 -4 27 -6
-4 -13 26 -17 81 -10 131 -16 125 -8 -7 3 -63 7 -142 8 -175 6 -162 108 -390
223 -497 84 -79 162 -109 277 -109 326 0 619 323 691 761 21 125 21 364 0 428
-8 26 -24 85 -36 132 -23 93 -71 204 -121 276 -38 56 -131 151 -179 184 -19
13 0 -9 42 -49 42 -39 99 -105 127 -146 45 -67 111 -216 111 -247 -1 -7 -15
25 -33 72 -43 112 -109 210 -201 297 -163 156 -370 234 -616 235 -464 1 -855
-270 -1025 -710 -43 -112 -72 -229 -90 -369 -14 -109 -32 -160 -22 -63 4 30 8
84 11 120 7 87 -10 24 -20 -75 -5 -49 -9 -64 -15 -50 -4 11 -8 14 -8 8 -1 -7
-5 -13 -10 -13 -5 0 -11 37 -13 82 -4 73 -8 84 -32 105 -19 16 -38 23 -64 22
l-37 -2 39 -6 c55 -9 79 -44 84 -126 2 -35 1 -73 -4 -82 -5 -12 -10 10 -14 64
-4 60 -11 87 -24 102 -40 44 -103 19 -169 -66 -257 -335 -413 -772 -456 -1283
-8 -93 -8 -93 -10 -27 -4 192 69 562 154 776 13 36 23 66 21 68 -7 8 -68 -162
-102 -287 -36 -130 -78 -354 -93 -500 -5 -55 -9 -71 -11 -45 -2 35 -3 37 -9
15 -17 -56 -24 116 -13 295 28 431 120 776 301 1132 121 238 256 425 438 606
398 396 891 581 1361 511z m-4549 -23 c559 -118 1056 -531 1341 -1116 38 -77
85 -185 106 -240 45 -124 107 -369 125 -493 7 -54 16 -86 19 -76 8 21 17 -81
27 -271 7 -147 -6 -432 -18 -375 -3 20 -7 26 -8 15 l-2 -20 -8 20 c-5 11 -14
64 -21 117 -7 54 -16 96 -19 93 -4 -2 -5 10 -3 28 3 18 1 29 -4 24 -4 -4 -18
43 -31 105 -76 373 -237 732 -435 969 -55 66 -91 89 -141 89 -56 0 -76 -25
-92 -110 -11 -60 -13 -67 -14 -35 -1 47 -20 86 -22 45 0 -14 -9 16 -19 66 -65
326 -221 594 -445 765 -59 45 -100 72 -80 52 6 -5 40 -33 77 -61 122 -96 226
-225 303 -379 25 -48 45 -92 45 -98 -1 -5 -24 35 -53 90 -66 128 -104 181
-190 272 -160 168 -358 274 -594 319 -131 24 -338 15 -456 -20 -303 -91 -514
-305 -584 -594 -16 -69 -23 -275 -10 -323 5 -19 3 -26 -8 -26 -10 0 -15 20
-19 71 -11 132 -13 141 -14 71 -1 -64 5 -129 22 -240 4 -29 4 -34 -3 -20 -15
31 -13 13 9 -84 62 -279 210 -532 385 -656 322 -230 665 -90 777 317 15 56 21
117 25 257 4 121 2 182 -4 178 -6 -4 -13 14 -17 44 -24 180 -122 343 -272 450
-24 18 -42 34 -40 37 14 13 152 0 229 -23 272 -79 478 -269 536 -495 9 -38 21
-67 24 -63 13 12 7 -144 -9 -236 -13 -78 -30 -137 -79 -276 -6 -16 -5 -17 4
-5 21 29 79 226 96 325 18 105 25 128 25 78 0 -109 -63 -329 -135 -473 -222
-443 -601 -703 -984 -677 -323 22 -651 240 -846 562 -29 47 -3 17 51 -60 84
-121 231 -264 339 -330 42 -26 21 -7 -52 49 -127 96 -253 240 -342 392 -78
133 -159 354 -145 396 3 12 2 18 -3 15 -6 -4 -9 74 -8 196 1 155 5 217 18 269
81 315 257 602 486 791 229 190 466 293 761 331 75 9 307 -4 399 -23z m1870
-746 c0 -5 -8 6 -19 25 -11 19 -19 40 -19 45 0 6 8 -6 19 -25 11 -19 19 -39
19 -45z m-2104 -129 c63 -64 128 -178 139 -246 4 -24 -1 -15 -18 27 -45 120
-113 210 -221 291 l-30 23 35 -17 c19 -9 62 -45 95 -78z m2135 59 c0 -5 -5 -3
-10 5 -5 8 -10 20 -10 25 0 6 5 3 10 -5 5 -8 10 -19 10 -25z m-1191 -155 c0
-8 -7 1 -14 20 -18 46 -17 64 0 25 8 -16 14 -37 14 -45z m282 -185 c54 -28
195 -237 293 -432 68 -136 56 -127 -17 12 -75 143 -100 183 -183 296 -67 91
-111 123 -159 117 -41 -4 -53 -34 -62 -153 l-8 -100 -3 90 c-3 104 0 122 29
158 24 31 64 35 110 12z m-1074 -37 c-3 -7 -5 -2 -5 12 0 14 2 19 5 13 2 -7 2
-19 0 -25z m-1130 -20 c-3 -8 -6 -5 -6 6 -1 11 2 17 5 13 3 -3 4 -12 1 -19z
m5320 -330 c-3 -8 -6 -5 -6 6 -1 11 2 17 5 13 3 -3 4 -12 1 -19z m-2757 -193
c0 -5 -5 -3 -10 5 -5 8 -10 20 -10 25 0 6 5 3 10 -5 5 -8 10 -19 10 -25z m20
-50 c0 -5 -5 -3 -10 5 -5 8 -10 20 -10 25 0 6 5 3 10 -5 5 -8 10 -19 10 -25z
m2360 -145 c6 -11 8 -20 6 -20 -3 0 -10 9 -16 20 -6 11 -8 20 -6 20 3 0 10 -9
16 -20z m-5260 -40 c6 -11 8 -20 6 -20 -3 0 -10 9 -16 20 -6 11 -8 20 -6 20 3
0 10 -9 16 -20z m5300 -30 c6 -11 8 -20 6 -20 -3 0 -10 9 -16 20 -6 11 -8 20
-6 20 3 0 10 -9 16 -20z m-2123 -272 c-3 -8 -6 -5 -6 6 -1 11 2 17 5 13 3 -3
4 -12 1 -19z m0 -171 c-2 -23 -3 -1 -3 48 0 50 1 68 3 42 2 -26 2 -67 0 -90z
m-10 -154 c-2 -21 -4 -6 -4 32 0 39 2 55 4 38 2 -18 2 -50 0 -70z m-10 -100
c-3 -10 -5 -2 -5 17 0 19 2 27 5 18 2 -10 2 -26 0 -35z m2790 -599 c-3 -3 -12
-4 -19 -1 -8 3 -5 6 6 6 11 1 17 -2 13 -5z m789 -79 c-11 -8 -25 -15 -30 -15
-6 1 0 7 14 15 32 19 40 18 16 0z m-6356 -21 c0 -2 -9 0 -20 6 -11 6 -20 13
-20 16 0 2 9 0 20 -6 11 -6 20 -13 20 -16z m6461 -78 c-9 -18 -18 -29 -19 -24
-4 8 24 58 32 58 2 0 -4 -15 -13 -34z m64 -46 c-3 -5 -14 -10 -23 -9 -14 0
-13 2 3 9 27 11 27 11 20 0z m-6598 -22 c-3 -8 -6 -5 -6 6 -1 11 2 17 5 13 3
-3 4 -12 1 -19z m-82 2 c8 -13 -5 -13 -25 0 -13 8 -13 10 2 10 9 0 20 -4 23
-10z m265 -165 c11 -13 6 -15 -45 -15 -62 0 -84 15 -85 57 0 46 78 21 130 -42z
m6240 45 c0 -11 -7 -20 -15 -20 -9 0 -12 -6 -9 -15 7 -16 -9 -19 -39 -6 -18 6
-18 7 0 22 16 14 53 38 61 39 1 0 2 -9 2 -20z m107 -56 c-3 -3 -12 -4 -19 -1
-8 3 -5 6 6 6 11 1 17 -2 13 -5z m-94 -11 c-13 -2 -35 -2 -50 0 -16 2 -5 4 22
4 28 0 40 -2 28 -4z m-6258 -26 c26 -12 65 -48 65 -59 0 -17 -21 -7 -48 22
-19 21 -45 34 -87 44 l-60 14 55 -5 c30 -3 64 -10 75 -16z m6153 13 c-14 -4
-32 -11 -40 -15 -7 -3 -4 1 6 9 11 9 29 16 40 15 17 -1 16 -2 -6 -9z m1672
-20 c6 -11 8 -20 6 -20 -3 0 -10 9 -16 20 -6 11 -8 20 -6 20 3 0 10 -9 16 -20z
m-1752 -77 c-10 -2 -26 -2 -35 0 -10 3 -2 5 17 5 19 0 27 -2 18 -5z m115 0
c-7 -2 -21 -2 -30 0 -10 3 -4 5 12 5 17 0 24 -2 18 -5z m-6210 -10 c-7 -2 -21
-2 -30 0 -10 3 -4 5 12 5 17 0 24 -2 18 -5z m111 -1 c2 -4 -14 -8 -37 -8 -30
-1 -36 1 -22 7 26 10 53 11 59 1z m212 -34 c3 -3 -11 -11 -31 -18 -20 -7 -37
-10 -38 -8 -1 1 -7 12 -13 24 -12 20 -10 20 32 14 24 -4 47 -9 50 -12z m5604
2 c0 -23 -9 -25 -46 -8 l-27 13 24 6 c41 12 49 10 49 -11z m125 -80 c13 -6 15
-9 5 -9 -8 0 -22 4 -30 9 -18 12 -2 12 25 0z m-832 -16 c34 -6 37 -9 37 -39 0
-31 2 -33 55 -43 29 -6 71 -22 92 -35 47 -30 93 -73 93 -86 0 -5 36 -55 80
-110 l79 -100 -103 54 c-125 67 -149 72 -43 10 42 -25 77 -47 77 -50 0 -2 -44
19 -99 47 -121 63 -175 69 -218 25 -25 -25 -28 -34 -27 -92 0 -35 -3 -62 -8
-59 -4 3 -8 31 -8 62 0 58 27 122 52 122 6 0 9 3 6 6 -12 11 -48 -18 -67 -53
-17 -35 -19 -36 -29 -16 -7 12 -27 63 -46 115 -18 51 -46 120 -60 152 -25 55
-25 60 -10 78 18 19 74 24 147 12z m-4103 -15 c0 -5 -18 -53 -41 -106 -22 -52
-39 -97 -36 -99 2 -2 18 31 36 74 17 42 41 88 51 102 16 20 15 13 -6 -35 -46
-105 -76 -187 -116 -320 -25 -85 -36 -113 -32 -81 3 27 19 92 34 145 16 53 27
97 25 99 -1 2 -15 -33 -30 -77 -28 -84 -39 -97 -50 -58 -8 25 -54 77 -68 77
-5 0 5 -16 22 -35 28 -32 31 -42 31 -100 0 -36 -4 -65 -8 -65 -5 0 -8 29 -8
65 1 57 -2 68 -25 91 -35 35 -98 35 -174 0 -30 -14 -55 -23 -55 -20 0 3 28 18
63 34 76 37 63 39 -28 5 l-66 -25 47 57 c43 53 64 89 78 136 7 21 80 56 116
57 33 0 73 28 66 45 -5 13 21 25 79 38 39 9 95 7 95 -4z m3959 -104 c0 -5 -6
1 -14 15 -8 14 -14 30 -14 35 0 6 6 -1 14 -15 8 -14 14 -29 14 -35z m35 -85
c3 -14 -3 -7 -13 15 -11 22 -20 45 -20 50 0 15 26 -37 33 -65z m-1978 -41 c38
-75 128 -458 165 -707 7 -45 16 -78 19 -71 17 27 35 -260 34 -551 -1 -327 -15
-499 -69 -810 -33 -191 -39 -246 -15 -135 49 228 88 564 110 945 8 148 8 144
5 -80 -4 -289 -34 -546 -106 -920 -51 -265 -151 -690 -170 -720 -8 -11 -9 -9
-4 10 44 184 135 599 132 610 -1 8 -13 -34 -25 -95 -41 -198 -103 -442 -116
-460 -11 -16 -14 -15 -24 11 -31 78 -145 620 -136 647 4 14 3 17 -6 12 -10 -6
-11 1 -6 30 6 28 4 35 -5 29 -9 -5 -10 0 -6 18 4 14 0 65 -8 114 -47 300 -66
613 -54 891 13 303 57 579 160 1005 61 254 87 300 125 227z m-689 -91 c-3 -8
-6 -5 -6 6 -1 11 2 17 5 13 3 -3 4 -12 1 -19z m4205 -28 c26 0 156 -67 184
-95 12 -12 25 -20 28 -17 3 3 6 -15 6 -39 0 -24 9 -63 20 -86 10 -24 15 -43
10 -43 -5 0 -12 9 -15 21 -4 11 -9 19 -11 16 -2 -2 5 -33 17 -68 11 -35 22
-81 24 -103 1 -21 9 -42 16 -47 8 -5 10 -9 4 -9 -5 0 -20 -3 -32 -6 -17 -5
-23 -2 -23 10 0 14 -12 19 -46 19 -6 0 -23 36 -39 81 -54 156 -90 232 -171
362 -10 16 -12 23 -4 17 8 -7 22 -13 32 -13z m-7171 -137 c-33 -65 -79 -173
-102 -240 -24 -68 -47 -123 -51 -123 -5 0 -4 9 2 20 9 16 8 20 -4 20 -31 0
-32 51 -6 240 6 46 17 81 28 92 12 13 172 103 189 107 2 1 -24 -52 -56 -116z
m64 65 c-67 -107 -146 -304 -161 -400 -4 -21 -11 -41 -16 -44 -26 -16 47 225
99 331 33 64 91 155 100 155 2 0 -8 -19 -22 -42z m7147 -83 c34 -67 78 -179
78 -198 -1 -6 -15 26 -33 73 -18 47 -49 117 -70 155 -21 39 -30 61 -21 50 8
-11 29 -47 46 -80z m206 -5 c0 -16 -4 -32 -9 -35 -10 -7 -12 25 -3 49 9 23 11
20 12 -14z m-7594 -64 c-3 -15 -8 -25 -11 -23 -2 3 -1 17 3 31 3 15 8 25 11
23 2 -3 1 -17 -3 -31z m8421 -121 c46 -46 83 -94 106 -140 41 -78 74 -173 65
-182 -3 -4 -6 -1 -6 6 0 24 -53 147 -88 201 -43 69 -81 110 -157 168 -82 62
-88 69 -36 41 25 -13 77 -55 116 -94z m-805 25 c0 -5 -2 -10 -4 -10 -3 0 -8 5
-11 10 -3 6 -1 10 4 10 6 0 11 -4 11 -10z m-75 -150 c3 -5 1 -10 -4 -10 -6 0
-11 5 -11 10 0 6 2 10 4 10 3 0 8 -4 11 -10z m-7494 -215 c-7 -66 -9 -71 -10
-30 -1 52 10 137 16 120 1 -6 -1 -46 -6 -90z m-31 -20 c-7 -45 -7 -46 -9 -13
-1 32 8 74 14 66 1 -2 -1 -25 -5 -53z m8587 3 c-3 -8 -6 -5 -6 6 -1 11 2 17 5
13 3 -3 4 -12 1 -19z m-8557 -211 c11 -98 2 -159 -12 -82 -8 45 -11 191 -3
184 2 -3 9 -49 15 -102z m2953 -617 c-3 -11 -7 -20 -9 -20 -2 0 -4 9 -4 20 0
11 4 20 9 20 5 0 7 -9 4 -20z m-4039 -70 c10 -13 9 -13 -6 -1 -10 7 -17 23
-17 35 1 20 2 20 6 1 3 -11 10 -27 17 -35z"/>
<path d="M3065 10690 c-4 -6 7 -10 25 -10 18 0 29 4 25 10 -3 6 -15 10 -25 10
-10 0 -22 -4 -25 -10z"/>
<path d="M7030 7770 c-6 -11 -8 -20 -6 -20 3 0 10 9 16 20 6 11 8 20 6 20 -3
0 -10 -9 -16 -20z"/>
<path d="M6974 7669 c-19 -39 -34 -73 -32 -75 2 -2 21 30 41 71 20 41 35 75
32 75 -3 0 -21 -32 -41 -71z"/>
<path d="M6921 7549 c-6 -18 -9 -34 -7 -36 2 -2 9 10 15 28 6 18 9 34 7 36 -2
2 -9 -10 -15 -28z"/>
<path d="M7809 7543 c-13 -16 -12 -17 4 -4 9 7 17 15 17 17 0 8 -8 3 -21 -13z"/>
<path d="M7750 7449 c-12 -23 -20 -43 -18 -45 3 -2 14 17 26 41 27 56 20 60
-8 4z"/>
<path d="M6886 7444 c-4 -14 -5 -28 -3 -31 3 -2 8 8 11 23 4 14 5 28 3 31 -3
2 -8 -8 -11 -23z"/>
<path d="M6866 7364 c-4 -20 -5 -38 -3 -40 3 -3 8 11 11 32 4 20 5 38 3 40 -3
3 -8 -11 -11 -32z"/>
<path d="M7716 7375 c-3 -9 -6 -22 -5 -28 0 -7 5 -1 10 12 5 13 8 26 5 28 -2
2 -6 -3 -10 -12z"/>
<path d="M7701 7314 c0 -11 3 -14 6 -6 3 7 2 16 -1 19 -3 4 -6 -2 -5 -13z"/>
<path d="M6609 7293 c-13 -16 -12 -17 4 -4 9 7 17 15 17 17 0 8 -8 3 -21 -13z"/>
<path d="M7692 7265 c0 -16 2 -22 5 -12 2 9 2 23 0 30 -3 6 -5 -1 -5 -18z"/>
<path d="M6420 7040 c-6 -11 -8 -20 -6 -20 3 0 10 9 16 20 6 11 8 20 6 20 -3
0 -10 -9 -16 -20z"/>
<path d="M6385 6980 c-9 -16 -13 -30 -11 -30 3 0 12 14 21 30 9 17 13 30 11
30 -3 0 -12 -13 -21 -30z"/>
<path d="M6292 6795 c-17 -37 -14 -45 4 -12 9 16 14 31 11 33 -2 2 -9 -7 -15
-21z"/>
<path d="M9226 6665 c-9 -26 -7 -32 5 -12 6 10 9 21 6 23 -2 3 -7 -2 -11 -11z"/>
<path d="M9186 6573 c-6 -14 -5 -15 5 -6 7 7 10 15 7 18 -3 3 -9 -2 -12 -12z"/>
<path d="M2539 7963 c-13 -16 -12 -17 4 -4 9 7 17 15 17 17 0 8 -8 3 -21 -13z"/>
<path d="M2444 7819 c-14 -28 -24 -53 -22 -55 2 -2 16 21 31 51 15 30 25 55
22 55 -3 0 -16 -23 -31 -51z"/>
<path d="M2390 7684 c-11 -36 -20 -76 -19 -88 0 -11 8 11 19 49 10 39 21 78
25 88 4 9 5 17 1 17 -3 0 -14 -30 -26 -66z"/>
<path d="M2362 7540 c0 -19 2 -27 5 -17 2 9 2 25 0 35 -3 9 -5 1 -5 -18z"/>
<path d="M3901 6543 c-10 -26 -10 -27 4 -9 8 11 15 23 15 28 0 15 -7 8 -19
-19z"/>
<path d="M3850 6450 c-6 -11 -8 -20 -6 -20 3 0 10 9 16 20 6 11 8 20 6 20 -3
0 -10 -9 -16 -20z"/>
<path d="M2520 6016 c0 -3 9 -10 20 -16 11 -6 20 -8 20 -6 0 3 -9 10 -20 16
-11 6 -20 8 -20 6z"/>
<path d="M3353 4183 c9 -2 25 -2 35 0 9 3 1 5 -18 5 -19 0 -27 -2 -17 -5z"/>
<path d="M5772 1840 c0 -14 2 -19 5 -12 2 6 2 18 0 25 -3 6 -5 1 -5 -13z"/>
<path d="M2606 12125 c-9 -26 -7 -32 5 -12 6 10 9 21 6 23 -2 3 -7 -2 -11 -11z"/>
<path d="M2556 11974 c-4 -14 -5 -28 -3 -31 3 -2 8 8 11 23 4 14 5 28 3 31 -3
2 -8 -8 -11 -23z"/>
<path d="M2541 11914 c0 -11 3 -14 6 -6 3 7 2 16 -1 19 -3 4 -6 -2 -5 -13z"/>
<path d="M2531 11874 c0 -11 3 -14 6 -6 3 7 2 16 -1 19 -3 4 -6 -2 -5 -13z"/>
<path d="M7985 11849 c-9 -17 -15 -33 -13 -35 3 -2 12 12 21 31 21 43 13 47
-8 4z"/>
<path d="M2515 11800 c-4 -28 -5 -53 -2 -56 2 -3 7 19 11 47 4 28 5 53 3 56
-3 2 -8 -19 -12 -47z"/>
<path d="M7951 11754 c0 -11 3 -14 6 -6 3 7 2 16 -1 19 -3 4 -6 -2 -5 -13z"/>
<path d="M7941 11714 c0 -11 3 -14 6 -6 3 7 2 16 -1 19 -3 4 -6 -2 -5 -13z"/>
<path d="M7933 11655 c0 -22 2 -30 4 -17 2 12 2 30 0 40 -3 9 -5 -1 -4 -23z"/>
<path d="M5920 11270 c-6 -11 -8 -20 -6 -20 3 0 10 9 16 20 6 11 8 20 6 20 -3
0 -10 -9 -16 -20z"/>
<path d="M5866 11165 c-9 -26 -7 -32 5 -12 6 10 9 21 6 23 -2 3 -7 -2 -11 -11z"/>
<path d="M5846 11115 c-3 -9 -6 -22 -5 -28 0 -7 5 -1 10 12 5 13 8 26 5 28 -2
2 -6 -3 -10 -12z"/>
<path d="M5821 11024 c0 -11 3 -14 6 -6 3 7 2 16 -1 19 -3 4 -6 -2 -5 -13z"/>
<path d="M5812 10980 c0 -14 2 -19 5 -12 2 6 2 18 0 25 -3 6 -5 1 -5 -13z"/>
<path d="M5802 10920 c0 -19 2 -27 5 -17 2 9 2 25 0 35 -3 9 -5 1 -5 -18z"/>
<path d="M6334 10738 l-19 -23 23 19 c12 11 22 21 22 23 0 8 -8 2 -26 -19z"/>
<path d="M4079 10723 c-13 -16 -12 -17 4 -4 16 13 21 21 13 21 -2 0 -10 -8
-17 -17z"/>
<path d="M6303 10698 c-15 -20 -25 -38 -20 -38 3 0 12 11 21 25 17 26 16 35
-1 13z"/>
<path d="M1638 10654 c-33 -18 -48 -43 -47 -81 1 -27 1 -27 9 5 10 42 35 70
74 81 20 6 24 9 11 10 -11 0 -32 -6 -47 -15z"/>
<path d="M4014 10619 c-14 -28 -24 -53 -22 -55 2 -2 16 21 31 51 15 30 25 55
22 55 -3 0 -16 -23 -31 -51z"/>
<path d="M1735 10643 c17 -8 50 -34 75 -57 25 -23 54 -48 65 -56 11 -7 -9 13
-44 46 -65 60 -98 83 -116 83 -5 0 4 -7 20 -16z"/>
<path d="M3976 10535 c-3 -9 -6 -22 -5 -28 0 -7 5 -1 10 12 5 13 8 26 5 28 -2
2 -6 -3 -10 -12z"/>
<path d="M3961 10474 c0 -11 3 -14 6 -6 3 7 2 16 -1 19 -3 4 -6 -2 -5 -13z"/>
<path d="M3952 10430 c0 -14 2 -19 5 -12 2 6 2 18 0 25 -3 6 -5 1 -5 -13z"/>
<path d="M7536 9845 c-9 -26 -7 -32 5 -12 6 10 9 21 6 23 -2 3 -7 -2 -11 -11z"/>
<path d="M7507 9775 c-24 -50 -20 -58 4 -12 11 22 19 41 17 43 -3 2 -12 -12
-21 -31z"/>
<path d="M7445 9650 c-9 -16 -13 -30 -11 -30 3 0 12 14 21 30 9 17 13 30 11
30 -3 0 -12 -13 -21 -30z"/>
<path d="M7410 9590 c-6 -11 -8 -20 -6 -20 3 0 10 9 16 20 6 11 8 20 6 20 -3
0 -10 -9 -16 -20z"/>
<path d="M1650 8230 c-6 -11 -8 -20 -6 -20 3 0 10 9 16 20 6 11 8 20 6 20 -3
0 -10 -9 -16 -20z"/>
<path d="M1572 8075 c-17 -37 -14 -45 4 -12 9 16 14 31 11 33 -2 2 -9 -7 -15
-21z"/>
<path d="M5930 8080 c-6 -11 -8 -20 -6 -20 3 0 10 9 16 20 6 11 8 20 6 20 -3
0 -10 -9 -16 -20z"/>
<path d="M5900 8030 c-6 -11 -8 -20 -6 -20 3 0 10 9 16 20 6 11 8 20 6 20 -3
0 -10 -9 -16 -20z"/>
<path d="M1546 8015 c-9 -26 -7 -32 5 -12 6 10 9 21 6 23 -2 3 -7 -2 -11 -11z"/>
<path d="M5814 7869 c-25 -50 -44 -93 -42 -95 2 -2 25 39 51 91 26 52 45 95
42 95 -3 0 -25 -41 -51 -91z"/>
<path d="M1480 7810 c-7 -28 -10 -53 -8 -55 3 -3 10 18 16 47 7 28 11 53 8 55
-2 2 -9 -19 -16 -47z"/>
<path d="M1455 7700 c-4 -23 -5 -43 -2 -46 2 -3 7 14 11 37 4 23 5 44 2 46 -2
2 -7 -14 -11 -37z"/>
<path d="M5736 7705 c-9 -26 -7 -32 5 -12 6 10 9 21 6 23 -2 3 -7 -2 -11 -11z"/>
<path d="M5706 7635 c-9 -26 -7 -32 5 -12 6 10 9 21 6 23 -2 3 -7 -2 -11 -11z"/>
<path d="M1442 7615 c0 -16 2 -22 5 -12 2 9 2 23 0 30 -3 6 -5 -1 -5 -18z"/>
<path d="M5686 7585 c-9 -26 -7 -32 5 -12 6 10 9 21 6 23 -2 3 -7 -2 -11 -11z"/>
<path d="M8298 5113 c7 -3 16 -2 19 1 4 3 -2 6 -13 5 -11 0 -14 -3 -6 -6z"/>
<path d="M989 4963 c-13 -16 -12 -17 4 -4 9 7 17 15 17 17 0 8 -8 3 -21 -13z"/>
<path d="M925 4859 c-9 -17 -15 -33 -13 -35 3 -2 12 12 21 31 21 43 13 47 -8
4z"/>
<path d="M867 4735 c-15 -30 -25 -55 -22 -55 7 0 57 101 53 106 -2 2 -16 -21
-31 -51z"/>
<path d="M919 3703 c-13 -16 -12 -17 4 -4 9 7 17 15 17 17 0 8 -8 3 -21 -13z"/>
<path d="M845 3589 c-9 -17 -15 -33 -13 -35 3 -2 12 12 21 31 21 43 13 47 -8
4z"/>
<path d="M816 3525 c-9 -26 -7 -32 5 -12 6 10 9 21 6 23 -2 3 -7 -2 -11 -11z"/>
<path d="M786 3434 c-4 -14 -5 -28 -3 -31 3 -2 8 8 11 23 4 14 5 28 3 31 -3 2
-8 -8 -11 -23z"/>
<path d="M772 3370 c0 -14 2 -19 5 -12 2 6 2 18 0 25 -3 6 -5 1 -5 -13z"/>
<path d="M762 3320 c0 -14 2 -19 5 -12 2 6 2 18 0 25 -3 6 -5 1 -5 -13z"/>
</g>
</svg>
