<?xml version="1.0" standalone="no"?>
<!DOCTYPE svg PUBLIC "-//W3C//DTD SVG 20010904//EN"
 "http://www.w3.org/TR/2001/REC-SVG-20010904/DTD/svg10.dtd">
<svg version="1.0" xmlns="http://www.w3.org/2000/svg"
 width="1280.000000pt" height="1274.000000pt" viewBox="0 0 1280.000000 1274.000000"
 preserveAspectRatio="xMidYMid meet">
<metadata>
Created by potrace 1.15, written by Peter Selinger 2001-2017
</metadata>
<g transform="translate(0.000000,1274.000000) scale(0.100000,-0.100000)"
fill="#5c6f46" stroke="none">
<path d="M1825 12734 c-445 -46 -824 -206 -1138 -479 -49 -43 -92 -73 -96 -69
-4 5 -28 36 -54 70 -65 87 -127 148 -191 189 -54 35 -182 83 -192 72 -3 -3 3
-22 14 -44 62 -122 93 -277 93 -450 -1 -210 -20 -300 -123 -576 -33 -89 -69
-191 -79 -227 -71 -244 -76 -563 -13 -895 68 -365 256 -748 517 -1051 52 -60
110 -124 130 -142 l35 -34 -38 -76 c-318 -653 -523 -1429 -586 -2217 -20 -262
-15 -767 10 -970 62 -488 134 -780 416 -1700 275 -896 320 -1090 320 -1386 0
-381 -122 -654 -437 -980 l-83 -85 28 -21 c80 -59 177 -88 334 -99 81 -6 99
-10 103 -25 23 -73 21 -309 -4 -436 -48 -244 -150 -515 -319 -848 -90 -177
-95 -171 72 -88 468 234 781 569 927 994 18 52 34 96 35 97 7 10 182 -134 269
-222 183 -184 299 -398 361 -660 l18 -79 14 32 c15 38 64 232 86 341 46 228
71 530 62 724 l-7 129 33 -26 c402 -326 831 -584 1522 -915 166 -79 333 -159
371 -177 120 -58 202 -162 255 -328 12 -37 25 -65 30 -62 19 12 32 108 25 195
l-7 89 68 -20 c428 -125 890 -207 1349 -239 193 -13 679 -14 865 0 826 59
1578 259 2315 614 94 45 217 108 273 140 l103 58 57 -54 c455 -432 1115 -617
1707 -477 116 27 203 58 345 124 172 79 300 155 408 243 23 19 44 33 46 31 2
-2 16 -29 31 -59 78 -155 192 -271 337 -344 104 -52 224 -86 303 -86 l53 0
-59 116 c-140 281 -209 524 -209 741 0 113 17 201 68 363 200 626 224 1178 71
1640 -73 224 -225 488 -407 713 l-63 78 59 152 c419 1069 535 2222 341 3372
-89 531 -278 1128 -506 1605 l-74 155 43 34 c74 59 231 222 296 308 292 384
429 854 381 1305 -12 116 -74 370 -121 498 -81 221 -220 447 -378 614 -39 40
-70 76 -70 79 0 3 28 25 62 50 107 76 203 187 262 304 28 57 76 212 76 249 0
22 -3 21 -80 -25 -231 -141 -513 -221 -724 -208 -101 7 -132 14 -465 116 -380
115 -434 125 -701 125 -174 0 -247 -4 -320 -17 -393 -74 -800 -260 -1104 -504
-44 -34 -82 -63 -86 -63 -4 0 -49 20 -101 44 -165 76 -397 166 -624 241 -647
214 -1280 315 -1975 315 -938 0 -1832 -197 -2665 -588 -82 -39 -155 -72 -161
-74 -6 -2 -40 33 -76 77 -280 345 -700 585 -1166 666 -113 20 -401 33 -497 23z
m9043 -585 c328 -35 675 -183 857 -365 73 -74 127 -146 219 -296 86 -140 111
-191 147 -299 42 -126 59 -233 59 -374 0 -364 -137 -694 -401 -969 l-76 -80
-53 80 c-29 43 -78 113 -108 154 l-55 74 -2 176 c-3 203 -20 318 -71 469 -58
173 -130 269 -280 368 -38 25 -73 49 -77 53 -5 4 13 36 40 71 58 78 106 179
134 285 25 94 28 286 6 374 l-13 55 -22 -58 c-50 -132 -141 -285 -219 -368
-57 -61 -173 -140 -245 -167 -30 -11 -110 -32 -179 -46 -68 -14 -139 -30 -158
-35 -31 -10 -37 -7 -100 43 -153 121 -405 299 -564 395 -48 30 -90 57 -92 61
-7 12 141 126 240 185 290 174 661 253 1013 214z m-9144 -299 c121 -31 189
-66 246 -126 123 -130 166 -358 96 -509 -35 -77 -115 -158 -195 -198 -62 -30
-72 -32 -171 -31 -85 0 -116 4 -163 23 -109 43 -201 158 -231 289 l-13 57 -25
-50 c-40 -80 -66 -153 -94 -260 -36 -135 -45 -393 -19 -530 22 -120 66 -250
120 -354 45 -86 45 -86 26 -111 -10 -14 -53 -76 -96 -138 -43 -63 -81 -110
-85 -105 -51 54 -170 285 -219 426 -94 267 -127 594 -86 847 64 391 306 705
600 776 80 20 221 17 309 -6z m4782 -166 c29 -5 27 -7 -92 -127 -187 -189
-298 -373 -383 -634 -60 -181 -75 -287 -76 -503 0 -113 5 -213 14 -258 l13
-74 62 124 c334 673 954 1118 1702 1223 168 24 203 21 349 -29 142 -47 395
-145 395 -152 0 -3 -14 -32 -30 -65 -45 -88 -113 -259 -154 -384 -91 -282
-133 -522 -142 -820 -16 -471 60 -834 284 -1359 94 -223 256 -476 450 -704
l43 -51 -43 -11 c-137 -34 -332 -125 -425 -199 -61 -48 -149 -139 -208 -215
-54 -70 -168 -256 -156 -256 4 0 40 11 80 25 321 113 677 137 996 69 121 -26
315 -96 441 -160 239 -120 448 -279 674 -510 263 -269 474 -561 690 -954 143
-261 241 -573 284 -905 9 -65 16 -134 16 -152 l0 -33 -32 14 c-18 8 -85 38
-148 67 -157 71 -365 143 -548 190 -151 39 -417 89 -471 89 -38 0 -42 6 -24
47 20 49 43 186 43 259 0 85 -24 212 -59 318 -37 111 -46 121 -56 60 -10 -67
-58 -211 -96 -286 -73 -147 -185 -267 -307 -331 -45 -24 -124 -49 -237 -77
-335 -83 -701 -215 -965 -348 -194 -98 -322 -183 -625 -417 -725 -560 -941
-706 -1326 -896 -346 -171 -649 -259 -994 -289 -133 -12 -540 -14 -642 -4
l-65 7 124 47 c440 169 849 380 1200 619 357 243 623 495 930 881 262 330 411
503 608 704 262 268 414 385 613 472 208 92 486 173 712 208 144 22 416 39
513 32 45 -3 82 -3 81 1 0 5 -35 39 -77 76 -262 231 -588 371 -952 407 -267
27 -583 -33 -834 -159 l-92 -46 4 166 c8 283 -38 559 -153 919 -13 41 -58 181
-99 310 -79 248 -103 370 -155 785 -85 671 -57 1171 89 1628 22 67 38 123 36
125 -8 8 -226 -96 -294 -140 -150 -99 -297 -271 -393 -461 -100 -197 -134
-359 -127 -602 l4 -154 -76 53 c-396 276 -847 434 -1298 454 -379 18 -775 -28
-1327 -154 -678 -155 -1235 -177 -1637 -64 -107 30 -256 85 -272 100 -4 5 32
68 83 142 137 200 117 182 187 164 93 -24 270 -39 369 -32 111 8 306 47 404
80 167 57 347 174 509 330 117 113 187 201 234 296 18 36 33 67 34 69 2 2 17
-13 34 -32 65 -74 165 -121 335 -157 110 -24 163 -25 263 -4 225 46 463 180
618 348 l67 71 -69 8 c-453 53 -841 253 -965 500 -61 120 -67 108 84 184 305
152 646 283 992 377 308 85 573 130 930 159 73 6 502 7 531 1z m2739 -827 c61
-38 151 -98 202 -133 l91 -64 -13 -57 c-28 -125 -38 -243 -32 -405 6 -191 37
-332 107 -493 97 -219 302 -464 507 -603 268 -182 548 -272 858 -278 l160 -3
67 -131 c229 -451 416 -1046 492 -1571 46 -314 67 -754 51 -1053 l-7 -138 -50
93 c-59 110 -176 292 -258 399 -191 250 -419 483 -940 961 -398 365 -666 635
-816 819 -326 403 -522 763 -637 1170 -82 290 -102 441 -102 775 1 335 18 450
108 727 l31 97 36 -21 c19 -12 85 -53 145 -91z m1682 44 c121 -42 186 -84 294
-191 102 -101 147 -174 188 -300 24 -71 37 -219 24 -263 -8 -27 -11 -24 -110
100 -151 191 -265 318 -461 517 l-177 178 79 -6 c46 -3 114 -18 163 -35z
m-476 -1086 c47 -55 125 -151 173 -214 l88 -114 -43 7 c-66 11 -174 50 -237
88 -73 43 -227 197 -270 270 -48 80 -89 186 -107 273 -28 135 -31 136 148 -45
90 -91 201 -210 248 -265z m-8751 -1300 c199 -72 576 -155 705 -155 19 0 35
-2 35 -5 0 -3 -22 -33 -49 -68 -213 -272 -344 -593 -380 -933 -18 -160 -136
-526 -204 -629 -38 -58 -46 -66 -107 -114 -104 -82 -239 -139 -392 -164 l-73
-13 75 -75 c117 -119 236 -169 400 -169 92 0 164 17 241 56 l46 23 33 -77 c90
-206 197 -351 554 -748 200 -222 266 -328 326 -524 56 -185 65 -253 65 -518 0
-133 0 -242 1 -242 1 0 20 27 43 60 77 109 141 253 176 393 19 78 45 250 45
302 0 22 3 56 6 76 l6 36 47 -14 c234 -72 581 -87 827 -38 101 20 234 58 234
66 0 3 -42 9 -94 12 -203 13 -438 57 -586 109 -191 68 -306 145 -473 318 -177
183 -353 390 -332 390 3 0 45 -26 93 -59 173 -116 230 -135 412 -135 157 0
253 21 385 83 149 71 225 141 387 357 l76 100 -82 -32 c-129 -52 -228 -68
-381 -61 -88 4 -154 12 -204 27 -322 92 -573 338 -681 670 -68 208 -62 311 37
640 112 370 290 646 522 808 41 29 75 51 77 50 1 -2 -7 -37 -19 -78 -31 -117
-29 -351 5 -480 48 -180 125 -316 258 -454 139 -145 284 -198 605 -221 44 -3
107 -8 140 -11 l60 -6 -57 51 c-115 104 -207 256 -249 416 -17 61 -22 109 -22
205 0 154 21 242 92 386 101 204 256 326 486 381 106 25 323 23 448 -5 354
-78 663 -261 913 -540 167 -187 266 -336 384 -577 80 -163 105 -244 154 -500
65 -337 72 -731 17 -1005 l-17 -85 -45 70 c-153 235 -353 414 -604 540 -237
118 -385 155 -655 162 -206 5 -294 -5 -469 -53 -104 -29 -127 -44 -67 -44 55
0 177 -26 274 -59 407 -136 725 -465 846 -874 41 -137 51 -214 50 -377 -1
-352 -102 -596 -330 -795 -95 -84 -161 -133 -362 -269 -760 -517 -1864 -693
-2767 -440 -763 214 -977 328 -1153 616 -220 360 -342 837 -383 1488 -15 245
-15 805 0 980 54 631 208 1238 450 1773 l30 67 53 -21 c29 -12 82 -32 118 -44z
m8530 -4225 c283 -30 543 -96 838 -213 l152 -60 -81 -156 c-79 -152 -221 -397
-256 -440 l-18 -22 -50 21 c-133 57 -391 85 -568 61 -424 -57 -803 -347 -1016
-776 -106 -214 -158 -409 -168 -635 -5 -121 5 -282 23 -346 5 -18 -11 -29
-118 -88 -1032 -562 -2172 -770 -3328 -607 -51 7 -53 8 -25 16 596 159 1083
429 1490 827 l110 108 -106 -55 c-566 -293 -1238 -500 -1859 -574 -263 -32
-292 -32 -446 -6 -602 102 -1117 328 -1659 729 -49 36 -86 66 -82 66 5 0 65
-9 135 -20 272 -42 412 -52 782 -57 284 -4 413 -1 580 11 428 33 708 74 975
143 370 95 675 227 1210 523 401 223 489 262 670 295 114 22 318 15 450 -14
180 -39 382 -125 559 -236 49 -31 91 -53 94 -51 8 9 -28 142 -58 216 -78 190
-248 374 -430 465 -30 16 -88 40 -128 55 l-72 26 128 87 c565 381 1128 621
1622 691 58 9 123 17 145 19 90 8 416 6 505 -3z m1847 -913 c291 -434 370
-1045 199 -1544 -99 -291 -268 -518 -521 -697 -251 -178 -475 -245 -784 -233
-231 9 -392 50 -592 154 -95 49 -261 161 -266 180 -1 5 26 28 60 53 34 25 105
79 157 121 92 73 98 76 175 88 295 48 660 259 797 461 99 148 150 319 151 510
l0 105 67 95 c165 235 340 517 435 702 28 54 52 98 55 98 3 0 33 -42 67 -93z
m-1567 -462 c0 -3 -46 -58 -103 -122 -184 -209 -407 -425 -627 -607 l-83 -69
6 74 c13 147 73 309 164 437 97 137 285 252 461 282 53 9 182 13 182 5z m605
-820 c-60 -260 -250 -476 -485 -549 -41 -13 -97 -26 -125 -29 l-50 -6 70 62
c173 154 392 367 491 477 59 66 109 118 111 116 2 -2 -3 -34 -12 -71z"/>
</g>
</svg>
